<?xml version="1.0" encoding="utf-8"?>
<!-- Generator: Adobe Illustrator 16.0.0, SVG Export Plug-In . SVG Version: 6.00 Build 0)  -->
<svg version="1.2" baseProfile="tiny" id="Layer_1" xmlns="http://www.w3.org/2000/svg" xmlns:xlink="http://www.w3.org/1999/xlink"
	 x="0px" y="0px" width="150px" height="200px" viewBox="0 0 150 200" overflow="scroll" xml:space="preserve">
<g>
	<path fill="#753D24" d="M91.497,27.807c2.197-0.871,4.421-1.68,6.586-2.625c4.955-2.164,5.263-2.232,11.817-1.452
		c-1.871,2.191-3.343,4.443-5.529,6.091c-4.33,3.266-7.75,7.418-11.175,11.556c-1.044,1.261-1.97,2.85-1.787,4.423
		c0.232,2.021-0.227,3.59-2.252,5.361c3.532-0.074,5.584-1.392,7.222-3.439c1.389-1.738,2.941-3.193,5.181-3.884
		c-1.907,3.008-2.778,6.339-3.985,9.559c-1.377,3.677-0.959,7.126,0.369,10.489c0.714,1.808,1.194,3.525,1.054,5.413
		c-0.208,2.776,0.657,5.436,0.793,8.173c0.046,0.935,0.54,1.643,1.304,2.168c-0.092,0.482-0.182,0.962-0.338,1.798
		c-1.36-1.217-1.976-2.707-2.5-4.062c-2.848-7.378-8.604-11.405-15.775-13.58c-3.764-1.141-7.593-2.416-11.658-2.163
		c-0.745,0.046-1.502-0.002-2.11,0.55c-1.146,1.434-2.942,0.932-4.385,1.483c-0.814,0.168-1.642,0.283-2.438,0.535
		c-0.307,0.11-0.62,0.191-0.937,0.266c-0.939,0.179-1.878,0.368-2.773,0.72c-1.217,0.388-2.416,0.845-3.707,0.93
		c-0.744,0.045-1.495,0.052-2.224,0.264c-0.275,0.098-0.558,0.175-0.84,0.251c-0.563,0.153-1.124,0.312-1.67,0.522
		c-0.274,0.122-0.555,0.218-0.838,0.309c-0.575,0.189-1.128,0.426-1.647,0.743c-0.543,0.345-1.108,0.638-1.725,0.826
		c-1.163,0.231-2.131,0.862-3.095,1.512c-5.17,3.071-6.674,8.406-8.381,13.601c-0.567,1.727-0.296,3.784-2.049,5.025
		c-1.268,2.558-2.476,5.149-3.819,7.668c-1.808,3.386-0.771,7.078-1.07,10.597c-0.171,2.004-0.593,4.145-0.082,6.268
		c0.795,3.314,1.167,6.74,2.083,10.016c1.472,5.264,2.169,10.711,4.265,15.838c2.259,5.529,4.647,10.912,8.319,15.695
		c1.156,1.506,2.356,2.951,3.79,4.104c4.097,3.289,7.489,7.266,11.209,10.924c5.554,5.459,12.334,7.207,19.909,4.938
		c2.984-0.895,5.849-2.189,8.829-3.09c2.836-0.859,4.74-2.637,6.055-5.184c1.202-2.324,2.827-4.396,4.295-6.531
		c2.629-3.818,3.351-8.219,4.646-12.449c2.402-7.854,3.081-16.074,4.923-24.059c0.771-3.34,0.404-6.955,0.45-10.445
		c0.06-4.467,0.015-8.936,0.144-13.437c0.815,2.483,1.587,5.024,2.17,7.517c0.538,2.309-0.194,4.918-0.394,7.391
		c-0.05,0.619-0.497,1.387-0.263,1.818c2.12,3.928-0.23,7.697-0.29,11.533c-0.059,4,0.231,8.029-0.168,11.994
		c-0.588,5.807-0.601,11.695-2.089,17.398c-0.118,0.447,0.091,0.979,0.146,1.471c1.573,3.359-0.141,6.578-0.514,9.83
		c-0.342,2.965-1.351,5.861-0.275,8.869c0.31,0.869,0.328,2.025-0.537,2.365c-2.995,1.178-2.968,4.01-3.739,6.385
		c-0.575,1.771-1.465,2.652-3.269,1.568c-1.298-0.775-2.136-0.809-3.023,0.689c-2.061,3.475-2.139,3.426-5.501,0.83
		c-0.886,0.26-0.952,1.084-1.164,1.773c-0.687,2.256-1.988,2.299-3.658,1.049c-0.903-0.678-1.626-1.555-2.506-2.26
		c-0.889-0.713-1.43-0.535-2.039,0.488c-2.402,4.043-2.44,4.02-5.861,0.615c-0.827,1.115-0.185,3.684-1.292,3.48
		c-2.898-0.535-5.424-0.004-8.155,0.734c-0.974,0.264-1.876-1.773-2.642-2.916c-0.561-0.84-1.245-1.912-2.288-0.633
		c-1.675,2.053-2.909,0.727-3.923-0.527c-5.367-6.643-12.104-11.881-18.069-17.902c-3.492-3.525-7.006-7.078-9.872-11.18
		c-2.677-2.535-3.57-5.848-4.268-9.32c-0.614-3.055-1.771-6.006-2.3-9.068c-1.58-9.143-1.842-18.361-0.607-27.559
		c0.288-2.148-0.042-3.291-2.032-4.078c-2.116-0.84-3.37-2.568-3.983-4.697c-1.964-6.824-4.044-13.623-5.739-20.516
		c-1.375-5.596,0.95-9.114,6.51-10.344c-0.382,1.102-1.206,1.623-1.866,2.203c-1.455,1.279-1.994,2.98-1.764,4.732
		c0.776,5.928,1.736,11.833,2.629,17.747c0.038,0.246,0.104,0.488,0.165,0.73c1.122,4.477,1.863,4.709,5.491,1.711
		c1.889,2.436,1.889,2.436,1.601,5.205c2.61-1.322,2.672-1.426,1.973-3.674c-0.223-0.715-0.453-1.434-0.75-2.119
		c-0.938-2.174-1.372-2.314-3.671-1.15c-0.442,0.223-0.817,0.564-1.342,0.455c-1.597-1.285-1.197-3.194-1.49-4.856
		c-0.76-4.304-1.512-8.614-2.06-12.948c-0.477-3.765,0.092-3.998,3.4-5.911c2.521-1.457,4.299-3.967,5.899-6.452
		c1.619-2.512,3.29-4.999,4.755-7.601c2.783-4.951,7.087-8.352,11.584-11.529c3.771-2.666,8.028-4.733,11.471-7.75
		c5.672-4.968,12.327-8.818,17.227-14.609c2.403-2.843,4.567-5.925,7.017-8.749c3.683-4.244,7.21-8.803,11.977-11.792
		c6.429-4.032,13.159-7.772,21.269-6.71c0.348,0.89-0.279,1.203-0.778,1.492c-5.819,3.367-10.226,8.36-14.917,13.01
		c-4.517,4.476-9.032,8.958-12.945,14.003c-1.692,2.182-2.995,4.591-4.46,6.908c-0.651,1.028-0.799,1.899,0.288,2.541
		c1.051,0.62,1.523-0.359,2.04-1.03c0.608-0.792,1.275-1.55,1.788-2.401c2.17-3.603,4.907-6.573,8.855-8.258
		c1.168-0.898,2.306-1.851,3.785-2.217L91.497,27.807z"/>
	<path d="M108.158,156.387c-0.344-0.352-0.479-0.922-0.467-1.822c0.053-3.971,0.604-7.902,0.782-11.861
		c0.354-7.803,1.581-15.568,2.435-23.35c0.11-0.994-0.03-2.225,0.923-2.732c3.405-1.814,2.989-4.865,2.7-7.857
		c-0.66-6.809-1.395-13.61-2.093-20.414c-0.482-4.71-3.226-6.374-7.725-4.699c-0.179,0.067-0.444-0.103-0.725-0.177
		c-0.548-0.849-0.537-1.868-0.676-2.849c-0.17-1.201-1.021-1.244-1.955-1.145c-0.292,0.035-0.578,0.009-0.856-0.071
		c-2.368-4.153-4.14-8.57-8.294-11.681c-5.839-4.375-12.485-5.947-19.381-7.027c-1.437-0.225-3.322-0.633-4.092,1.485
		c0.136,0.238,0.413,0.315,0.54,0.476c0.543,0.689-0.255,0.305-0.363,0.357c-0.906,0.434-2.559,0.448-1.028,2.073
		c1.301,0.571,2.716,0.306,4.061,0.525c7.485,1.222,15.227,2.593,19.896,9.183c6.849,9.663,10.654,20.665,10.87,32.605
		c0.273,14.996-2.645,29.6-6.521,43.982c-2.836,10.523-8.625,18.465-20.302,20.553c-3.978,0.713-7.705,0.479-11.368-1.115
		c-2.217-0.967-3.906-2.725-5.729-4.209c-7.575-6.164-14.871-12.6-19.477-21.512c-7.23-13.992-9.201-28.951-8.316-44.422
		c0.162-2.826,0.76-5.728,3.023-7.866c2.105-3.351-0.523-3.274-2.595-3.595c-6.862,8.07-5.902,17.644-4.883,27.067
		c0.521,4.809,1.941,9.531,3.099,14.26c2.683,10.947,6.624,21.318,14.961,29.311c3.789,3.633,7.615,7.213,11.283,10.973
		c3.009,3.086,6.63,5.303,11.04,5.914c14.634,2.029,29.528-8.561,33.038-23.156c1.985-8.256,4.08-16.461,5.503-24.854
		c0.673-3.971,1.089-7.926,1.253-11.883c-0.063,4.289,0.085,8.594-0.444,12.885c-0.606,4.93-0.166,9.963-0.674,14.965
		c-0.464,4.58-1.522,9.127-1.248,13.779c0.525,1.365,1.752,1.063,2.802,1.174c0.35-0.01,0.69-0.051,1.03-0.143
		c0.06,0.008,0.12,0.014,0.18,0.021C108.259,158.5,108.182,157.461,108.158,156.387z M107.169,109.705
		c-0.207,1.553-0.316,3.111-0.382,4.67c0.042-3.295-0.104-6.59-0.451-9.896c-0.109-0.525-0.18-1.057-0.179-1.596
		c-0.021-0.176-0.035-0.354-0.059-0.527c-0.033-0.262-0.112-0.361-0.215-0.303c-0.437,0.244,0.27-0.481,0.323,0.016
		c-0.042,0.275-0.05,0.545-0.05,0.814c0.067,0.531,0.121,1.064,0.179,1.596C106.688,106.201,107.412,107.877,107.169,109.705z"/>
	<path d="M101.626,1.875c-6.542,1.299-12.11,4.486-17.631,7.898c-1.393,0.861-2.497,2.071-3.541,3.328
		c-0.638,0.768-1.25,1.571-1.981,2.242c-3.694,3.377-7.194,7.016-10.062,11.048c-3.854,5.423-8.812,9.458-14.001,13.392
		c-2.099,1.591-5,2.21-6.448,4.393c-1.974,2.976-4.961,4.385-7.725,6.229c-5.627,3.756-10.82,7.883-14.587,13.749
		c-2.15,3.353-3.877,6.99-6.42,10.104c-0.771,0.945-1.302,1.669-2.721,1.071c-4.26-1.795-9.674,2.27-10.869,6.203
		c-1.105,3.636,0.041,6.938,0.841,10.245c1.286,5.318,3.14,10.496,4.546,15.787c0.781,2.936,2.163,5.332,4.812,6.775
		c1.3,0.709,1.272,1.566,1.184,2.771c-0.295,3.936-0.493,7.877-0.688,11.82c-0.099,1.996,1.166,3.896,0.572,5.912
		c-0.525,1.775-0.101,3.504,0.199,5.178c0.947,5.268,2.082,10.502,3.185,15.738c0.437,2.068,1.063,4.068,2.309,5.799
		c1.36,0.818,2.463,1.984,3.105,3.445c0.028-0.02,0.059-0.031,0.087-0.053c0.982-0.732,1.745-1.568,1.456-2.932
		c-1.322-2.674-2.735-5.248-3.642-8.17c-3.692-11.898-4.505-24.002-3.17-36.293c0.29-2.658-0.217-4.668-2.569-6.078
		c-1.922-1.152-3.033-2.926-3.708-5.016c-0.193-0.604-0.373-1.211-0.562-1.816c-0.141-0.311-0.271-0.648-0.377-1.035
		c-0.099-0.355-0.181-0.713-0.272-1.07c-1.394-4.661-2.647-9.362-3.942-14.052c-1.117-4.04-0.569-7.419,2.891-10.074
		c-1.181,1.583-2.386,3.244-2.098,5.299c0.883,6.303,1.565,12.64,3.149,18.827c0.21,0.705,0.433,1.404,0.649,2.105
		c0.675,1.482,1.784,2.098,3.691,1.541c1.13-0.332,1.972-0.279,2.193,1.133c0.181,1.148-0.135,2.904,1.825,2.529
		c1.874-0.359,2.506-1.873,2.338-3.721c-0.28-3.105-1.833-4.877-5.078-5.226c-1.508-0.162-1.886-0.932-2.112-2.109
		c-0.917-4.791-1.728-9.6-2.127-14.464c-0.125-1.521-0.012-3.126,1.518-3.982c5.059-2.828,7.75-7.644,10.622-12.343
		c2.353-3.852,5.047-7.385,8.552-10.359c6.77-5.746,14.681-9.872,21.425-15.697c4.919-4.248,10.196-8.035,14.138-13.309
		c3.901-5.221,8.129-10.182,13.006-14.503c6.218-5.507,13.398-8.958,21.869-9.551c0.004,0.545-0.141,0.705-0.364,0.879
		c-10.599,8.259-19.97,17.744-28.23,28.332c-1.239,1.588-2.211,3.338-2.888,5.238c-0.409,1.144-0.409,2.271,0.717,3.019
		c1.188,0.788,2.144,0.146,2.963-0.722c0.859-0.911,1.592-1.931,2.322-2.945c2.127-2.949,4.21-5.937,7.765-7.385
		c1.029-1.078,1.965-2.272,3.496-2.681c0.305-0.154,0.591-0.338,0.848-0.562c0.441-0.834,2.243-1.71-0.085-2.452
		c-1.713,0.876-3.426,1.754-5.14,2.631c-0.437-0.289-0.244-0.623-0.068-0.957c7.173-7.288,13.622-15.348,22.518-20.8
		c1.263-0.774,2.728-1.834,2.745-4.011C108.514,2.233,105.229,1.16,101.626,1.875z"/>
	<path d="M91.497,27.807c-0.221-0.912,1.891-1.353,0.504-2.5c2.65-1.625,5.592-2.694,8.39-3.982
		c2.564-1.183,5.668-0.443,8.527-0.256c1.604,0.106,3.159,0.691,4.808,0.618c0.626-0.028,1.277,0.146,1.51,0.852
		c0.236,0.711-0.19,1.157-0.739,1.528c-5.305,3.595-9.537,8.42-14.173,12.75c-2.817,2.629-5.935,5.435-6.953,9.553
		c-0.087,0.35-0.349,0.692,0.038,1.061c1.311-0.3,1.911-1.486,2.731-2.359c2.674-2.852,6.164-4.61,9.248-6.9
		c1.138-0.845,3.043-2.182,4.248-0.395c0.988,1.466-1.018,2.278-1.88,3.19c-2.673,2.825-5.274,5.64-6.486,9.488
		c-0.496,1.575-0.777,3.143-0.879,4.763c-0.108,1.709,0.578,3.5-0.558,5.11c-0.117,0.167-0.102,0.526-0.008,0.729
		c1.663,3.538,0.486,7.583,2.129,11.202c0.724,1.595-0.15,3.705,0.666,5.551c0.352,0.797-0.93,1.028-1.264,1.673
		c0.002-0.001-0.265,0.157-0.265,0.157c-2.119-0.18-1.977-1.984-2.243-3.334c-1.035-5.245-1.255-10.601-2.709-15.821
		c-1.154-4.144,0.717-10.011,3.552-14.622c-2.39,1.77-3.696,4.653-6.647,5.514c-1.041,0.304-2.156,1.109-3.157,0.165
		c-0.876-0.826-0.105-1.843-0.003-2.804c0.934-8.684,7.422-13.535,13.056-18.939c1.703-1.633,3.604-3.035,4.683-5.305
		c-4.37-1.147-7.881,1.036-11.573,2.447C94.602,27.492,93.254,28.794,91.497,27.807z"/>
	<path fill="#FFAA81" d="M67.407,64.515c5.957-0.178,11.546,1.196,17.064,3.449c6.412,2.616,10.006,7.649,12.719,13.558
		c2.505,5.457,4.22,11.222,5.729,17.007c0.774,2.972,0.919,6.175,0.868,9.267c-0.034,2.109-0.254,4.248-0.167,6.361
		c0.243,5.939-1.357,11.598-2.234,17.383c-1.009,6.666-2.39,13.221-3.969,19.75c-1.375,5.689-4.708,10.406-7.854,15.203
		c-1.318,2.01-3.408,2.834-5.548,3.592c-4.1,1.451-8.037,3.529-12.57,3.293c-4.2-0.217-7.694-1.686-11.21-4.301
		c-3.938-2.932-7.18-6.496-10.887-9.578c-6.676-5.551-10.993-12.666-13.959-20.537c-4.262-11.301-6.132-23.086-5.725-35.232
		c0.124-3.735,1.088-7.128,2.466-10.486c0.229-0.559,0.352-1.659,1.48-0.904c1.2,1.219,1.031,2.793,0.948,4.259
		c-0.216,3.782,0.647,7.465,0.954,11.196c0.22,2.67,1.625,4.961,3.665,6.771c3.007,2.666,6.416,4.785,9.742,7.002
		c3.182,2.119,6.192,0.91,9.122-0.799c4.038-2.359,5.857-6.297,7.565-10.357c0.795-1.891,0.96-5.01,3.024-5.111
		c2.02-0.1,1.974,3.08,2.925,4.77c2.377,4.219,3.481,9.084,7.04,12.717c4.691,4.791,11.091,5.85,16.303,2.41
		c2.701-1.779,4.067-4.521,4.749-7.402c1.25-5.275,1.3-10.719-0.311-15.924c-1.477-4.775-2.763-9.62-4.477-14.313
		c-2.472-6.772-5.995-12.742-13.645-14.728c-5.013-1.301-6.842-0.377-9.447,4.117c-1.266,2.187-1.923,4.615-2.997,6.862
		c-1.142,2.386-2.265,2.439-3.719,0.28c-0.979-1.452-1.629-3.097-2.423-4.658c-3.224-6.332-8.221-8.58-15.202-6.82
		c-1.455,0.367-2.892,0.815-4.371,1.072c-0.718,0.125-1.58,0.338-2.032-0.447c-0.569-0.991,0.164-1.668,0.857-2.2
		c2.43-1.87,5.294-2.749,8.209-3.489c1.003-0.153,2.032-0.097,3.025-0.349c0.303-0.102,0.612-0.183,0.921-0.261
		c0.752-0.188,1.494-0.416,2.196-0.759c0.855-0.4,1.724-0.764,2.672-0.879c0.92-0.096,1.856-0.087,2.748-0.4
		c0.301-0.117,0.605-0.208,0.913-0.3c0.799-0.229,1.573-0.535,2.388-0.715C65.865,63.74,66.722,63.8,67.407,64.515z"/>
	<path d="M50.887,68.244c-6.993,2.242-6.993,2.242-9.331,4.814c2.691-0.862,5.452-1.413,8.202-2.012
		c4.779-1.039,11.051,2.07,13.145,6.497c1.209,2.555,2.458,5.09,3.796,7.855c1.398-1.351,1.756-2.875,2.103-4.222
		c0.703-2.734,2.428-4.919,3.553-7.415c0.778-1.727,2.479-2.45,4.332-2.509c4.271-0.14,8.096,0.97,11.354,3.934
		c4.991,4.544,7.663,10.322,9.345,16.699c0.826,3.134,1.801,6.221,2.852,9.295c1.343,3.923,1.469,7.999,0.992,12.144
		c-0.33,2.857-0.84,5.504-1.981,8.246c-3.182,7.635-13.709,8.734-19.648,3.426c-3.08-2.75-5.604-5.932-6.892-10.074
		c-0.988-3.172-2.669-6.129-4.12-9.352c-1.179,2.861-2.21,5.58-3.408,8.225c-2.33,5.145-5.969,8.773-11.738,9.922
		c-1.591,0.316-3.059,0.107-4.305-0.752c-3.896-2.684-7.842-5.328-11.497-8.318c-1.7-1.391-2.828-3.654-3.021-5.893
		c-0.473-5.459-1.588-10.89-1.004-16.416c0.896-1.021,1.379-1.937-0.644-1.968c-0.888-0.014-0.814-0.667-0.964-1.202
		c1.021-5.735,2.695-11.213,5.914-16.162c1.137-1.749,2.383-3.087,4.554-3.272c0.994-0.559,2.057-0.963,3.127-1.344
		c0.432-0.316,0.86-0.635,1.29-0.952c0.761-0.444,1.774,0.062,2.462-0.657l0.013-0.003c0.615-0.635,1.668,0.005,2.235-0.769
		l-0.003,0.003c0.651-0.578,1.606-0.067,2.263-0.627c1.488-0.092,2.782-1.077,4.32-0.943c0.978-0.609,2.276,0.221,3.183-0.708
		l-0.019,0.011c0.661-0.577,1.68,0.008,2.3-0.707c1.522-1.267,3.33-0.861,5.068-0.857c1.182,0.355,2.637-0.317,3.916,1.001
		c-1.811,0.949-3.937-0.341-5.221,1.333c-0.948,0.04-1.896,0.08-2.843,0.12c-0.728,0.503-1.741-0.027-2.416,0.666l-0.01,0.007
		c-0.863,0.797-2.168-0.121-3.008,0.772c-0.969,0.257-1.939,0.514-2.908,0.771c-0.673,0.583-1.69,0.006-2.334,0.692l-0.03,0.012
		C52.995,68.334,51.762,67.514,50.887,68.244z"/>
	<path d="M105.681,168.844c0.932-3.098,1.66-6.268,1.582-9.549c-0.65-1.254-1.443-0.439-2.2-0.152
		c-0.517,4.205-0.91,8.434-1.936,12.551c-0.346,1.379-0.361,2.727-0.262,4.092c0.123,1.719-0.559,3.889-1.742,4.998
		c-0.579,0.543-0.768,1.248-0.98,1.979c-0.508,1.742-1.082,3.465-1.612,5.139c-1.019,0.012-1.52-0.561-2.071-1.068
		c-1.635-1.512-2.136-1.416-3.24,0.408c-0.744,1.229-0.579,2.898-1.775,3.936c-1.015-0.639-1.446-1.557-2.04-2.342
		c-1.154-1.529-2.045-1.359-2.863,0.404c-0.51,1.104-0.062,2.473-1.142,3.84c-1.551-1.475-2.979-2.814-4.383-4.178
		c-0.512-0.5-0.803-1.393-1.74-1.113c-0.977,0.291-1.24,1.143-1.33,2.057c-0.133,1.338-0.222,2.695-1.358,3.734
		c-1.325-0.721-1.63-2.027-2.398-2.955c-0.55-0.666-1.018-1.598-2.083-0.887c-0.767,0.512-1.304,1.236-0.815,2.229
		c0.539,1.098,0.771,2.117-0.418,3.033c-0.305-0.189-0.68-0.318-0.897-0.578c-2.753-3.287-2.745-3.293-4.887,0.629
		c-0.103,0.188-0.294,0.324-0.492,0.539c-1.583-0.945-2.256-2.6-3.148-4.08c-0.567-0.938-1.034-2.246-2.339-2.02
		c-1.024,0.178-1.368,1.326-1.555,2.348c-0.041,0.223-0.192,0.426-0.301,0.656c-1.033-0.303-1.641-1.139-2.233-1.916
		c-3.278-4.295-7.225-7.887-11.267-11.455c-3.725-3.287-7.452-6.631-10.585-10.586c-1.823-2.301-3.848-4.555-6.435-6.133
		c0.144,1.088-1.021,1.215-1.407,1.916c0.006,0.008,0.01,0.018,0.016,0.027c1.624,0.152,1.526,2.121,2.859,2.676
		c2.277,0.947,3.716,2.836,5.084,4.82c0.695,1.01,1.579,2.105,2.642,2.607c2.776,1.316,3.597,4.842,6.715,5.699
		c0.269,0.074,0.576,0.582,0.591,0.9c0.084,1.959,1.622,2.699,2.967,3.537c0.984,0.615,1.654,1.451,2.402,2.297
		c2.799,3.17,5.139,6.738,8.317,9.582c0.635,0.568,1.287,1.596,2.15,0.723c1.685-1.701,2.369-0.67,3.396,0.75
		c1.649,2.281,2.568,2.135,4.021-0.348c0.23-0.393,0.156-0.998,0.912-1.049c0.236,0.178,0.585,0.35,0.808,0.625
		c1.888,2.318,2.63,2.299,4.218-0.15c0.287-0.443,0.024-1.309,0.868-1.291c0.709,0.352,0.854,0.986,1.162,1.52
		c1.039,1.787,2.5,1.857,3.521,0.113c0.364-0.623,0.429-1.422,0.646-2.133c0.275-0.9,0.346-1.926,1.303-2.473
		c1.302,0.695,2.255,1.684,3.195,2.674c0.897,0.943,1.83,1.715,3.26,1.375c1.726-0.41,1.176-1.959,1.566-3.045
		c0.063-0.174,0.346-0.266,0.527-0.395c3.179,2.758,4.422,2.416,5.38-1.477c0.48-1.949,0.879-2.146,2.911-1.441
		c3.285,1.139,4.114,0.613,4.397-2.896c0.102-1.25,0.315-2.459,0.619-3.678c0.299-1.203,0.811-1.826,2.079-2.268
		c2.98-1.043,3.029-1.199,1.975-4.322C104.874,174.447,104.816,171.713,105.681,168.844z"/>
	<path fill="#753D24" d="M110.88,111.811c0.155-0.832,0.292-1.609-0.069-2.291c-1.076-2.027-1.036-4.348-1.736-6.438
		c-1.589-4.732-1.572-9.802-3.274-14.493c-0.203-0.56-0.156-1.227-0.149-1.843c0.009-0.837,0.475-1.415,1.262-1.632
		c0.671-0.186,1.196,0.213,1.627,0.685c1.159,1.264,1.417,2.882,1.585,4.479c0.756,7.152,1.457,14.311,2.175,21.467
		c0.082,0.816-0.034,1.611-1.094,1.432C110.167,113,110.852,112.246,110.88,111.811z"/>
	<path d="M91.481,27.798c-1.119,0.983-2.193,2.042-3.786,2.217C88.462,28.43,89.644,27.553,91.481,27.798z"/>
	<path fill="#FCFEFD" d="M51.262,73.367c4.094,0.188,7.485,2.16,9.746,6.048c3.851,6.625,5.496,13.946,5.989,21.433
		c0.298,4.523-1.958,8.67-4.012,12.684c-1.272,2.488-2.974,4.525-5.408,6.02c-2.706,1.662-5.486,2.086-8.1,0.309
		c-3.871-2.633-8.387-4.424-11.16-8.586c-0.719-1.076-1.368-2.117-1.521-3.307c-0.91-7.069-1.741-14.185-0.718-21.283
		C37.376,77.683,41.854,74.027,51.262,73.367z"/>
	<path fill="#FCFDFE" d="M99.126,110.377c-0.066,4.299-0.132,7.713-2.083,10.906c-1.621,2.654-3.993,3.959-6.73,4.006
		c-5.988,0.104-9.735-2.145-12.588-7.572c-0.533-1.016-1.121-1.932-1.857-2.764c-1.595-1.797-2.811-3.791-3.527-6.092
		c-1.815-5.834-3.372-11.728-3.931-17.833c-0.183-1.997,0.083-3.874,1.079-5.759c1.385-2.621,1.552-5.726,3.179-8.341
		c1.192-1.918,2.531-2.747,4.82-2.708c4.543,0.078,7.895,1.851,11.004,5.276c4.686,5.164,6.037,11.621,8.124,17.815
		C98.12,101.783,99.774,106.293,99.126,110.377z"/>
	<path d="M47.148,94.575c2.11-2.446,4.371-3.648,7.354-2.994c0.852,0.187,1.336,0.636,1.15,1.542
		c-0.194,0.957-1.309,2.022,0.672,2.533c0.687,0.178,0.303,1.114-0.125,1.555c-1.206,1.24-2.384,2.536-3.74,3.596
		c-1.88,1.471-3.152,0.877-3.576-1.499c-0.043-0.242-0.106-0.519-0.033-0.735C49.47,96.758,49.137,95.294,47.148,94.575z"/>
	<path d="M84.678,97.161c1.368-0.321,0.971-2.38,2.899-2.389c0.496,2.743-0.146,5.563,0.128,8.327
		c0.021,0.205-0.251,0.637-0.304,0.623c-1.796-0.441-3.204,1.598-4.883,0.922c-1.429-0.574-2.749-1.402-2.716-3.491
		c0.018-1.14,0.295-2.803-1.499-3.457c-0.567-0.207-0.102-0.886,0.223-1.238c0.423-0.456,0.905-0.857,1.375-1.269
		c2.617-2.299,2.87-2.225,4.168,1.119C84.193,96.628,84.477,96.886,84.678,97.161z"/>
</g>
</svg>
