<?xml version="1.0" encoding="utf-8"?>
<!-- Generator: Adobe Illustrator 16.0.0, SVG Export Plug-In . SVG Version: 6.00 Build 0)  -->
<svg version="1.2" baseProfile="tiny" id="Layer_1" xmlns="http://www.w3.org/2000/svg" xmlns:xlink="http://www.w3.org/1999/xlink"
	 x="0px" y="0px" width="200px" height="300px" viewBox="0 0 200 300" xml:space="preserve">
<path d="M178.422,44.411c-1.701,1.097-3.445,2.112-5.385,2.773c-11.814,4.024-23.26,8.938-34.77,13.749
	c-14.414,6.023-27.051,13.802-37.769,25.525c-12.654,13.837-22.269,28.827-26.394,47.263c-2.767,12.377-3.865,24.257,1.344,36.58
	c4.369,10.336,12.459,18.134,17.068,28.181c0.983,2.146,3.133,3.966,6.093,3.495c1.899-0.528,2.437-2.077,2.814-3.75
	c-3.184-3.845-6.235-7.763-8.304-12.379c-0.752-1.684-1.853-3.291-3.098-4.654c-5.515-6.041-7.445-13.825-10.395-21.1
	c-1.021-2.516-1.191-5.331-0.975-8.013c1.352-16.671,6.298-32.123,15.708-46.085c4.442-6.59,9.846-12.293,15.2-18.121
	c6.445-7.018,13.738-12.583,22.377-16.508c5.867-2.666,11.496-5.939,17.529-8.122c8.951-3.238,17.402-8.114,27.148-8.936
	c1.357-0.114,2.324-0.819,3.26-1.6C179.26,49.969,178.795,47.199,178.422,44.411z"/>
<path d="M81.15-0.674c-0.944,3.268-1.878,6.54-2.767,9.821c-2.79,10.298-6.282,20.112-13.363,28.496
	c-5.621,6.656-10.441,13.99-15.638,21.007c-3.244,4.38-5.394,9.287-7.483,14.297c-5.228,12.543-5.47,25.922-7.085,39.083
	c2.572,4.057,4.243,0.789,5.581-0.951c1.381-1.796,1.133-4.292,1.471-6.515c0.4-2.676,0.902-5.324,1.179-8.022
	c1.601-15.62,6.157-30.075,16.626-42.247c2.841-3.304,5.498-6.807,7.972-10.388c4.704-6.814,10.831-12.822,13.298-20.966
	c2.181-7.204,4.471-14.364,6.812-21.512C85.555,0.73,83.354,0.031,81.15-0.674z"/>
<path d="M97.427,199.482c0.426-1.16,1.204-1.975,2.37-2.406c12.406,12.396,26.246,22.925,41.193,32.085
	c5.645,3.46,11.262,7.065,15.357,12.547c8.588,11.497,6.578,24.544-5.176,32.81c-2.182,1.143-4.238,3.346-6.855,0.813
	c-1.082-2.855,0.838-4.428,2.82-5.485c8.607-4.598,6.92-18.446,1.232-26.205c-1.004-1.37-2.268-1.933-3.691-0.778
	c-2.516,2.033-5.439,1.636-8.326,1.685c-7.936,0.127-15.055,3.653-22.264,6.171c-14.179,4.955-27.48,12.482-43.022,13.103
	c-6.646,0.265-13.084,2.005-19.305,4.449c-10.916,1.162-21.875,1.795-32.753,3.25c-1.659,0.223-3.339,0.268-4.555,1.653
	c-1.944,1.246-3.892,4.091-5.83-0.008c0.693-4.029,3.889-5.031,7.173-5.853c9.24-2.313,18.546-4.161,28.04-5.234
	c12.948-1.463,25.62-4.767,38.633-5.972c5.603-0.519,10.815-2.804,15.804-5.354c3.729-1.904,3.676-2.635,0.39-6.257
	c-1.572-1.304-4.219-2.212-1.848-4.982c0.333-0.244,0.73-0.611,1.082-0.547c11.781,2.149,20.597-6.393,32.525-8.264
	c-11.234-7.689-20.771-15.449-29.888-23.714C98.356,205.015,94.991,203.414,97.427,199.482z"/>
<path d="M8.623,273.164c1.828,0.067,2.473-1.856,3.962-2.357c2.411,2.124,0.926,4.615,0.632,6.975
	c-0.522,4.194-0.693,8.284,2.755,11.507c0.647,0.461,1.331,0.87,2.064,1.184c0.77,0.254,1.556,0.442,2.345,0.636
	c9.118,3.101,9.206,3.065,11.921-6.054c1.22-4.095,4.482-6.825,6.905-10.078c1.296-1.737,3.861-1.541,5.64-0.097
	c1.698,1.379,1.474,3.259,0.462,5.063c-1.522,2.706-3.241,5.376-2.563,8.707c0.253,1.244,0.888,2.344,2.215,2.764
	c0.876,0.281,2.061-0.067,2.021-0.817c-0.359-7.008,6.152-9.762,8.979-14.773c3.872-1.517,6.758-5.688,11.689-4.322
	c0.913,0.428,1.658,1.035,2.112,1.956c0.923,2.673-0.426,4.459-2.55,5.667c-6.34,3.612-10.521,8.084-7.283,16.045
	c0.373,0.918,0.023,2.055-0.691,2.92c-1.069,0.863-2.23,0.868-3.443,0.374c-6.242,2.211-12.657-0.431-18.98,0.638
	c-1.315,0.223-2.797-0.233-4.14,0.523c-1.793,1.006-3.694,0.663-5.463,0.066c-4.477-1.505-8.779-3.405-13.386-4.67
	c-5.042-1.386-8.921-10.077-7.839-15.589C6.433,277.169,7.106,274.983,8.623,273.164z"/>
<path d="M34.814,112.031c2.078,0.483,2.326-0.926,2.434-2.401c0.162-2.177,0.068-4.403,1.457-6.295
	c4.754,3.154,2.599,7.753,2.447,11.897c-0.791,21.496,0.176,42.817,7.175,63.39c3.556,10.453,8.601,20.249,14.75,29.454
	c-0.214,2.063-0.167,4.348-3.299,4.008c-2.293-1.123-4.059-2.739-5.396-4.978c-5.982-10.014-10.973-20.45-14.519-31.602
	c-1.913-6.016-2.241-12.222-3.089-18.37c-1.702-12.326-3.468-24.655-3.077-37.159C33.783,117.286,33.568,114.553,34.814,112.031z"/>
<path d="M55.796,298.461c0.951-0.466,1.905-0.928,2.857-1.395c0.676-2.477,2.907-2.588,4.836-3.311
	c24.203-9.07,49.665-13.396,74.577-19.781c2.281-0.585,4.85-1.893,6.873,0.744c2.121,1.299,4.158,0.027,6.229-0.201
	c-3.965,3.768-9.307,4.343-14.152,6.014c-10.826,3.736-22.082,5.588-33.332,7.529c-7.783,1.343-15.3,3.716-22.625,6.789
	c-4.385,1.839-9.032,3.123-13.654,4.291C63.544,300.117,59.577,300.179,55.796,298.461z"/>
<path d="M59.778,212.083c0.489-0.873,0.98-1.745,1.47-2.618c2.517-1.729,4.362-0.188,5.965,1.436
	c8.706,8.809,17.657,17.309,28.104,24.089c1.941,1.262,3.674,2.878,2.309,5.622c-0.799,1.603,0.504,2.64,1.038,3.884
	c-9.718-5.232-18.897-11.275-26.812-18.996C67.553,221.309,63.784,216.571,59.778,212.083z"/>
<path fill="#753D24" d="M88.08,103.504c4.891-6.746,10.321-12.962,15.913-19.133c4.699-5.186,9.924-9.757,15.758-13.074
	c10.818-6.156,22.438-10.851,33.99-15.544c7.824-3.179,15.898-5.558,23.504-9.319c-1.332-8.053-1.668-16.289-1.746-24.548
	c-25.514,0.807-54.211-9.936-75.642-16.632c-5.02-1.569-10.061-3.172-15.118-4.782c-1.84,5.295-3.748,10.573-5.126,15.989
	c-1.856,7.292-5.206,13.466-9.82,19.234C64.729,42.025,59.969,48.6,55.029,55.03c-8.32,10.828-12.866,23.152-14.653,36.593
	c-0.52,3.909-0.339,7.918-1.672,11.71c0.299,8.104-1.563,16.083-1.228,24.218c0.359,8.691,0.828,17.383,1.964,25.984
	c1.134,8.591,1.748,17.358,5.5,25.421c1.399,3.007,2.727,6.057,3.885,9.163c2.924,7.834,6.776,15.104,12.422,21.345
	c0.978,0.771,2.102,1.412,2.912,2.33c9.295,10.51,19.863,19.52,31.672,27.092c0.684,0.44,1.197,1.146,1.792,1.728
	c2.451,1.487,5.473,1.531,7.801,3.584c2.998,2.643,3.406,2.509,4.879-1.373c1.236-3.255,2.816-4.978,6.438-3.457
	c1.273,0.534,2.068-0.146,3.193-0.947c4.477-3.188,9.145-6.247,15.129-4.041c1.127,0.417,2.029,0.156,2.545-1.01
	c0.494-1.119,0.191-1.994-0.826-2.655c-1.74-1.133-3.453-2.303-5.209-3.403c-12.537-7.862-23.883-17.181-34.146-27.83
	c-3.107-2.254-5.308-5.188-6.954-8.656c-1.968-4.145-4.483-7.968-7.432-11.515c-5.185-6.244-7.425-13.842-9.429-21.479
	c-1.451-5.532-0.939-11.105,0.304-16.667C76.872,127.94,79.895,114.792,88.08,103.504z"/>
<path fill="#FFAA81" d="M144.939,274.719c-9.342,3.467-18.912,6.094-28.709,7.911c-13.234,2.454-26.373,5.103-38.916,10.378
	c-5.825,2.449-12.079,4.385-18.661,4.058c-0.398-0.713-0.755-1.457-1.2-2.142c-4.216-6.49-3.689-10.123,2.44-14.627
	c2.839-2.087,5.945-3.811,8.931-5.698c0.53-1.475-0.116-1.92-1.505-1.717c-3.341,1.776-6.681,3.551-10.021,5.323
	c-3.943,2.764-7.189,3.076-10.386-1.539c-1.723-2.484-5.042-2.561-7.522-0.313c-6.856,6.214-8.549,5.932-12.597-2.444
	c-1.171-3.79,0.271-5.487,4.135-6.41c7.11-1.693,14.531-0.918,21.545-3.063c7.553-2.454,15.338-3.876,23.221-4.397
	c7.419-0.488,14.276-2.625,20.925-5.7c3.747-1.731,7.204-4.188,11.598-4.179c0.758,0.002,1.738-0.422,2.236-0.984
	c2.99-3.359,6.279-4.619,10.902-3.258c2.773,0.818,3.197-1.834,3.039-4.106c-0.207-3.021,1.523-3.372,3.426-1.963
	c2.742,2.034,5.207,3.432,8.277,0.723c0.307-0.273,1.164,0.056,1.762,0.14c5.834,0.817,6.02,0.626,4.742-4.978
	c7.098,2.325,14.041,11.428,13.633,19.217C155.633,266.475,158.563,266.673,144.939,274.719z"/>
<path fill="#FFAA81" d="M52.473,264.438c-3.738,1.862-7.772,2.341-11.868,2.567c-2.033,0.111-4.097,0.137-6.087,0.516
	c-4.778,0.909-5.196,1.509-5.753,6.949c-0.098,0.271-0.196,0.542-0.294,0.812c-3.125,4.869-10.2,6.629-10.718,13.565
	c-0.756,1.22-1.353,2.579-2.973,2.905c-5.2-5.031-7.207-10.701-3.583-17.549c0.569-1.076,0.931-2.262,1.388-3.396
	C25.674,267.389,38.958,265.188,52.473,264.438z"/>
<path fill="#FFAA81" d="M28.764,274.47c5.022,4.286,5.022,4.289,10.443,0.794c3.295-2.124,8.377-1.926,11.195,0.864
	c2.053,2.035,4.399,2.063,6.896,2.078c-1.084,1.249-2.097,2.569-3.267,3.734c-2.525,2.511-3.819,5.275-2.796,8.951
	c0.488,1.748,0.869,3.849-1.077,5.084c-2.155,1.369-4.332,0.841-6.435-0.404c-4.885-2.895-6.269-6.936-3.854-12.081
	c1.133-2.412,2.613-4.663,3.927-6.973c-1.394-1.281-2.513-0.697-3.284,0.361c-2.671,3.662-5.275,7.206-5.58,12.172
	c-0.473,7.704-4.338,9.808-11.254,6.763c-1.702-0.751-3.445-1.447-4.711-2.912c-3.271-4.48-0.605-7.948,2.268-10.989
	c2.375-2.516,4.891-4.932,7.387-7.348L28.764,274.47z"/>
<path d="M28.624,274.564c0.073,2.559-1.541,4.32-3.304,5.621c-4.353,3.21-6.079,7.559-6.35,12.716
	c-0.854,0.747-1.771,0.96-2.793,0.342c-0.945-1.754-0.815-3.526-0.092-5.312C17.452,280.839,22.862,277.537,28.624,274.564z"/>
<path d="M67.321,272.882c1.006-0.48,2.178-1.264,2.844,0.226c0.361,0.806-0.604,1.232-1.339,1.492
	C68.324,274.027,67.823,273.454,67.321,272.882z"/>
<path fill="#9C9C9C" d="M36.002,121.65c0.014,0.496-0.256,0.817-0.576,0.608c-0.224-0.147-0.271-0.628-0.317-0.969
	c-0.066-0.496,0.23-0.817,0.567-0.603C35.899,120.829,35.902,121.317,36.002,121.65z"/>
<path fill="#FFAA81" d="M18.315,275.93c-0.796-0.033-1.371-0.379-1.38-1.051c-0.024-1.943,1.145-3.012,2.93-3.378
	c0.898-0.183,1.798,0.314,1.694,1.271C21.356,274.668,19.863,275.441,18.315,275.93z"/>
</svg>
