<?xml version="1.0" encoding="utf-8"?>
<!-- Generator: Adobe Illustrator 16.0.0, SVG Export Plug-In . SVG Version: 6.00 Build 0)  -->
<svg version="1.2" baseProfile="tiny" id="Layer_1" xmlns="http://www.w3.org/2000/svg" xmlns:xlink="http://www.w3.org/1999/xlink"
	 x="0px" y="0px" width="100px" height="100px" viewBox="0 0 100 100" overflow="scroll" xml:space="preserve">
<path d="M59.787,22.824c4.506,1.334,9.015,2.671,13.524,3.998c7.441,2.184,11.664,8.582,15.083,15.445
	c2.607,5.232,0.507,10.342-3.077,14.188C78.505,63.76,71.44,69.137,60.754,68.408c-11.393-0.777-22.024-2.625-32.111-8.723
	c-3.492-2.111-6.006-4.416-6.381-8.983c1.447-2.197,3.29-1.17,5.052-0.774c4.734,2.099,9.179,6.828,14.68,2.027
	c0.729-0.238,1.474-0.324,2.231-0.303c2.962-0.221,4.247,3.387,6.897,4.244c0.602-3.297-2.162-3.795-2.981-5.666
	c-0.883-2.213-3.354-3.489-3.104-6.391c6.237-4.503,4.337-12.878,7.186-19.007C54.247,21.792,57.398,24.108,59.787,22.824z"/>
<path d="M46.187,43.121c1.486,1.327,2.971,2.649,4.458,3.973c1.333,6.178-4.393,4.35-6.248,6.911
	c-0.499-0.018-0.996-0.029-1.493-0.035c-5.711-0.381-11.019-5.108-17.054-1.979c-1.504,0.648-2.441-0.68-3.586-1.288
	c-0.001,0,0.085-0.063,0.085-0.063c-0.916-3.627-0.979-7.247,0.043-10.868C27.937,23.404,38.271,17.6,55.341,21.324
	c1.513,0.327,2.966,0.993,4.446,1.498c-2.135,1.163-4.264,2.326-6.396,3.489c-2.393,2.33-3.712,5.231-3.758,8.816
	C49.592,38.391,48.609,41.143,46.187,43.121z"/>
<path d="M11.687,68.344c-5.683-6.619-7.082-14.049-5.844-21.855c0.936-5.9,3.077-11.583,4.888-17.277
	c0.498-1.569,1.643-2.927,2.653-4.225c1.17-1.501,2.636-3.542,4.501-1.967c2.338,1.981,0.716,4.292-0.688,5.911
	c-3.03,3.5-4.006,7.935-5.268,12.354c-2.028,7.1-2.543,14.106-0.339,21.262C12.065,64.09,12.555,65.766,11.687,68.344z"/>
<path d="M22.393,39.77c-0.014,3.624-0.027,7.248-0.043,10.869C20.296,47.007,20.793,43.387,22.393,39.77z"/>
<path fill="#F4F4F4" d="M25.85,51.99c1.545-6.665,6.395-4.275,10.207-4.62c4.208-0.384,6.01,2.518,6.846,6.598
	c-0.045,2.26,1.348,4.422,0.074,7.523C36.684,59.766,30.363,58.143,25.85,51.99z"/>
<path fill="#F4F4F4" d="M44.396,54.004c-0.175-4.862,3.347-5.534,6.249-6.911c2.896,0.149,4.912,1.657,5.485,4.922
	c0.585,3.328,2.059,6.607,1.296,10.051c-0.438,1.984-2.363,2.033-3.873,1.861c-2.67-0.301-5.859,0.51-7.117-3.484
	C45.76,58.297,45.077,56.152,44.396,54.004z"/>
<path fill="#F7F7F7" d="M76.732,43.587c-2.509-0.125-5.04,0.416-6.191-1.775c-1.537-2.927-3.645-6.764-1.908-9.702
	c2.004-3.39,5.097-0.306,7.611,0.778c0.947,0.409,1.862,1.06,2.637,1.803c1.743,1.679,4.192,3.372,3.436,6.267
	C81.489,44.127,78.428,43.007,76.732,43.587z"/>
<path fill="#F8F8F8" d="M46.187,43.121c-0.194-2.846-0.369-5.69-0.584-8.532c-0.664-8.738-0.484-8.938,7.79-8.279
	c0.254,2.241,0.477,4.484,0.773,6.718C55.401,42.338,54.785,43.127,46.187,43.121z"/>
<path fill="#EDEDED" d="M65.313,63.779c-3.091-0.076-4.123-2.441-4.739-4.947c-0.746-3.029-1.414-6.152-0.997-9.338
	c0.224-1.718,1.577-2.105,2.896-2.236c3.333-0.339,7.622,5.686,6.844,9.577c-0.195,0.979-0.822,1.49-1.633,1.408
	C62.848,57.752,65.384,61.547,65.313,63.779z"/>
<path fill="#F3F3F3" d="M66.28,39.401c0.164,1.821-0.16,2.962-1.253,3.364c-1.837,0.676-3.715,0.509-4.852-1.444
	c-2.019-3.456-2.924-7.368-2.943-11.483c-0.006-1.174,0.566-2.23,1.759-2.511c1.065-0.252,2.077-0.021,2.845,0.864
	C64.667,31.47,65.298,35.819,66.28,39.401z"/>
<path fill="#F2F2F2" d="M77.009,47.314c2.237,0,3.275-0.064,4.303,0.021c0.792,0.064,1.728,0.452,1.701,1.426
	c-0.115,4.201-3.505,5.394-5.866,7.333c-2.385,1.961-4.367,0.615-5.69-2.098c-1.881-3.851-0.985-5.939,2.88-6.516
	C75.616,47.292,76.92,47.318,77.009,47.314z"/>
<path fill="#FAFAFA" d="M42.12,34.564c0,2.052-0.037,3.208,0.007,4.364c0.151,4.019-1.297,6.035-5.095,5.206
	c-0.503-0.106-1.032-0.071-1.538-0.178c-2.457-0.516-5.939,0.747-7.101-2.063c-1.496-3.61,1.952-6.089,3.45-8.948
	c0.373-0.715,1.05-1.294,1.693-1.753c2.294-1.632,4.237-5.32,7.258-3.699C43.599,29.005,41.647,32.764,42.12,34.564z"/>
</svg>
