<?xml version="1.0" encoding="utf-8"?>
<!-- Generator: Adobe Illustrator 16.0.0, SVG Export Plug-In . SVG Version: 6.00 Build 0)  -->
<svg version="1.2" baseProfile="tiny" id="Layer_1" xmlns="http://www.w3.org/2000/svg" xmlns:xlink="http://www.w3.org/1999/xlink"
	 x="0px" y="0px" width="100px" height="100px" viewBox="0 0 100 100" overflow="scroll" xml:space="preserve">
<path d="M55.863,83.145c-6.327,0.532-11.655-1.75-14.561-8.105c-3.251-7.113-4.466-15.487,0.725-20.991
	c4.118-4.365,10.669-7.728,17.209-9.229c5.039-1.154,10.311-1.549,15.146,0.665c6.309,2.889,10.115,13.055,7.84,19.849
	C78.637,76.016,68.367,83.07,55.863,83.145z"/>
<path fill="#754C24" stroke="#000000" stroke-miterlimit="10" d="M45.349,42.561c-6.306-2.865-13.311-14.149-12.873-19.88
	c0.078-1.008,0.509-2.006,1.515-2.097c0.83-0.07,1.783,0.359,2.551,0.797c0.505,0.286,0.907,0.929,1.131,1.496
	C40.189,29.255,42.66,35.645,45.349,42.561z"/>
<path fill="#754C24" stroke="#000000" stroke-miterlimit="10" d="M63.951,38.341c-9.317-0.15-12.228-3.378-14.523-15.94
	C54.341,29.104,58.045,34.723,63.951,38.341z"/>
<path fill="#3A3A3A" d="M30.844,59.209c-2.797-5.76-5.598-11.521-8.397-17.283c0.604-0.311,1.209-0.623,1.816-0.929
	c3.613,5.252,6.293,11.013,8.462,17.05C32.1,58.437,31.473,58.823,30.844,59.209z"/>
<path fill="#ED1C24" d="M76.457,61.913c-1.281,9.354-6.748,12.277-12.896,14.501c-3.074,1.109-6.305,1.136-9.523,0.964
	c-6.831-0.355-9.401-2.156-10.776-7.443c-1.645-6.315-0.446-9.247,4.688-13.111c5.78-4.35,11.758-7.829,19.389-6.954
	c2.25,0.256,4.475,0.501,6.402,1.808c1.109,0.745,1.967,1.829,1.852,3.162c-0.123,1.401-1.293,2.249-2.588,2.498
	c-5.064,0.973-10.25,1.864-14.424,5.014c-2.215,1.666-7.765,1.933-5.764,5.942c2.67,5.352,5.643-0.269,8.459-1.195
	C65.809,65.611,70.309,64.022,76.457,61.913z"/>
<g>
	<path d="M54.303,77.561c0.027-3.404,0.226-7.463,2.518-10.199c1.759-2.103-1.256-5.15-3.031-3.028
		c-3.098,3.702-3.735,8.544-3.77,13.228C49.999,80.324,54.284,80.321,54.303,77.561L54.303,77.561z"/>
</g>
<g>
	<path d="M69.586,56.772c0.857-0.286,1.713-0.571,2.57-0.856c1.107-0.37,1.818-1.465,1.498-2.637
		c-0.297-1.08-1.529-1.864-2.637-1.496c-0.857,0.286-1.715,0.571-2.57,0.857c-1.107,0.368-1.818,1.465-1.496,2.636
		C67.248,56.356,68.477,57.142,69.586,56.772L69.586,56.772z"/>
</g>
<g>
	<path d="M72.158,55.991c2.764,0,2.764-4.285,0-4.285S69.395,55.991,72.158,55.991L72.158,55.991z"/>
</g>
<g>
	<path d="M76.729,53.135c-4.031,0.474-7.977-0.498-11.996-0.571c0.189,1.403,0.379,2.806,0.568,4.209
		c3.76-0.896,7.33-2.226,10.797-3.93c1.918-0.943,0.996-4.081-1.082-3.992c-5.301,0.226-9.385,3.86-12.42,7.917
		c-1.1,1.468,0.73,3.808,2.42,3.147c3.875-1.514,7.793-2.689,10.422-6.127c1.145-1.497-0.746-3.731-2.42-3.147
		c-3.973,1.389-8.744-0.233-11.279,4.128c-0.543,0.936-0.293,2.439,0.77,2.931c3.207,1.484,6.764,1.771,9.998,3.143
		c0.551-1.306,1.102-2.611,1.65-3.916c-3.188-0.859-6.449-1.601-9.486-2.927c0.33,0.808,0.656,1.613,0.986,2.419
		c0.369-1.691,2.488-2.359,3.898-2.996c1.783-0.805,3.52-1.572,4.977-2.914c1.117-1.03,0.637-3.298-0.945-3.581
		c-5.605-1-11.744-0.506-17.063,1.546c-3.295,1.271-10.059,5.562-7.989,10.06c1.524,3.313,7.003,1.004,9.318,0.136
		c2.009-0.755,3.977-1.622,5.936-2.495c1.215-0.542,2.4-1.143,3.227-1.4c1.947-0.607,2.146-3.625,0-4.133
		c-3.732-0.88-7.407-1.976-11.141-2.855c-2.337-0.552-3.8,2.673-1.65,3.915c3.394,1.962,7.369,1.553,10.855,3.143
		c0.361-1.33,0.721-2.661,1.08-3.993c-6.417,0.776-12.937,0.222-19.137,2.363c-1.921,0.663-2.162,3.576,0,4.131
		c5.252,1.347,10.778,0.588,15.999,2c-0.172-1.305-0.342-2.609-0.512-3.915c-3.848,2.083-8.551,1.98-12.57,3.714
		c-1.889,0.814-1.002,3.351,0.511,3.915c4.27,1.592,9.057,0.674,13.422,0c2.451-0.378,1.771-4.186-0.568-4.208
		c-5.754-0.058-11.73-1.57-17.425-0.209c-2.219,0.53-1.857,3.439,0,4.133c4.055,1.509,7.857-1.189,11.078-3.359
		c1.592-1.07,1.268-3.277-0.512-3.916c-3.384-1.216-6.632-0.872-9.481,1.344c-2.801,2.178-3.732,6.231-3.799,9.578
		c-0.048,2.397,3.677,2.948,4.208,0.569c0.691-3.094,1.945-5.979,2.361-9.141c0.171-1.297-1.515-2.554-2.712-2.063
		c-2.927,1.194-3.839,5.241-4.514,8.005c-0.724,2.965-1.731,7.438,1.12,9.575c6.116,4.581,9.812-8.036,10.886-11.803
		c0.54-1.892-1.523-3.25-3.146-2.42c-3.014,1.543-4.897,5.586-6.041,8.568c-1.3,3.389-1.251,7.848,2.723,9.255
		c3.371,1.195,5.162-3.176,5.944-5.553c0.571-1.736,0.969-3.528,1.414-5.299c0.214-0.849,0.438-1.692,0.702-2.527
		c0.098-0.314,0.586-1.262,0.424-1.078c1.826-2.061-1.193-5.103-3.029-3.03c-1.492,1.684-1.903,4.188-2.43,6.303
		c-0.529,2.121-0.867,5.132-2.234,6.899c-0.354,0.456-0.237,0.035,0.348,0.153c-0.025-0.005-0.229-0.185-0.309-0.429
		c-0.362-1.102,0.218-2.532,0.579-3.557c0.68-1.935,2.152-5.022,4.07-6.005c-1.048-0.808-2.097-1.614-3.146-2.42
		c-0.491,1.722-1.038,3.421-1.689,5.09c-0.403,1.033-1.822,4.396-2.713,4.414c0.586-0.011-0.003-0.225,0.101-0.049
		c0.041,0.073-0.013-0.686-0.015-0.882c-0.013-1.221,0.219-2.43,0.471-3.617c0.279-1.314,0.669-2.605,1.133-3.865
		c0.151-0.412,0.342-0.801,0.543-1.189c0.289-0.557,0.745-0.734-0.053-0.407c-0.903-0.69-1.807-1.379-2.711-2.067
		c-0.361,2.742-1.607,5.309-2.209,8.001c1.403,0.19,2.805,0.379,4.208,0.569c0.041-2.094,0.464-4.257,1.862-5.894
		c1.595-1.865,3.891-1.652,5.995-0.896c-0.17-1.305-0.34-2.609-0.51-3.915c-2.182,1.468-4.993,3.963-7.777,2.926
		c0,1.377,0,2.754,0,4.132c5.233-1.251,10.982,0.309,16.285,0.363c-0.189-1.403-0.379-2.806-0.568-4.209
		c-3.631,0.561-7.604,1.32-11.146,0c0.171,1.306,0.342,2.61,0.512,3.916c4.051-1.746,8.633-1.58,12.57-3.713
		c1.646-0.895,1.24-3.443-0.512-3.917c-5.238-1.417-10.756-0.656-15.998-2c0,1.377,0,2.755,0,4.132
		c5.835-2.015,11.957-1.478,17.998-2.209c1.846-0.223,3.26-3,1.082-3.992c-3.457-1.577-7.577-1.246-10.855-3.142
		c-0.551,1.305-1.1,2.61-1.65,3.916c3.732,0.881,7.408,1.976,11.141,2.857c0-1.379,0-2.756,0-4.133
		c-2.238,0.699-4.383,1.907-6.535,2.834c-2.345,1.009-5.52,2.52-7.849,2.439c0.267,0.01,0.987,0.86,0.984,1.087
		c-0.009,0.519,0.089-0.092,0.042,0.012c0.186-0.413,0.441-0.793,0.688-1.172c1.203-1.844,3.461-2.895,5.459-3.608
		c4.262-1.524,9.32-1.97,13.781-1.174c-0.314-1.193-0.631-2.387-0.947-3.58c-3.148,2.902-8.889,2.824-9.977,7.801
		c-0.188,0.857,0.086,2.028,0.986,2.42c3.396,1.482,6.939,2.395,10.508,3.357c2.279,0.614,3.938-2.947,1.654-3.915
		c-3.232-1.37-6.83-1.676-10-3.144c0.256,0.978,0.514,1.955,0.77,2.932c1.393-2.398,6.367-1.337,8.717-2.158
		c-0.807-1.049-1.611-2.098-2.42-3.146c-1.799,2.352-5.238,3.132-7.859,4.157c0.807,1.049,1.611,2.098,2.418,3.146
		c2.066-2.76,5.092-5.64,8.721-5.795c-0.359-1.329-0.723-2.661-1.08-3.99c-3.141,1.541-6.371,2.685-9.773,3.496
		c-2.402,0.573-1.809,4.166,0.57,4.209c4.02,0.074,7.965,1.045,11.996,0.571C79.439,57.102,79.471,52.813,76.729,53.135
		L76.729,53.135z"/>
</g>
</svg>
