<?xml version="1.0" encoding="utf-8"?>
<!-- Generator: Adobe Illustrator 16.0.0, SVG Export Plug-In . SVG Version: 6.00 Build 0)  -->
<!DOCTYPE svg PUBLIC "-//W3C//DTD SVG 1.1//EN" "http://www.w3.org/Graphics/SVG/1.1/DTD/svg11.dtd">
<svg version="1.1" id="Layer_1" xmlns="http://www.w3.org/2000/svg" xmlns:xlink="http://www.w3.org/1999/xlink" x="0px" y="0px"
	 width="100px" height="100px" viewBox="0 0 100 100" enable-background="new 0 0 100 100" xml:space="preserve">
<path d="M82.381,62.244c-13.869,6.49-28.047,8.885-42.893,3.424c-2.476-0.91-5.124-1.842-7.704-1.873
	c-3.899-0.051-4.93-2.48-5.654-5.41c-1.683-6.811,4.057-21.493,9.833-25.448c2.125-1.455,4.557-1.402,6.954-1.677
	c10.053-1.159,20.238-1.168,30.162-3.407c2.295-0.518,4.262,0.624,6.391,0.911c3.818,3.479,0.543,4.313-2.006,5.422
	c-9.641,2.042-19.485,2.996-29.252,3.706c-8.525,0.622-12.305,5.37-15.167,12.202c-1.306,3.122-0.135,5.598,2.517,6.573
	c9.938,3.66,20.021,6.906,30.846,3.986c1.73-0.285,3.441-0.645,5.066-1.344c2.129-0.211,4.229-0.566,6.285-1.166
	C80.926,57.678,82.785,58.686,82.381,62.244z"/>
<path d="M9.789,51.467c-0.042-9.62,3.97-17.512,8.822-25.073c0.828-1.293,2.019-3.417,3.866-1.867
	c1.44,1.207-0.377,2.485-1.162,3.588c-4.864,6.854-7.727,14.323-7.437,22.881c0.158,4.639,1.091,9.035,2.967,13.26
	c0.483,1.092,1.038,2.18,1.292,3.33c0.131,0.586-0.139,1.484-0.561,1.924c-0.769,0.801-1.738,0.523-2.552-0.137
	c-1.748-1.41-2.935-3.258-3.39-5.404C10.74,59.752,9.411,55.578,9.789,51.467z"/>
<path d="M82.381,62.244c-1.082-1.789-2.656-2.168-4.564-1.596c-3.225-2.354-9.125-1.332-9.385-7.432
	c0.553-1.416,1.771-2.207,2.896-3.083c5.11-3.054,6.877-7.271,4.346-12.874c-0.893-1.973-0.885-3.712,0.631-5.336
	c1.818-0.29,3.631-0.585,3.164-3.162c4.688,1.068,6.283,4.644,5.719,8.694c-1.09,7.84-1.15,15.737-2.066,23.573
	C83.07,61.455,82.637,61.84,82.381,62.244z"/>
<path d="M88.648,13.734c6.217,0.358,6.865,0.994,8.787,8.404C93.324,20.12,91.529,16.375,88.648,13.734z"/>
<path fill="#C1272D" d="M76.305,31.926c4.959,3.963,5.426,8.969,3.711,14.698c-1.66,5.56-1.512,5.603-7.773,5.39
	c-0.836,0.895-1.696,0.287-2.555,0.045c-1.848-0.664-3.793-0.479-5.699-0.646c-6.994-0.97-13.875,1.572-19.995,0.646
	c4.095-0.072,9.097,0.393,13.969-1.047c2.461,2.186,5.041,4.242,7.391,6.539c1.652,1.619,3.801,3.178,2.178,6.027
	c-10.047,2.25-19.97,3.258-29.242-2.791c-0.54-0.352-1.377-0.252-2.075-0.361c-6.875-1.078-7.992-2.639-6.434-9.52
	c0.582-2.565,1.497-5.067,2.427-7.534c2.17-5.756,6.051-8.69,12.553-8.791C55.313,34.422,65.639,31.103,76.305,31.926z"/>
<path fill="#C1272D" d="M69.166,53.607c2.572,2.73,7.342,2.76,8.65,7.043c-1.8,0.438-3.599,0.879-5.396,1.318
	C67.875,59.541,61.4,58.957,62.26,51.354C65.111,50.429,67.506,50.891,69.166,53.607z"/>
<path fill="#333333" d="M62.141,52.148c2.376,4.375,7.375,6.002,10.281,9.824c-1.629,0.535-3.26,1.07-4.889,1.604
	c-1.347-2.863-3.683-4.816-6.18-6.594c-1.729-1.23-3.572-2.322-3.986-4.66C58.9,50.672,60.494,50.703,62.141,52.148z"/>
<path fill="#333333" d="M61.416,52.795c-1.705,0.068-3.41,0.141-5.115,0.209c-0.994,0.328-1.971,0.854-2.979,0.941
	c-4.116,0.354-8.239,0.613-12.364,0.826c-3.859,0.201-7.079,3.127-11.798,3.842c1.723-5.787,5.549-6.828,9.068-7.129
	c8.732-0.746,17.393-2.731,26.206-2.176c1.728,1.717,4.318-0.454,5.943,1.717c0.62,0.535,1.243,1.068,1.862,1.604
	c-1.1,0.646-2.197,1.295-3.297,1.939C66.434,53.977,63.925,53.385,61.416,52.795z"/>
<path d="M70.504,50.699c-1.963-0.023-3.865-0.28-5.547-1.407C66.945,49.218,68.883,49.333,70.504,50.699z"/>
<g>
	<path fill="#1A1A1A" d="M81.566,53.504c-1.643-2.561-3.713-4.911-5.773-7.139c-2.143-2.314-4.346-4.6-7.67-4.711
		c-3.969-0.134-4.144,4.206-2.396,6.672c1.834,2.588,5.339,4.04,8.367,4.639c2.022,0.398,3.377-1.844,1.985-3.411
		c-3.483-3.928-9.914-5.125-14.842-5.795c-5.269-0.717-11.975-1.211-16.738,1.668c-1.545,0.934-1.192,3.201,0.487,3.729
		c6.985,2.197,14.521,0.801,21.491,2.992c0.18-1.336,0.361-2.672,0.541-4.008c-5.832,0.22-11.461-2.26-17.083-3.477
		c-5.973-1.292-11.843-1.004-16.73,2.986c-1.29,1.053-0.397,2.944,0.9,3.411c4.833,1.734,10.126,2.234,15.232,1.977
		c0-1.359,0-2.72,0-4.08c-4.049,0.31-7.737-1.167-11.714-1.511c-4.3-0.37-7.411,2.414-9.634,5.784
		c-1.208,1.832,1.084,3.637,2.792,2.793c3.201-1.582,5.458-4.512,8.705-5.986c-0.824-1.067-1.648-2.136-2.472-3.204
		c-2.133,1.676-3.824,3.782-5.713,5.713c1.137,0.301,2.273,0.6,3.411,0.9c-0.471-2.686-0.218-5.453-0.199-8.163
		c-1.336,0.182-2.672,0.361-4.007,0.542c0.454,1.353,0.014,2.365-0.836,3.455c1.068,0.825,2.137,1.648,3.205,2.474
		c1.842-3.825,4.616-7.184,5.646-11.37c-1.312-0.36-2.623-0.723-3.935-1.084c-0.188,0.912-1.556,2.403-2.243,3.32
		c1.243,0.524,2.486,1.049,3.729,1.572c0.407-2.286,1.742-4.18,3.058-6.042c-1.243-0.163-2.486-0.325-3.729-0.488
		c0.395,2.527-0.326,5.114-0.617,7.619c-0.191,1.642,1.844,2.403,3.07,1.763c3.473-1.817,6.451-4.549,8.621-7.806
		c0.733-1.1,0-2.673-1.219-2.997c-1.494-0.396-2.794-1.015-4.351-1.161c0.181,1.336,0.362,2.671,0.542,4.007
		c0.816-0.271,1.632-0.543,2.448-0.815c-0.861-0.656-1.722-1.312-2.583-1.968c-0.051,1.446-0.454,2.601-1.71,3.407
		c0.93,0.93,1.861,1.861,2.792,2.791c1.17-1.722,1.978-3.541,1.02-5.54c-0.857-1.787-3.539-2.232-5.231-2.625
		c0,1.312,0,2.623,0,3.935c2.865-1.159,5.653,0.061,8.615-0.305c2.993-0.369,5.644-2,8.723-1.741
		c5.062,0.426,10.179,3.951,14.978,0.479c-0.824-1.068-1.648-2.136-2.471-3.205c-1.166,0.916-3.275,1.01-4.681,1.103
		c-1.627,0.109-3.731,0.17-5.09-0.877c0,1.174,0,2.349,0,3.523c5.892-2.959,12.655,0.239,18.825-1.699
		c1.511-0.474,1.941-2.254,0.9-3.41c-1.574-1.75-3.9-2.205-6.066-1.341c0.525,1.243,1.05,2.486,1.574,3.729
		c0.459-0.291,0.039,0.008-0.145-0.086c0.365,0.187,0.627,0.604,0.855,0.942c0.787,1.163,1.297,2.496,1.74,3.818
		c0.647,1.925,1.659,5.188,1.079,6.896c1.337,0.182,2.673,0.361,4.009,0.543c0.104-2.221,0.953-4.271,0.815-6.528
		c-0.144-2.358-1.769-4.4-2.728-6.47c-0.782-1.686-3.264-1.073-3.729,0.487c-1.64,5.48-2.133,12.373,0.479,17.623
		c0.518,1.045,1.85,1.197,2.791,0.73c3.639-1.803,3.51-5.174,1.229-8.051c-1.928-2.434-5.422-3.994-7.026-6.438
		c-0.406,0.999-0.813,1.998-1.22,2.997c1.947-0.728,3.658-1.778,5.384-2.926c-0.998-0.406-1.998-0.813-2.998-1.219
		c0.948,4.142-1.074,8.682-2.447,12.517c1.137-0.3,2.272-0.602,3.41-0.9c-3.304-4.187-3.722-12.563-10.15-13.583
		c-0.18,1.336-0.36,2.671-0.541,4.007c3.719,0.285,7.418,0.783,11.152,0.815c0-1.359,0-2.72,0-4.08
		c-4.775,0.184-9.635-0.73-14.267,0.868c-3.194,1.102-7.519,4.42-5.801,8.238c1.208,2.686,5.726,2.658,8.114,2.59
		c2.871-0.082,6.373-0.409,8.9-1.909c1.91-1.133,0.859-3.552-1.029-3.802c-4.594-0.607-8.897-2.337-13.601-2.176
		c-1.915,0.065-2.934,2.847-1.03,3.802c3.188,1.599,7.363,1.407,10.822,1.094c2.377-0.215,2.674-3.131,0.543-4.007
		c-5.596-2.302-11.424,0.111-17.138-1.088c0.476,0.836,0.951,1.673,1.425,2.51c0.695-1.816,4.594-2.041,6.191-2.384
		c2.295-0.493,1.718-3.997-0.543-4.008c-3.719-0.018-7.432-0.255-11.152-0.272c-2.257-0.01-2.843,3.558-0.542,4.008
		c1.908,0.373,3.986,0.615,5.769,1.426c-0.242-0.931-0.486-1.861-0.73-2.792c-1.358,1.81-4.092,1.872-6.127,1.709
		c0,1.358,0,2.721,0,4.08c3.957,0.063,7.796,1.01,11.699,1.56c0.181-1.336,0.361-2.672,0.541-4.007
		c-5.711,0.234-11.743-1.396-17.078,1.365c-1.571,0.813-1.184,3.317,0.487,3.729c1.261,0.312,2.506,0.556,3.807,0.617
		c2.631,0.123,2.619-3.959,0-4.081c-0.938-0.044-1.814-0.247-2.722-0.471c0.162,1.242,0.324,2.486,0.487,3.729
		c4.453-2.307,10.23-0.613,15.021-0.811c2.191-0.09,2.912-3.672,0.541-4.008c-4.26-0.602-8.462-1.636-12.783-1.705
		c-2.662-0.043-2.587,3.875,0,4.08c3.717,0.295,7.348-0.658,9.65-3.729c0.621-0.828,0.203-2.367-0.73-2.792
		c-2.15-0.977-4.442-1.388-6.745-1.837c-0.18,1.335-0.361,2.671-0.542,4.007c3.721,0.018,7.434,0.254,11.152,0.271
		c-0.18-1.335-0.36-2.671-0.541-4.006c-3.557,0.764-7.587,1.428-9.042,5.233c-0.381,0.996,0.411,2.298,1.424,2.51
		c5.666,1.19,11.694-1.15,17.139,1.09c0.181-1.336,0.361-2.673,0.541-4.009c-2.61,0.237-6.336,0.681-8.764-0.538
		c-0.345,1.268-0.687,2.535-1.029,3.803c4.646-0.158,9.039,1.572,13.603,2.177c-0.344-1.269-0.688-2.534-1.029-3.802
		c-1.521,0.901-3.842,1.129-5.689,1.285c-1.516,0.129-4.695,0.353-5.692-0.455c-0.337-0.272,0.127,0.076,0.067,0.33
		c0.104-0.453,0.635-0.896,0.965-1.223c1.287-1.27,3.137-1.754,4.857-2.057c3.469-0.61,7.104,0.07,10.602-0.064
		c2.621-0.102,2.642-4.056,0-4.08c-3.733-0.034-7.434-0.533-11.151-0.816c-2.281-0.174-2.815,3.647-0.542,4.007
		c2.452,0.39,3.583,3.22,4.529,5.22c1.185,2.501,2.089,5.119,3.818,7.314c1.033,1.311,2.951,0.379,3.408-0.902
		c1.666-4.647,3.592-9.692,2.449-14.686c-0.283-1.241-1.924-1.933-2.996-1.219c-1.406,0.935-2.818,1.921-4.41,2.515
		c-1.166,0.436-1.996,1.814-1.219,2.997c1.354,2.061,3.617,3.472,5.453,5.062c0.9,0.781,1.828,1.61,2.488,2.608
		c0.213,0.32,0.303,0.502,0.303,0.795c0-0.313,0.262-0.438-0.123-0.047c-0.215,0.224-0.592,0.355-0.861,0.49
		c0.932,0.242,1.861,0.485,2.793,0.73c-2.098-4.217-1.365-10.129-0.066-14.479c-1.244,0.163-2.485,0.325-3.729,0.487
		c0.767,1.652,2.103,3.264,2.213,5.13c0.115,1.92-0.769,3.876-0.858,5.81c-0.111,2.404,3.295,2.638,4.008,0.543
		c1.445-4.248-2.9-20.372-9.525-16.177c-1.869,1.184-0.658,4.62,1.572,3.729c0.891-0.356,1.424-0.455,2.096,0.292
		c0.299-1.137,0.6-2.273,0.9-3.41c-3.188,1.001-6.437,0.547-9.705,0.321c-3.551-0.245-6.896,0.182-10.098,1.788
		c-1.521,0.764-1.104,2.671,0,3.524c1.922,1.482,4.844,1.53,7.149,1.435c2.644-0.109,5.449-0.634,7.563-2.298
		c1.816-1.428-0.6-4.558-2.473-3.205c-2.102,1.521-4.5,0.928-6.844,0.328c-2.57-0.66-5.093-1.502-7.779-1.395
		c-2.875,0.116-5.431,1.752-8.286,1.877c-3.002,0.13-5.484-0.848-8.431,0.344c-1.713,0.694-2.162,3.433,0,3.936
		c0.849,0.197,1.773,0.346,2.574,0.702c0.606,0.271,0.154,0.156,0.142-0.143c0.02,0.459-0.711,1.271-0.943,1.611
		c-1.154,1.697,1.107,3.875,2.792,2.792c2.503-1.609,3.628-3.996,3.731-6.931c0.045-1.281-1.345-2.38-2.583-1.967
		c-0.816,0.272-1.632,0.544-2.448,0.816c-2.26,0.753-1.73,3.795,0.542,4.007c1.123,0.105,2.181,0.729,3.266,1.016
		c-0.407-0.998-0.813-1.998-1.22-2.998c-1.79,2.686-4.303,4.848-7.157,6.339c1.023,0.589,2.047,1.177,3.07,1.764
		c0.345-2.964,0.939-5.714,0.471-8.704c-0.302-1.928-2.835-1.751-3.729-0.487c-1.509,2.134-3.004,4.399-3.47,7.016
		c-0.418,2.349,2.335,3.434,3.729,1.571c0.94-1.254,2.328-2.713,2.655-4.295c0.528-2.559-3.303-3.656-3.935-1.084
		c-0.939,3.813-3.553,6.901-5.235,10.394c-0.938,1.947,1.693,4.412,3.205,2.472c1.728-2.215,2.829-4.616,1.885-7.425
		c-0.722-2.149-3.992-1.827-4.008,0.542c-0.021,3.104-0.194,6.17,0.345,9.247c0.271,1.543,2.41,1.922,3.41,0.9
		c1.888-1.93,3.58-4.035,5.713-5.711c1.96-1.541-0.535-4.084-2.473-3.205c-3.256,1.478-5.506,4.403-8.705,5.985
		c0.931,0.932,1.861,1.859,2.792,2.791c1.965-2.979,4.077-4.209,7.598-3.549c3.429,0.643,6.695,1.566,10.227,1.295
		c2.595-0.197,2.646-4.213,0-4.081c-4.786,0.24-9.618-0.207-14.148-1.831c0.3,1.138,0.601,2.272,0.901,3.41
		c4.353-3.553,9.984-2.659,15.031-1.41c5.218,1.293,10.441,3.3,15.898,3.097c2.316-0.088,2.756-3.313,0.541-4.009
		c-6.984-2.196-14.521-0.8-21.49-2.991c0.162,1.242,0.325,2.484,0.487,3.729c3.816-2.307,9.429-1.729,13.638-1.247
		c4.14,0.476,10.064,1.431,12.996,4.736c0.662-1.137,1.324-2.274,1.986-3.41c-1.781-0.353-4.059-1.062-5.451-2.271
		c-0.277-0.242-0.525-0.561-0.738-0.857c-0.34-0.482-0.225-1.186-0.51-0.52c-0.516,0.336-0.479,0.459,0.109,0.369
		c0.627,0.15,0.811,0.191,0.551,0.123c0.32,0.157,0.619,0.378,0.898,0.602c3.045,2.447,5.895,5.799,8.006,9.086
		C79.461,57.768,82.994,55.725,81.566,53.504L81.566,53.504z"/>
</g>
<g>
	<path fill="#1A1A1A" d="M70.012,34.811c2.633,0,2.633-4.081,0-4.081C67.381,30.73,67.381,34.811,70.012,34.811L70.012,34.811z"/>
</g>
<g>
	<path fill="#1A1A1A" d="M39.06,47.317c0.834,0.55,1.716,0.972,2.664,1.294c1.053,0.357,2.228-0.4,2.509-1.425
		c0.308-1.12-0.373-2.151-1.425-2.509c-0.181-0.063-0.36-0.127-0.538-0.196c0.563,0.221-0.008-0.015-0.123-0.071
		c-0.357-0.179-0.695-0.396-1.028-0.615c-0.929-0.613-2.253-0.188-2.792,0.731C37.743,45.524,38.134,46.706,39.06,47.317
		L39.06,47.317z"/>
</g>
<g>
	<path fill="#1A1A1A" d="M28.664,57.117c2.632,0,2.632-4.08,0-4.08C26.033,53.037,26.033,57.117,28.664,57.117L28.664,57.117z"/>
</g>
<g>
	<path fill="#1A1A1A" d="M43.271,40.197c0.705,0.859-0.13,2.479-0.591,3.241c-0.884,1.459,0.583,3.61,2.304,2.997
		c2.786-0.995,4.32-3.1,4.49-6.049c0.085-1.49-1.819-2.616-3.069-1.76c-3.762,2.571-3.932,7.606-5.291,11.555
		c-0.858,2.497,3.084,3.559,3.935,1.086c0.524-1.526,0.86-3.109,1.273-4.667c0.381-1.434,0.828-3.555,2.142-4.452
		c-1.023-0.587-2.047-1.175-3.069-1.763c-0.06,1.033-0.496,1.758-1.495,2.115c0.768,0.997,1.536,1.996,2.304,2.995
		c1.566-2.587,1.953-5.748-0.047-8.185C44.486,35.277,41.617,38.181,43.271,40.197L43.271,40.197z"/>
</g>
</svg>
