<?xml version="1.0" encoding="utf-8"?>
<!-- Generator: Adobe Illustrator 16.0.0, SVG Export Plug-In . SVG Version: 6.00 Build 0)  -->
<svg version="1.2" baseProfile="tiny" id="Layer_1" xmlns="http://www.w3.org/2000/svg" xmlns:xlink="http://www.w3.org/1999/xlink"
	 x="0px" y="0px" width="100px" height="100px" viewBox="0 0 100 100" overflow="scroll" xml:space="preserve">
<g>
	<path fill="#FCFCFC" d="M44.714,83.1c15.807,0,15.807-24.033,0-24.033C28.907,59.066,28.907,83.1,44.714,83.1L44.714,83.1z"/>
</g>
<path d="M38.444,79.508c-4.745-0.957-6.045-4.301-7.226-7.809c-3.299-9.818-2.619-19.848-2.549-29.973
	c0.058-8.716,4.987-12.029,12.285-14.423c5.73-1.88,12.062-2.524,16.625-7.023c0.908-0.897,1.847-0.253,2.696,0.307
	c3.664,2.403,7.327,0.756,10.023-1.129c5.366-3.755,11.736-3.647,18.169-6.571c0.166,4.442-0.089,7.701-0.777,11.007
	c-1.318,6.337-1.302,12.719-0.036,19.067c1.295,6.523,2.695,13.029,4.054,19.539c1.135,5.432,0.758,5.982-4.926,7.988
	c-5.049,1.779-10.482,2.113-15.476,4.264c-7.246,3.119-14.551,6.082-21.368,10.041c-1.453,0.844-3.517,2.551-4.744,0.783
	c-1.6-2.307,1.346-3.135,2.762-4.318c0.574-0.479,1.238-0.898,1.929-1.203c3.19-1.4,3.648-3.529,2.577-6.639
	c-2.774-8.066-9.733-10.678-17.19-6.244c-1.643,0.977-1.743,2.422-1.089,3.846C35.501,73.895,37.013,76.682,38.444,79.508z"/>
<path d="M24.872,87.113C14.581,81.807,11.29,72.277,7.76,63.154C2.773,50.27,4.088,25.801,10.045,18.669
	c1.083,3.238-0.315,5.955-0.702,8.641c-1.701,11.824-1.614,23.512,1.743,35.118c2.173,7.516,5.693,14.178,11.546,19.668
	C23.781,83.174,25.867,83.898,24.872,87.113z"/>
<path fill="#534741" d="M31.632,50.99c-0.233-10.531,0.594-11.658,11.103-13.941c8.736-1.897,17.552-3.454,26.282-5.378
	c4.045-0.895,8.099,0.831,12.17-0.584c1.894-0.656,2.504,1.353,2.55,2.84c0.127,4.192,0.665,8.321,1.431,12.447
	c0.369,1.988,0.125,4.06-2.165,5.037c-2.354,1.002-4.183,0.623-5.944-1.588c-5.377-6.758-12.132-6.945-19.598-3.361
	c-2.272,1.09-4.804,1.677-7.211,2.508c-5.74,1.982-10.743,4.749-12.088,11.106c-0.353,1.666-1.099,2.748-2.918,2.828
	c-2.185,0.096-3.438-1.143-3.561-3.07C31.495,56.895,31.632,53.938,31.632,50.99z"/>
<path fill="#ED1C24" d="M44.173,61.594c6.729-9.621,18.073-13.133,28.448-9.094c0.385,1.244-0.662,1.523-1.396,2.168
	c-2.905,2.553-6.014-2.537-8.278-0.027c-2.173,2.41-4.662,3.773-7.637,4.5C51.729,60.012,48.384,62.127,44.173,61.594z"/>
<path fill="#F9F9F9" d="M67.217,69.658c0.136,1.963-3.994,4.537-7.637,4.764c-2.496,0.152-5.492-3.615-5.908-7.43
	c-0.333-3.049,2.447-5.498,6.466-5.691C62.95,61.16,66.957,65.893,67.217,69.658z"/>
<path fill="#F8F8F8" d="M79.035,63.281c0.145,3.318-2.17,5.822-5.384,5.83c-2.446,0.006-5.063-3.502-5.35-7.107
	c-0.289-3.609,2.511-3.852,5.027-4.063C76.894,57.637,78.875,59.625,79.035,63.281z"/>
<path fill="#F6F6F6" d="M80.708,59.225c-0.356-2.115,0.186-3.549,2.411-3.957c3.093-0.568,5.338,1.936,5.796,6.18
	c0.248,2.344-0.679,3.791-2.981,4.328C83.406,66.365,81.156,63.426,80.708,59.225z"/>
<path fill="#ECECEC" d="M58.175,27.729c-5.312,4.436-10.764,4.226-16.193,4.087C46.606,29.144,51.031,25.771,58.175,27.729z"/>
<path fill="#F2F2F2" d="M77.211,27.271c-1.53-0.383-2.107-1.391-2.006-2.714c0.19-2.484,3.037-4.743,5.179-4.146
	c1.552,0.43,1.714,1.681,1.446,2.91C81.306,25.71,79.751,27.099,77.211,27.271z"/>
<path fill="#EBEBEB" d="M63.642,26.762c1.883-1.967,3.909-2.021,6.185-1.526C67.771,27.702,67.771,27.702,63.642,26.762z"/>
<g>
	<path d="M47.818,82.895c-6.164,0.07-9.187-4.496-12.093-9.035c-1.027-1.604-3.663-0.135-2.631,1.479
		c1.681,2.623,3.375,5.316,5.779,7.396c2.487,2.154,5.625,3.127,8.944,3.088C49.781,85.799,49.783,82.871,47.818,82.895
		L47.818,82.895z"/>
</g>
</svg>
