<?xml version="1.0" encoding="utf-8"?>
<!-- Generator: Adobe Illustrator 16.0.0, SVG Export Plug-In . SVG Version: 6.00 Build 0)  -->
<!DOCTYPE svg PUBLIC "-//W3C//DTD SVG 1.1//EN" "http://www.w3.org/Graphics/SVG/1.1/DTD/svg11.dtd">
<svg version="1.1" id="Layer_1" xmlns="http://www.w3.org/2000/svg" xmlns:xlink="http://www.w3.org/1999/xlink" x="0px" y="0px"
	 width="100px" height="100px" viewBox="0 0 100 100" enable-background="new 0 0 100 100" xml:space="preserve">
<g>
	<path fill="none" d="M32.836,42.982c-0.025,0.089-0.051,0.176-0.074,0.267c0.03-0.081,0.061-0.163,0.09-0.244
		C32.848,42.997,32.842,42.99,32.836,42.982z"/>
	<path fill="none" d="M87.91,71c-0.068-0.199-0.139-0.4-0.207-0.6c0.018,0.184,0.039,0.363,0.063,0.545
		C87.814,70.961,87.863,70.98,87.91,71z"/>
	<path fill="#534741" d="M87.91,71c-0.047-0.02-0.096-0.039-0.145-0.055c-0.021-0.182-0.045-0.361-0.061-0.545
		c-0.852-2.473-1.541-4.982-1.516-7.643c-0.363-0.002-0.73-0.096-1.053-0.271c-0.662,8.627-5.564,16.094-12.682,20.416
		c0.162-0.012,0.34-0.033,0.535-0.066c1.779-0.301,3.543-0.684,5.336-1.084c0.074-0.691,0.482-1.35,1.316-1.635
		c3.4-1.168,6.945-1.82,10.357-2.943C89.438,75.086,88.637,73.053,87.91,71z"/>
	<path fill="#534741" d="M50.918,25.4c-0.296,0.048-0.587,0.098-0.876,0.149c-0.509,0.092-0.868,0.362-1.093,0.718
		c-0.065-0.004-0.13-0.011-0.195-0.015c-0.874-0.056-1.43,0.355-1.688,0.929C48.339,26.563,49.623,25.967,50.918,25.4z"/>
	<path fill="#534741" d="M82.398,15.418c-0.451,0.264-0.971,0.468-1.463,0.672c-7.68,3.195-15.307,6.592-23.072,9.501
		c-7.87,2.955-14.891,7.764-21.995,12.445c-1.912,1.398-3.096,3.226-3.66,5.48c0.006,0.01,0.012,0.019,0.018,0.026
		c-0.031,0.096-0.062,0.192-0.093,0.287c-0.187,0.851-0.293,1.759-0.317,2.726c-0.078,3.174-0.202,6.345-0.319,9.523
		c3.126-13.235,13.827-22.987,26.554-22.987c7.75,0,14.746,3.622,19.742,9.441c2.014,0,3.92,0.796,5.857,1.347V16.075
		C83.178,15.919,82.762,15.695,82.398,15.418z"/>
	<path fill="#534741" d="M78.891,41.797c0.756-0.212,1.494-0.3,2.217-0.299c-5.316-5.595-12.762-9.078-21.01-9.078
		c-13.542,0-24.931,9.376-28.258,22.103c-0.155,3.725-0.302,7.451-0.342,11.18c-0.035,3.25,0.939,6.344,2.951,9.227
		c9.112-4.436,13.521-13.73,20.649-19.934c0,0,0,0,0.002,0.002c0-0.002,0-0.002,0-0.002C61.553,47.705,69.98,44.313,78.891,41.797z"
		/>
	<path fill="#534741" d="M86.854,60.02c-0.936-0.488-1.578-1.465-1.238-2.746c0.723-2.738-0.021-5.658-0.766-8.561
		c-6.939,4.907-11.316,11.223-12.219,19.977c-0.486,4.746-2.027,9.471-4.191,13.891c-0.523,1.799-1.613,4.031,1.424,3.803
		C79.396,80.801,85.967,71.158,86.854,60.02z"/>
	<path d="M78.326,81.752c-1.793,0.4-3.559,0.783-5.338,1.084c-0.193,0.031-0.371,0.055-0.535,0.066
		C70.188,83.08,71,81.35,71.391,79.957c-1.779-0.498-3.561-0.996-5.344-1.492h-0.002l0,0c-0.268,2.256,0.109,4.66-1.537,6.592
		c-2.924,0.146-5.723,0.918-8.473,1.838c-4.934,1.648-9.781,0.779-14.441-0.822c-6.27-2.15-7.344-8.65-2.004-12.529
		c5.576-4.045,9.476-9.354,12.925-15.129l0,0c0.364-1.436,0.729-2.873,1.093-4.313h-0.001c-6.579,5.494-10.65,13.727-19.062,17.656
		c-1.858-2.551-2.756-5.295-2.725-8.172c0.036-3.303,0.173-6.604,0.316-9.904c0.117-2.703,0.239-5.407,0.314-8.11
		c0.024-0.824,0.127-1.598,0.313-2.322c0.022-0.09,0.047-0.178,0.073-0.267c0.554-1.919,1.717-3.477,3.595-4.668l0,0l0,0
		c-0.92-1.74-1.841-3.479-2.763-5.216c-0.001-0.001-0.004-0.003-0.005-0.005c-3.403,4.134-2.717,9.339-3.333,14.079
		c-1.327,10.197-1.352,20.379,2.065,30.365c3.347,9.791,7.913,13.299,18.232,13.152c1.33-0.023,2.7-0.047,3.982-0.361
		c8.215-2.018,16.42-4.076,24.602-6.23c0.195-0.053,0.408-0.102,0.621-0.156C78.811,83.822,78.217,82.752,78.326,81.752z"/>
	<path d="M21.696,32.494c0.346-1.098,0.626-2.289-0.788-2.777c-1.303-0.452-2.057,0.524-2.621,1.515
		c-0.323,0.574-0.479,1.243-0.699,1.874C13.913,43.72,12.6,54.77,12.392,65.877c-0.139,7.422,1.866,14.539,6.531,20.664
		c3.393,4.451,5.715,5.432,10.937,3.824c-3.336-2.592-6.675-4.711-8.645-8.299c-3.324-6.053-4.74-12.465-4.354-19.285
		C17.444,52.525,18.579,42.349,21.696,32.494z"/>
	<path d="M36.433,38.314L36.433,38.314c6.979-3.988,13.876-8.083,21.61-10.602c7.625-2.479,15.119-5.372,22.664-8.094
		c1.15-0.414,2.504-0.811,2.57-1.978c0.02-0.332-0.061-0.722-0.283-1.197c-0.814-1.723-2.412-1.745-4.045-1.089
		c-3.729,1.493-7.35,3.451-11.215,4.376c-5.826,1.392-11.416,3.304-16.816,5.67c-1.295,0.567-2.578,1.163-3.851,1.782
		c-2.808,1.364-5.568,2.849-8.283,4.449c-1.572,0.926-3.33,1.264-5.118,1.458c0.001,0.003,0.002,0.005,0.005,0.008
		C34.591,34.834,35.513,36.573,36.433,38.314z"/>
	<path d="M66.051,53.104c-0.34,0.313-0.574,0.719-0.717,1.143c0.209-0.4,0.469-0.789,0.721-1.139
		C66.053,53.105,66.053,53.105,66.051,53.104z"/>
	<path d="M57.57,56.135c1.992-2.326,4.318-4.285,7.059-5.714l0,0c0.859-0.7,1.971-1.404,2.748-0.324
		c1.008,1.394-0.395,2.224-1.285,3.074c0.299,1.77,0.572,3.953,2.963,1.652c1.873-1.803,3.189-4.176,4.969-6.095
		c3.246-3.51,6.678-3.771,9.523-0.94c0.703-0.511,1.789-0.485,2.492,0.074c0.656-0.862,0.773-1.865,0.447-2.983
		c-1.123,0.781-3.113,0.276-3.113-1.512V43.29c-1.9-0.47-3.775-1.146-5.752-1.147c-0.668,0-1.348,0.076-2.045,0.265
		c-8.227,2.228-16.008,5.232-21.967,11.694l0,0c-0.362,1.436-0.729,2.873-1.092,4.309C54.719,58.797,56.209,57.727,57.57,56.135z"/>
	<path d="M83.641,53.727c-0.277-1.123-0.551-2.242-0.691-3.338c-6.129,2.53-10.322,6.542-10.967,13.692
		c-0.229,2.557-1.377,5.031-2.105,7.539c-0.684,2.059-1.883,3.592-4.133,4.055c-0.357,0.121-0.713,0.232-1.072,0.346l0,0
		c0,0.346,0,0.689-0.002,1.037l0,0c0.461,0.469,0.916,0.939,1.375,1.408h0.002c1.781,0.496,3.563,0.994,5.344,1.492
		c1.617-3.422,2.768-7.084,3.131-10.758C75.193,62.42,78.463,57.527,83.641,53.727z"/>
	<path d="M39.623,20.342c3.928-1.572,7.862-3.151,11.689-4.947c1.86-0.875,4.458-0.842,5.294-3.464
		c-5.292-1.308-16.958,2.284-19.36,5.959c-0.289,0.442-0.309,1.374-0.033,1.805C37.734,20.504,38.805,20.671,39.623,20.342z"/>
	<path d="M87.936,61.383c-0.248,0.963-0.986,1.379-1.748,1.375c-0.023,2.662,0.664,5.172,1.516,7.645
		c0.068,0.199,0.139,0.398,0.207,0.6c0.727,2.051,1.527,4.084,2.09,6.17c0.15-0.049,0.303-0.094,0.451-0.145
		c0.623-0.217,1.152-0.109,1.549,0.172c-1.258-6.053-2.518-12.105-3.775-18.158C88.221,59.814,88.137,60.592,87.936,61.383z"/>
	<path fill="#C5C5C5" d="M87.232,30.128v3.708C87.32,32.568,87.32,31.326,87.232,30.128z"/>
	<path d="M86.484,44.88c0.326,1.118,0.211,2.121-0.447,2.983c0.391,0.311,0.662,0.785,0.682,1.426
		c0.012,0.447,0.053,0.891,0.105,1.334c0.459-0.72,0.842-1.489,1.182-2.284c0.771-1.801,0.461-3.205-0.961-4.115
		C86.916,44.5,86.719,44.718,86.484,44.88z"/>
	<path fill="#ED1C24" d="M64.672,77.057L64.672,77.057L64.672,77.057c0.002-0.346,0.002-0.691,0.002-1.037l0,0l0,0
		c-0.098-2.383-0.148-4.754,1.236-6.869l0,0l0,0v-0.027c0.061-1.535-0.096-3.111,0.225-4.59c0.596-2.74,1.789-5.326-0.803-7.867
		c-0.662-0.648-0.451-1.557,0-2.42c0.145-0.424,0.377-0.83,0.717-1.145c-0.473-0.895-0.945-1.787-1.42-2.681l0,0c0,0,0,0-0.002,0
		c-2.738,1.427-5.066,3.388-7.057,5.714c-1.363,1.592-2.854,2.662-5.056,2.277l0,0c-3.449,5.777-7.351,11.084-12.925,15.131
		c-5.341,3.879-4.266,10.377,2.005,12.529c4.659,1.6,9.507,2.469,14.44,0.822c2.75-0.92,5.549-1.691,8.475-1.838
		C64.564,82.391,64.617,79.725,64.672,77.057z"/>
	<path fill="#D4145A" d="M64.672,77.057L64.672,77.057c-0.055,2.668-0.107,5.334-0.162,8c1.645-1.932,1.268-4.334,1.537-6.592l0,0
		C65.588,77.996,65.131,77.527,64.672,77.057z"/>
	<path fill="#ED1C24" d="M74.023,48.729c-1.779,1.919-3.096,4.291-4.969,6.095c-2.391,2.301-2.666,0.117-2.963-1.654
		c0,0.002-0.002,0.004-0.004,0.006c-0.012-0.023-0.021-0.045-0.033-0.068c-0.252,0.35-0.512,0.74-0.721,1.141
		c-0.451,0.863-0.662,1.771,0,2.42c2.59,2.541,1.396,5.127,0.803,7.867c-0.32,1.479-0.166,3.057-0.225,4.592
		c1.32,0.832,2.645,1.664,3.967,2.496c0.727-2.51,1.877-4.984,2.105-7.539c0.645-7.152,4.838-11.164,10.965-13.694
		c-0.045-0.369-0.08-0.736-0.092-1.1c-0.02-0.693,0.266-1.192,0.689-1.5C80.701,44.957,77.27,45.219,74.023,48.729z"/>
	<path fill="#C1272D" d="M66.088,53.174c0.002-0.002,0.004-0.004,0.004-0.004c0.891-0.85,2.293-1.678,1.285-3.074
		c-0.777-1.079-1.889-0.374-2.748,0.325l0,0c0.475,0.893,0.947,1.788,1.422,2.682c0.002,0.002,0.002,0.002,0.004,0.004
		C66.064,53.129,66.076,53.152,66.088,53.174z"/>
	<path d="M65.91,69.123v0.027l0,0c-0.055,2.174-0.109,4.352-0.164,6.523l0,0c2.252-0.463,3.447-1.996,4.133-4.055
		C68.557,70.789,67.232,69.957,65.91,69.123z"/>
	<path fill="#C1272D" d="M65.91,69.15L65.91,69.15c-1.385,2.115-1.332,4.486-1.236,6.869l0,0c0.357-0.113,0.715-0.223,1.072-0.344
		l0,0C65.801,73.502,65.855,71.324,65.91,69.15z"/>
	<path d="M92.002,77.199c-0.396-0.283-0.926-0.389-1.551-0.174c-0.148,0.053-0.301,0.098-0.451,0.146
		c-3.412,1.123-6.957,1.773-10.359,2.943c-0.832,0.285-1.24,0.943-1.314,1.637c-0.107,1,0.486,2.07,1.506,2.188
		c0.254,0.027,0.533,0.002,0.836-0.104c3.551-1.219,7.26-1.867,10.811-3.088C93.199,80.158,93.107,77.984,92.002,77.199z"/>
	<path d="M86.037,47.863c-0.701-0.56-1.787-0.584-2.49-0.074c-0.426,0.306-0.709,0.806-0.691,1.5
		c0.012,0.362,0.047,0.729,0.094,1.101c0.141,1.096,0.414,2.215,0.691,3.338c0.557,2.248,1.113,4.512,0.572,6.629
		c-0.254,0.992,0.227,1.748,0.924,2.131c0.32,0.176,0.688,0.27,1.051,0.271c0.762,0.002,1.502-0.414,1.748-1.375
		c0.201-0.789,0.285-1.57,0.289-2.346c0.012-2.832-1.049-5.582-1.4-8.416c-0.053-0.443-0.094-0.886-0.105-1.334
		C86.699,48.648,86.428,48.172,86.037,47.863z"/>
	<path d="M83.373,43.292v0.076c0,1.788,1.99,2.292,3.111,1.512c0.234-0.162,0.43-0.381,0.561-0.656
		c0.119-0.243,0.186-0.526,0.186-0.856v-9.532v-3.708V18.403c0-2.225-3.076-2.461-3.734-0.71c-0.08,0.209-0.125,0.444-0.125,0.71
		v24.89H83.373z"/>
</g>
</svg>
