<?xml version="1.0" encoding="utf-8"?>
<!-- Generator: Adobe Illustrator 16.0.0, SVG Export Plug-In . SVG Version: 6.00 Build 0)  -->
<svg version="1.2" baseProfile="tiny" id="Layer_1" xmlns="http://www.w3.org/2000/svg" xmlns:xlink="http://www.w3.org/1999/xlink"
	 x="0px" y="0px" width="300px" height="200px" viewBox="0 0 300 200" overflow="scroll" xml:space="preserve">
<path d="M177.289,5.924c3.435,1.197,5.769,3.779,7.815,6.565c10.678,14.521,20.507,29.614,29.291,45.339
	c3.616,6.479,6.396,13.451,9.236,20.328c2.396,5.797,5.527,11.175,8.69,16.532c8.293,14.048,12.461,29.194,12.661,45.481
	c0.058,4.67,0.628,9.355,0.372,14.001c-0.37,6.709-0.944,13.457-4.212,19.579c-1.463,0.85-2.985,0.875-4.558,0.354
	c-4.295-0.057-7.24-3.69-11.763-4.059c-2.603-0.212-4.749-0.324-7.063,0.65c-1.104,0.057-1.94-0.471-2.663-1.234
	c-0.285-0.425-0.475-0.884-0.557-1.389c5.289-9.56,4.324-19.632,2.826-29.898c-2.465-16.894-8.008-32.718-16.961-47.116
	c-5.854-9.413-10.212-19.697-17.024-28.521c-4.488-5.817-9.866-10.602-15.959-14.71c-5.018-3.384-9.713-7.133-15.566-9.214
	c-4.476-1.591-8.442-1.027-12.548,0.827c-7.489,3.382-14.149,8.032-20.491,13.181c-1.205,0.979-2.231,2.211-3.889,2.463
	c-1.424,0.259-1.962-0.647-2.343-1.765c-0.388-2.29,1.307-3.498,2.691-4.712c7.064-6.201,14.737-11.593,23.292-15.465
	c6.302-2.853,13.164-2.632,19.148,0.611c14.782,8.018,27.922,17.986,36.071,33.339c6.651,12.528,15.019,24.103,20.518,37.297
	c5.719,13.724,9.159,27.955,10.181,42.742c0.42,6.068,2.01,8.569,7.815,10.09c5.995,1.571,6.508,1.154,6.864-5.147
	c1.27-22.4-5.016-42.793-16.564-61.728c-3.271-5.366-5.645-11.144-8.111-16.842c-8.942-20.657-21.592-39.079-34.027-57.644
	C179.054,12.662,175.058,10.286,177.289,5.924z"/>
<path d="M57.625,92.184c1.015-0.732,2.309-1.104,2.969-2.301c-0.773-5.887,2.634-10.559,4.497-15.691
	c3.146-8.672,8.094-16.34,13.014-24.034c4.047-6.333,8.892-11.916,15.301-15.955c7.294-4.602,14.123-9.916,22.034-13.573
	c4.563-2.112,9.472-3.32,13.881-5.739c6.804-3.732,13.613-7.461,20.341-11.329c2.753-1.584,5.523-2.841,8.746-2.855
	c7.245-1.677,12.697,3.11,18.887,5.234l-0.006-0.016c0.335,1.976,1.629,3.216,3.189,4.31c1.366,0.957,2.903,1.892,2.174,4.014
	c-2.295,0.802-4.024-0.507-5.745-1.63c-9.99-6.522-19.749-7.926-30.354-0.652c-6.672,4.575-14.9,6.4-22.311,9.736
	c-20.187,9.086-37.787,21.291-47.822,41.788c-4.001,8.17-8.671,16.222-10.009,25.499c-0.277,1.913-0.868,3.714-2.06,5.259
	c-1.03,1.332-2.425,1.971-4.104,1.665C58.203,95.538,57.29,94.278,57.625,92.184z"/>
<path d="M173.873,189.32c-0.787-0.905-1.714-1.724-2.338-2.73c-1.581-2.55-1.495-3.35,1.236-4.922
	c1.977-1.137,2.73-1.858,1.549-4.314c-2.605-5.419-1.34-6.971,4.857-6.74c0.68,0.025,1.379,0.205,1.973-0.31
	c0.117-0.303,0.385-0.634,0.332-0.904c-1.168-5.999,0.77-7.832,6.857-6.392c1.164,0.275,2.616,1.09,3.154-0.444
	c1.273-3.629,4.471-4.512,7.453-5.791c1.507-0.866,2.785-0.271,3.26,1.104c0.846,2.453-1.488,3.401-2.75,4.823
	c-1.789,2.851,0.672,4.035,2.225,5.495c2.057,1.933,3.451,3.965,1.414,6.681c-2.258,3.01-4.909,1.373-6.796-0.123
	c-1.943-1.54-4.292-2.47-5.604-3.835c2.936,1.636,5.792,4.486,9.516,5.955c2.463,0.973,3.07,2.761,2.156,4.987
	c-0.917,2.226-2.847,3.079-5.127,2.319c-4.68-1.561-9.576-2.659-12.485-5.063c1.339,1.002,3.976,2.381,6.829,3.271
	c2.654,0.829,4.464,2.287,3.646,5.247c-0.91,3.294-3.604,4.137-6.589,3.438c-3.458-0.807-6.358-2.907-9.271-4.86
	c-0.518-0.188-0.99-0.075-1.377,0.35c-0.176,0.348-0.361,0.662-0.513,1.015C176.902,189.473,175.714,190.089,173.873,189.32z"/>
<path d="M108.598,54.057c-6.75,5.894-12.196,12.944-15.758,21.066c-6.952,15.853-12.164,32.387-18.159,48.615
	c-4.462,12.065-10.827,23.095-22.4,29.813c0.818,1.584,1.595,3.166,2.302,4.752c13.074-7.974,21.541-19.917,26.445-34.289
	c4.691-13.737,9.047-27.583,14.462-41.065c1.36-3.384,2.941-6.627,4.74-9.799c3.892-6.861,9.484-12.301,14.701-18.064l-1.053-2.033
	C111.656,50.945,110.117,52.729,108.598,54.057z"/>
<path d="M173.873,189.32c0.877-0.402,1.416-0.998,1.034-2.02c-0.44-1.181-0.648-2.324,0.247-3.396
	c3.402,0.851,5.731,3.532,8.729,5.116c15.556,8.217,29.122,5.135,41.293-7.102c3.644-3.663,8.456-5.874,11.501-10.123
	c0.639-0.987,1.445-1.774,2.846-2.383c1.076,1.239-0.881,3.807,1.621,4.338c-7.906,11.087-17.504,19.938-30.99,23.789
	c-8.096,2.313-16.114,2.091-23.895-0.927C181.793,194.882,177.132,193.216,173.873,189.32z"/>
<path d="M196.989,160.813c0.75-0.357,1.519-0.677,2.249-1.072c2.289-1.242,2.27-1.378-0.289-2.968
	c2.613-1.347,3.727,0.15,4.488,2.355c0.773,2.241,1.543,4.412,3.369,6.165c2.229,2.138,4.563,3.499,7.735,2.78l0.259,0.417
	c-2.078,4.315-5.725,2.391-8.685,1.833c-2.422-0.456-4.768-1.801-6.354-3.972C198.582,164.635,197.229,163.002,196.989,160.813z"/>
<path fill="#753D24" d="M232.507,103.449c-4.084-8.023-8.776-15.721-12.468-23.963c-4.881-10.905-9.617-21.887-16.126-32.007
	c-7.114-11.061-13.804-22.393-21.263-33.232c-3.627-3.823-8.116-6.042-12.951-8.135c-8.266-3.574-15.463-2.106-22.544,2.609
	c-2.742,1.826-5.755,3.084-8.821,4.317c-7.215,2.9-14.301,6.116-21.437,9.206c-7.376,3.194-13.415,8.513-20.176,12.68
	c-6.027,3.719-10.511,8.938-14.623,14.521C75.916,57.844,71.637,67.277,67.311,76.7c-2.059,4.48-2.742,9.253-3.935,13.931
	c-1,3.926-2.173,4.121-5.751,1.553c-1.224-0.837-2.263-1.779-3.138-2.821c-0.284,6.93-0.985,13.79-2.727,20.41
	c2.743,7.604,3.218,16.283,1.795,23.945c-0.917,4.938-2.444,9.561-4.528,13.804c1.572,2.808,3.088,5.604,4.444,8.396
	c2.846-1.452,5.504-3.212,7.757-5.478c6.013-6.051,10.296-13.344,14.398-20.741c0.498-0.896,0.82-1.905,1.116-2.896
	c5.109-17.07,11.401-33.732,18.299-50.127c3.981-9.466,10.229-17.608,18.834-23.626c7.438-5.947,14.797-11.953,23.353-16.355
	c7.082-3.647,13.783-3.611,20.837,0.015c4.685,2.405,8.545,5.848,12.802,8.792c7.673,5.309,14.1,11.74,18.848,19.77
	c3.878,6.563,7.343,13.38,11.441,19.8c8.194,12.832,14.14,26.532,17.469,41.404c2.319,10.352,4.294,20.707,3.122,31.395
	c-0.093,0.836-0.139,1.756,0.987,2.023c2.024-0.28,2.536-3.543,5.095-2.665c1.313,1.735-0.349,4.258,1.506,5.707
	c2.193-0.489,2.76-3.529,4.834-3.044c2.41,0.563,0.977,3.354,1.943,4.897c0.092,0.145,0.134,0.319,0.217,0.473
	c0.8,1.475,1.895,1.503,2.852,0.313c0.625-0.774,1.146-1.819,1.246-2.792c0.402-3.959,1.14-7.865,1.316-11.87
	c0.533-12.266-1.268-24.165-4.622-35.922C235.971,110.957,234.404,107.178,232.507,103.449z"/>
<path fill="#FFAA81" d="M196.989,160.813c2.204,0.129,2.933,2.046,4.12,3.405c2.525,1.815,3.555,5.265,6.828,6.261
	c1.742,0.587,3.489,0.548,5.24,0.049c1.329-0.068,2.383-1.13,3.756-1.045c1.939-2.653,4.45-4.619,7.16-6.354
	c0.4,0.491,0.729,0.717,0.786,0.996c1.185,5.624,1.175,5.622,5.797,1.876c0.243-0.197,0.622-0.223,1.139-0.396
	c0.657,1.718,1.266,3.472,1.993,5.173c0.555,1.299,1.484,1.89,2.868,1.015c1.152,1.531,0.087,2.722-0.825,3.644
	c-6.909,6.985-13.639,14.129-22.941,18.199c-12.766,5.584-27.063,1.484-36.713-7.95c-0.475-0.464-0.701-1.182-1.043-1.781
	l0.014-0.004c1.392-0.74,2.781-0.788,4.166,0.022c2.577,1.784,5.262,3.349,8.305,4.229c1.164,0.336,2.293,0.831,3.544,0.486
	c1.032-0.287,2.071-0.688,2.245-1.871c0.207-1.421-1.03-1.638-1.996-1.889c-5.791-1.492-9.803-5.391-14.266-9.967
	c3.123-0.882,5.09,0.27,6.896,1.323c3.623,2.117,7.619,3.326,11.401,5.042c0.781,0.355,1.625,0.614,2.466,0.781
	c1.257,0.249,2.523,0.188,2.977-1.303c0.371-1.207-0.447-1.833-1.411-2.43c-3.526-2.18-6.963-4.512-10.524-6.631
	c-2.001-1.19-3.795-2.379-3.952-5.34c2.315-0.012,3.878,1.203,5.494,2.456c2.323,1.804,4.743,3.482,7.136,5.192
	c1.261,0.902,2.62,1.187,3.7-0.158c1.2-1.492,0.851-2.975-0.68-4.018c-1.761-1.196-3.076-2.753-4.307-4.451
	C195.065,163.587,195.543,162.163,196.989,160.813z"/>
<path d="M216.934,169.483c-0.701,1.148-1.623,1.979-3.033,2.107c-2.164,0.481-4.324,0.724-6.45-0.184
	c-2.849-1.747-5.013-4.101-6.341-7.189c0.992-0.275,1.617,0.254,2.116,1c2.929,4.392,6.913,5.026,11.575,3.271
	C215.513,168.82,216.223,169.151,216.934,169.483z"/>
<path fill="#AAAAAA" d="M179.334,183.922c-1.389-0.008-2.778-0.016-4.166-0.022C176.562,182.823,177.949,182.903,179.334,183.922z"
	/>
<path d="M207.451,171.407c2.15,0.061,4.299,0.123,6.449,0.184C211.723,172.543,209.57,172.582,207.451,171.407z"/>
</svg>
