<?xml version="1.0" encoding="utf-8"?>
<!-- Generator: Adobe Illustrator 16.0.0, SVG Export Plug-In . SVG Version: 6.00 Build 0)  -->
<svg version="1.2" baseProfile="tiny" id="Layer_1" xmlns="http://www.w3.org/2000/svg" xmlns:xlink="http://www.w3.org/1999/xlink"
	 x="0px" y="0px" width="200px" height="300px" viewBox="0 0 200 300" xml:space="preserve">
<path d="M22.602,44.877c1.538,1.091,3.116,2.102,4.87,2.76c10.685,4.005,21.036,8.897,31.445,13.685
	c13.036,5.995,24.464,13.738,34.158,25.407c11.444,13.773,20.14,28.693,23.87,47.045c2.502,12.32,3.495,24.146-1.216,36.412
	c-3.951,10.288-11.268,18.049-15.436,28.049c-0.889,2.137-2.833,3.949-5.51,3.48c-1.718-0.527-2.204-2.068-2.545-3.733
	c2.88-3.827,5.639-7.728,7.51-12.321c0.68-1.676,1.676-3.275,2.801-4.633c4.988-6.013,6.734-13.763,9.4-21.002
	c0.924-2.504,1.078-5.308,0.882-7.977c-1.222-16.594-5.695-31.975-14.206-45.872c-4.018-6.56-8.905-12.236-13.746-18.037
	c-5.829-6.985-12.425-12.525-20.238-16.432c-5.306-2.653-10.397-5.912-15.853-8.084c-8.095-3.224-15.739-8.077-24.553-8.895
	c-1.228-0.114-2.102-0.815-2.948-1.592C21.844,50.41,22.264,47.652,22.602,44.877z"/>
<path d="M110.572,0c0.855,3.253,1.699,6.509,2.503,9.776c2.522,10.251,5.682,20.019,12.085,28.365
	c5.084,6.625,9.443,13.925,14.143,20.91c2.935,4.36,4.879,9.244,6.769,14.231c4.728,12.485,4.946,25.802,6.407,38.902
	c-2.326,4.038-3.837,0.785-5.047-0.947c-1.25-1.788-1.025-4.271-1.331-6.484c-0.362-2.664-0.815-5.299-1.065-7.985
	c-1.449-15.548-5.568-29.937-15.037-42.052c-2.569-3.289-4.973-6.775-7.209-10.34c-4.255-6.782-9.797-12.762-12.027-20.869
	c-1.972-7.171-4.043-14.298-6.16-21.413C106.589,1.398,108.58,0.702,110.572,0z"/>
<path d="M95.852,199.232c-0.385-1.155-1.089-1.966-2.144-2.396c-11.22,12.339-23.736,22.82-37.254,31.938
	c-5.105,3.443-10.185,7.032-13.889,12.489c-7.767,11.443-5.949,24.43,4.681,32.657c1.973,1.137,3.833,3.33,6.2,0.811
	c0.979-2.843-0.758-4.407-2.55-5.461c-7.785-4.576-6.258-18.36-1.115-26.084c0.908-1.363,2.051-1.923,3.338-0.774
	c2.275,2.024,4.919,1.628,7.53,1.676c7.177,0.127,13.615,3.638,20.135,6.144c12.824,4.933,24.853,12.425,38.909,13.041
	c6.01,0.265,11.832,1.997,17.459,4.429c9.871,1.157,19.783,1.787,29.621,3.235c1.5,0.222,3.02,0.267,4.119,1.646
	c1.759,1.24,3.52,4.071,5.272-0.008c-0.627-4.011-3.518-5.008-6.487-5.826c-8.355-2.302-16.773-4.142-25.359-5.21
	c-11.71-1.457-23.17-4.744-34.938-5.943c-5.067-0.518-9.781-2.792-14.293-5.329c-3.372-1.896-3.325-2.622-0.352-6.229
	c1.422-1.297,3.815-2.201,1.671-4.96c-0.301-0.243-0.661-0.608-0.979-0.544c-10.654,2.141-18.628-6.363-29.415-8.226
	c10.16-7.654,18.785-15.378,27.03-23.604C95.012,204.739,98.056,203.146,95.852,199.232z"/>
<path d="M176.166,272.573c-1.652,0.068-2.236-1.847-3.584-2.347c-2.18,2.115-0.836,4.594-0.57,6.942
	c0.473,4.176,0.627,8.247-2.492,11.455c-0.586,0.459-1.203,0.865-1.867,1.178c-0.695,0.253-1.406,0.439-2.12,0.632
	c-8.247,3.088-8.325,3.053-10.782-6.024c-1.104-4.077-4.053-6.795-6.244-10.031c-1.172-1.73-3.492-1.534-5.102-0.098
	c-1.535,1.372-1.332,3.245-0.418,5.039c1.377,2.694,2.932,5.353,2.318,8.667c-0.229,1.238-0.803,2.333-2.004,2.751
	c-0.791,0.28-1.863-0.066-1.828-0.813c0.326-6.976-5.563-9.717-8.121-14.705c-3.501-1.511-6.111-5.662-10.571-4.303
	c-0.825,0.426-1.499,1.03-1.91,1.946c-0.835,2.661,0.386,4.438,2.306,5.642c5.734,3.595,9.516,8.047,6.588,15.971
	c-0.338,0.914-0.021,2.045,0.625,2.906c0.967,0.859,2.017,0.863,3.113,0.372c5.646,2.2,11.447-0.428,17.166,0.635
	c1.189,0.222,2.529-0.232,3.744,0.521c1.621,1.001,3.34,0.659,4.94,0.066c4.048-1.499,7.939-3.391,12.106-4.648
	c4.559-1.381,8.067-10.032,7.09-15.518C178.146,276.561,177.537,274.386,176.166,272.573z"/>
<path d="M152.479,112.185c-1.88,0.481-2.104-0.921-2.201-2.39c-0.146-2.167-0.063-4.383-1.318-6.267
	c-4.299,3.14-2.35,7.717-2.213,11.842c0.716,21.396-0.158,42.619-6.488,63.097c-3.216,10.405-7.778,20.156-13.34,29.319
	c0.193,2.053,0.151,4.327,2.984,3.989c2.073-1.118,3.67-2.728,4.879-4.955c5.41-9.968,9.924-20.355,13.131-31.456
	c1.729-5.988,2.027-12.164,2.793-18.284c1.539-12.27,3.137-24.542,2.783-36.988C153.41,117.415,153.605,114.695,152.479,112.185z"/>
<path d="M133.502,297.754c-0.859-0.463-1.723-0.924-2.584-1.389c-0.611-2.465-2.629-2.576-4.373-3.295
	c-21.889-9.028-44.917-13.333-67.447-19.69c-2.063-0.581-4.386-1.884-6.216,0.741c-1.918,1.293-3.761,0.027-5.633-0.2
	c3.586,3.75,8.417,4.323,12.799,5.985c9.791,3.72,19.971,5.563,30.145,7.495c7.039,1.337,13.837,3.699,20.462,6.758
	c3.965,1.831,8.168,3.108,12.349,4.271C126.495,299.402,130.084,299.464,133.502,297.754z"/>
<path d="M129.902,211.775c-0.443-0.869-0.887-1.738-1.33-2.607c-2.275-1.72-3.945-0.187-5.395,1.43
	c-7.873,8.768-15.969,17.229-25.417,23.979c-1.756,1.256-3.322,2.863-2.088,5.595c0.723,1.596-0.456,2.629-0.938,3.867
	c8.789-5.209,17.09-11.224,24.248-18.908C122.869,220.957,126.279,216.243,129.902,211.775z"/>
<path fill="#753D24" d="M104.306,103.697c-4.423-6.714-9.334-12.902-14.391-19.045c-4.25-5.162-8.975-9.712-14.251-13.014
	c-9.784-6.127-20.292-10.8-30.74-15.473c-7.076-3.165-14.378-5.532-21.257-9.276c1.205-8.016,1.508-16.213,1.579-24.435
	c23.074,0.803,49.028-9.89,68.41-16.556c4.54-1.562,9.099-3.157,13.673-4.76c1.664,5.271,3.39,10.524,4.636,15.915
	c1.679,7.259,4.708,13.404,8.882,19.146c4.578,6.302,8.883,12.847,13.352,19.247c7.523,10.778,11.635,23.045,13.251,36.424
	c0.471,3.891,0.308,7.881,1.513,11.656c-0.271,8.067,1.414,16.009,1.11,24.106c-0.325,8.651-0.749,17.303-1.776,25.865
	c-1.026,8.55-1.581,17.277-4.975,25.303c-1.266,2.993-2.465,6.028-3.513,9.121c-2.645,7.798-6.128,15.034-11.234,21.245
	c-0.884,0.769-1.9,1.406-2.634,2.319c-8.406,10.462-17.964,19.43-28.644,26.967c-0.618,0.439-1.083,1.142-1.621,1.721
	c-2.217,1.479-4.95,1.524-7.055,3.567c-2.711,2.631-3.081,2.496-4.413-1.366c-1.118-3.241-2.547-4.956-5.822-3.441
	c-1.151,0.53-1.87-0.146-2.888-0.943c-4.049-3.175-8.271-6.219-13.683-4.021c-1.019,0.414-1.835,0.155-2.301-1.006
	c-0.447-1.113-0.173-1.984,0.747-2.644c1.574-1.128,3.123-2.292,4.711-3.387c11.338-7.827,21.599-17.103,30.881-27.701
	c2.81-2.244,4.8-5.166,6.29-8.617c1.779-4.125,4.055-7.932,6.721-11.462c4.688-6.216,6.715-13.778,8.527-21.38
	c1.313-5.505,0.85-11.053-0.275-16.589C114.442,128.021,111.708,114.934,104.306,103.697z"/>
<path fill="#FFAA81" d="M52.882,274.121c8.449,3.45,17.104,6.065,25.964,7.875c11.969,2.442,23.851,5.078,35.194,10.329
	c5.269,2.438,10.924,4.365,16.877,4.04c0.36-0.71,0.684-1.45,1.086-2.133c3.813-6.46,3.336-10.076-2.207-14.56
	c-2.568-2.076-5.377-3.793-8.077-5.671c-0.479-1.468,0.104-1.911,1.36-1.709c3.021,1.768,6.043,3.535,9.064,5.298
	c3.566,2.751,6.502,3.063,9.393-1.531c1.558-2.474,4.56-2.549,6.803-0.312c6.201,6.187,7.732,5.904,11.393-2.432
	c1.059-3.773-0.245-5.463-3.74-6.381c-6.43-1.686-13.141-0.914-19.484-3.051c-6.83-2.441-13.871-3.856-21-4.376
	c-6.71-0.485-12.912-2.612-18.925-5.675c-3.389-1.723-6.515-4.168-10.489-4.158c-0.686,0.002-1.572-0.42-2.023-0.979
	c-2.704-3.345-5.679-4.599-9.86-3.243c-2.508,0.814-2.892-1.825-2.749-4.089c0.188-3.007-1.377-3.355-3.098-1.953
	c-2.48,2.025-4.709,3.415-7.486,0.719c-0.277-0.271-1.053,0.057-1.593,0.141c-5.276,0.813-5.444,0.622-4.289-4.956
	c-6.419,2.315-12.698,11.375-12.329,19.128C43.211,265.915,40.562,266.113,52.882,274.121z"/>
<path fill="#FFAA81" d="M136.508,263.887c3.381,1.855,7.029,2.331,10.733,2.557c1.839,0.111,3.705,0.137,5.505,0.514
	c4.321,0.904,4.699,1.501,5.203,6.917c0.088,0.269,0.177,0.538,0.266,0.807c2.826,4.847,9.225,6.599,9.693,13.504
	c0.684,1.213,1.223,2.566,2.688,2.891c4.703-5.008,6.518-10.651,3.24-17.468c-0.515-1.071-0.842-2.251-1.255-3.379
	C160.744,266.824,148.73,264.634,136.508,263.887z"/>
<path fill="#FFAA81" d="M157.95,273.874c-4.542,4.266-4.542,4.27-9.444,0.789c-2.98-2.113-7.576-1.917-10.125,0.861
	c-1.855,2.026-3.979,2.053-6.236,2.068c0.98,1.242,1.896,2.557,2.953,3.718c2.285,2.498,3.455,5.251,2.529,8.909
	c-0.441,1.74-0.786,3.83,0.975,5.061c1.949,1.363,3.918,0.836,5.819-0.402c4.418-2.881,5.669-6.903,3.485-12.026
	c-1.025-2.4-2.363-4.641-3.552-6.94c1.261-1.275,2.272-0.693,2.97,0.36c2.416,3.645,4.771,7.174,5.047,12.115
	c0.428,7.67,3.923,9.764,10.178,6.732c1.539-0.748,3.115-1.44,4.26-2.898c2.959-4.46,0.548-7.913-2.051-10.939
	c-2.146-2.504-4.423-4.909-6.68-7.314L157.95,273.874z"/>
<path d="M158.077,273.967c-0.065,2.547,1.394,4.301,2.988,5.596c3.937,3.196,5.497,7.523,5.743,12.658
	c0.771,0.742,1.602,0.954,2.525,0.34c0.855-1.746,0.737-3.511,0.084-5.288C168.181,280.214,163.288,276.926,158.077,273.967z"/>
<path d="M123.08,272.293c-0.91-0.478-1.97-1.258-2.572,0.224c-0.326,0.804,0.547,1.228,1.211,1.485
	C122.173,273.433,122.626,272.863,123.08,272.293z"/>
<path fill="#9C9C9C" d="M151.404,121.759c-0.013,0.494,0.23,0.813,0.52,0.605c0.203-0.146,0.245-0.625,0.287-0.964
	c0.061-0.494-0.208-0.813-0.513-0.601C151.497,120.942,151.494,121.428,151.404,121.759z"/>
<path fill="#FFAA81" d="M167.4,275.326c0.72-0.033,1.239-0.377,1.247-1.046c0.022-1.935-1.034-2.998-2.649-3.361
	c-0.813-0.183-1.627,0.313-1.533,1.266C164.65,274.07,166,274.84,167.4,275.326z"/>
</svg>
