<?xml version="1.0" encoding="utf-8"?>
<!-- Generator: Adobe Illustrator 16.0.0, SVG Export Plug-In . SVG Version: 6.00 Build 0)  -->
<!DOCTYPE svg PUBLIC "-//W3C//DTD SVG 1.1//EN" "http://www.w3.org/Graphics/SVG/1.1/DTD/svg11.dtd">
<svg version="1.1" id="Layer_1" xmlns="http://www.w3.org/2000/svg" xmlns:xlink="http://www.w3.org/1999/xlink" x="0px" y="0px"
	 width="300px" height="200px" viewBox="0 0 300 200" enable-background="new 0 0 300 200" xml:space="preserve">
<path d="M196.51,190.043c3.395-1.985,5.312-5.016,6.877-8.168c8.173-16.428,15.319-33.191,21.208-50.293
	c2.426-7.047,3.85-14.355,5.358-21.588c1.273-6.096,3.427-11.979,5.611-17.848c5.741-15.389,6.84-30.803,3.468-46.319
	c-0.97-4.448-1.393-9.04-2.689-13.388c-1.873-6.28-3.972-12.546-8.799-17.553c-1.747-0.445-3.373-0.093-4.935,0.79
	c-4.561,1.118-6.896,5.295-11.635,6.762c-2.727,0.845-4.987,1.481-7.664,1.128c-1.188,0.219-1.966,0.927-2.565,1.831
	c-0.209,0.474-0.31,0.955-0.285,1.457c7.74,7.77,8.931,17.573,9.598,27.694c1.099,16.65-1.321,33.049-7.686,48.936
	c-4.158,10.385-6.536,21.227-11.849,31.291c-3.501,6.634-8.17,12.506-13.758,17.914c-4.596,4.453-8.773,9.174-14.549,12.596
	c-4.417,2.619-8.767,3.062-13.549,2.315c-8.722-1.36-16.841-4.131-24.729-7.451c-1.499-0.63-2.865-1.549-4.684-1.379
	c-1.574,0.106-1.947,1.098-2.108,2.255c0.092,2.271,2.163,2.998,3.905,3.806c8.892,4.145,18.252,7.369,28.215,8.929
	c7.342,1.152,14.601-0.752,20.257-5.311c13.981-11.269,25.777-23.983,31.074-40.574c4.325-13.543,10.687-26.604,13.637-40.488
	c3.066-14.446,3.596-28.813,1.427-43.107c-0.888-5.867,0.254-8.635,6.102-11.513c6.039-2.974,6.676-2.705,8.444,3.192
	c6.29,20.96,4.088,41.879-4.04,62.712c-2.301,5.907-3.556,11.974-4.93,18c-4.974,21.826-14.386,42.444-23.54,63.148
	C196.906,183.207,193.172,186.45,196.51,190.043z"/>
<path d="M50.047,137.699c1.244,0.443,2.704,0.475,3.67,1.452c0.473,5.78,5.133,9.378,8.247,13.789
	c5.262,7.459,12.221,13.517,19.158,19.61c5.703,5.011,12.096,9.117,19.813,11.37c8.781,2.568,17.228,5.929,26.459,7.445
	c5.322,0.877,10.818,0.813,16.048,2.021c8.069,1.861,16.143,3.721,24.162,5.732c3.282,0.822,6.511,1.333,9.945,0.548
	c8.087-0.197,12.839-6.092,18.963-9.639l-0.003,0.019c-0.077-1.96,1.026-3.456,2.447-4.881c1.246-1.248,2.677-2.514,1.432-4.349
	c-2.622-0.194-4.176,1.475-5.761,2.966c-9.204,8.666-19.288,12.408-32.188,8.123c-8.115-2.698-17.28-2.397-25.908-3.733
	c-23.503-3.639-44.94-10.88-60.145-27.864c-6.06-6.769-12.809-13.263-16.278-21.74c-0.715-1.749-1.742-3.312-3.353-4.485
	c-1.391-1.012-3.017-1.272-4.738-0.567C49.924,134.37,49.229,135.794,50.047,137.699z"/>
<path d="M152.462,16.726c-0.64,1.055-1.445,2.06-1.889,3.171c-1.121,2.813-0.853,3.55,2.403,4.368
	c2.357,0.591,3.315,1.089,2.6,3.714c-1.583,5.79,0.109,6.951,6.66,5.2c0.719-0.192,1.425-0.536,2.17-0.192
	c0.193,0.258,0.552,0.505,0.554,0.776c0.079,5.985,2.543,7.247,8.715,4.375c1.179-0.55,2.545-1.683,3.456-0.359
	c2.158,3.133,5.757,3.18,9.216,3.657c1.796,0.451,3.026-0.43,3.229-1.852c0.36-2.54-2.335-2.863-3.992-3.902
	c-2.536-2.264-0.173-3.997,1.159-5.768c1.765-2.343,2.803-4.619,0.034-6.694c-3.068-2.299-5.53-0.09-7.21,1.797
	c-1.731,1.942-4.026,3.404-5.125,5.025c2.765-2.278,5.181-5.69,8.821-8.005c2.411-1.533,2.663-3.379,1.2-5.27
	c-1.466-1.886-3.711-2.22-5.971-0.936c-4.642,2.64-9.612,4.891-12.186,7.895c1.208-1.283,3.712-3.245,6.554-4.794
	c2.645-1.444,4.249-3.275,2.728-5.884c-1.695-2.904-4.751-3.039-7.778-1.637c-3.507,1.621-6.13,4.331-8.802,6.907
	c-0.509,0.305-1.037,0.316-1.544,0.007c-0.263-0.287-0.529-0.539-0.77-0.836C155.655,15.832,154.253,15.541,152.462,16.726z"/>
<path d="M112.742,161.309c-8.489-3.927-15.843-9.278-21.426-16.111c-10.898-13.336-20.091-27.749-30.053-41.678
	c-7.412-10.356-16.622-19.256-30.428-22.776c0.521-1.708,1.001-3.401,1.404-5.082c15.684,4.34,27.332,13.591,35.723,26.027
	c8.023,11.886,15.713,23.959,24.452,35.423c2.193,2.876,4.593,5.564,7.208,8.135c5.658,5.554,12.812,9.337,19.637,13.521
	l-0.672,2.19C116.683,163.507,114.651,162.194,112.742,161.309z"/>
<path d="M152.462,16.726c1.022,0.165,1.732,0.597,1.547,1.662c-0.208,1.23-0.178,2.367,1.011,3.165
	c3.437-1.648,5.326-4.771,8.171-7.015c14.757-11.648,29.887-12.073,45.547-3.462c4.687,2.579,10.301,3.489,14.48,6.772
	c0.897,0.78,1.929,1.327,3.555,1.558c0.875-1.442-1.777-3.396,0.771-4.519C216.68,6.312,204.505,0.278,189.295-0.046
	c-9.131-0.197-17.623,1.995-25.248,6.785C159.673,9.486,155.074,12.22,152.462,16.726z"/>
<path d="M183.366,38.084c0.876,0.154,1.766,0.267,2.631,0.463c2.711,0.614,2.72,0.747,0.345,2.889
	c3.08,0.635,3.938-1.063,4.263-3.345c0.329-2.321,0.67-4.572,2.229-6.688c1.905-2.581,4.092-4.451,7.63-4.552l0.182-0.459
	c-3.165-3.584-6.623-0.856-9.654,0.404c-2.48,1.032-4.681,2.889-5.892,5.342C184.219,34.061,183.137,35.947,183.366,38.084z"/>
<path fill="#753D24" d="M233.835,83.781c-2.582,8.632-5.885,17.1-7.999,25.838c-2.798,11.563-5.421,23.16-10.125,34.38
	c-5.141,12.262-9.769,24.677-15.324,36.814c-3.021,4.527-7.312,7.743-12.003,10.925c-8.015,5.438-16.003,5.823-24.586,3.095
	c-3.323-1.057-6.811-1.507-10.348-1.921c-8.323-0.971-16.58-2.273-24.86-3.444c-8.56-1.21-16.165-4.771-24.284-7.053
	c-7.237-2.041-13.164-5.892-18.775-10.177c-8.434-6.448-15.07-14.348-21.753-22.227c-3.18-3.747-4.96-8.108-7.261-12.254
	c-1.93-3.481-3.221-3.379-6.469-0.056c-1.118,1.096-2.017,2.248-2.718,3.454c-1.83-6.511-4.089-12.853-7.403-18.709
	c1.247-7.898-0.16-16.257-3.365-23.182c-2.065-4.463-4.709-8.475-7.864-11.989c1.056-3.056,2.055-6.085,2.883-9.073
	c3.353,0.676,6.571,1.691,9.469,3.285c7.737,4.26,13.907,10.126,19.905,16.137c0.73,0.729,1.295,1.608,1.828,2.475
	c9.203,14.951,19.577,29.218,30.534,43.079c6.327,8.009,14.775,14.197,25.267,17.785c9.232,3.81,18.394,7.695,28.477,9.762
	c8.347,1.712,15.476,0.024,22.191-5.165c4.46-3.442,7.813-7.664,11.696-11.513c7.006-6.938,12.432-14.633,15.721-23.435
	c2.685-7.188,4.873-14.52,7.824-21.629c5.9-14.21,9.214-28.69,9.484-43.637c0.188-10.404,0.009-20.724-3.592-30.585
	c-0.282-0.772-0.536-1.632,0.604-2.166c2.218-0.233,3.482,2.739,6.014,1.272c1.016-1.972-1.31-3.958,0.346-5.792
	c2.445-0.077,3.715,2.67,5.817,1.697c2.446-1.131,0.302-3.426,0.99-5.131c0.066-0.161,0.072-0.336,0.129-0.503
	c0.524-1.596,1.688-1.894,2.968-1.001c0.836,0.582,1.62,1.445,1.941,2.344c1.3,3.66,2.945,7.187,4.015,10.946
	c3.274,11.515,3.973,23.263,2.995,35.257C235.869,75.797,235.034,79.772,233.835,83.781z"/>
<path fill="#FFAA81" d="M183.366,38.084c2.317-0.667,2.672-2.668,3.638-4.252c2.292-2.349,2.625-5.878,5.892-7.633
	c1.726-0.987,3.597-1.382,5.571-1.341c1.432-0.264,2.786,0.484,4.229,0.064c2.651,2.041,5.758,3.289,9.025,4.265
	c0.317-0.564,0.617-0.86,0.617-1.141c0.024-5.632,0.014-5.628,5.762-3.212c0.303,0.127,0.712,0.057,1.297,0.094
	c0.323-1.793,0.587-3.609,0.984-5.405c0.307-1.372,1.165-2.161,2.83-1.673c0.892-1.739-0.506-2.605-1.683-3.255
	c-8.898-4.928-17.639-10.047-28.445-11.613c-14.827-2.149-29.151,5.277-37.353,16.623c-0.401,0.555-0.487,1.295-0.719,1.949l0.016,0
	c1.645,0.36,3.137,0.062,4.432-1.049c2.351-2.331,4.866-4.482,7.915-6.069c1.166-0.607,2.26-1.356,3.665-1.338
	c1.163,0.019,2.357,0.142,2.805,1.223c0.531,1.299-0.737,1.811-1.711,2.287c-5.839,2.848-9.254,7.542-12.995,12.988
	c3.521,0.065,5.359-1.514,7.055-2.96c3.391-2.904,7.381-5.043,11.032-7.605c0.753-0.531,1.596-0.985,2.454-1.351
	c1.282-0.548,2.646-0.802,3.458,0.5c0.659,1.056-0.073,1.852-0.969,2.657c-3.276,2.941-6.423,6.005-9.748,8.898
	c-1.869,1.625-3.519,3.197-3.034,6.048c2.467-0.561,3.864-2.101,5.31-3.69c2.077-2.288,4.287-4.478,6.456-6.694
	c1.146-1.169,2.53-1.775,3.977-0.763c1.61,1.119,1.563,2.614,0.161,3.983c-1.611,1.57-2.671,3.374-3.607,5.291
	C180.704,35.926,181.527,37.159,183.366,38.084z"/>
<path d="M202.696,24.92c-0.999-0.916-2.162-1.476-3.694-1.25c-2.411,0.078-4.765,0.38-6.83,1.769
	c-2.648,2.362-4.436,5.132-5.168,8.395c1.115,0.016,1.666-0.641,2.033-1.472c2.151-4.895,6.256-6.482,11.606-5.967
	C201.328,25.903,202.014,25.413,202.696,24.92z"/>
<path d="M192.174,25.438c2.276-0.589,4.553-1.18,6.828-1.768C196.473,23.304,194.171,23.799,192.174,25.438z"/>
</svg>
