<?xml version="1.0" encoding="utf-8"?>
<!-- Generator: Adobe Illustrator 16.0.0, SVG Export Plug-In . SVG Version: 6.00 Build 0)  -->
<!DOCTYPE svg PUBLIC "-//W3C//DTD SVG 1.1//EN" "http://www.w3.org/Graphics/SVG/1.1/DTD/svg11.dtd">
<svg version="1.1" id="Layer_1" xmlns="http://www.w3.org/2000/svg" xmlns:xlink="http://www.w3.org/1999/xlink" x="0px" y="0px"
	 width="300px" height="200px" viewBox="0 0 300 200" enable-background="new 0 0 300 200" xml:space="preserve">
<path d="M130.624,193.906c-3.439-1.198-5.776-3.783-7.823-6.572c-10.69-14.536-20.53-29.646-29.323-45.389
	c-3.621-6.486-6.403-13.467-9.247-20.352c-2.399-5.803-5.533-11.187-8.699-16.55c-8.303-14.063-12.476-29.226-12.676-45.531
	c-0.058-4.675-0.627-9.365-0.371-14.016c0.369-6.716,0.944-13.472,4.215-19.601c1.464-0.852,2.989-0.876,4.563-0.355
	c4.3,0.058,7.249,3.695,11.777,4.064c2.605,0.212,4.753,0.324,7.07-0.65c1.104-0.058,1.941,0.471,2.665,1.235
	c0.285,0.425,0.476,0.885,0.558,1.391c-5.295,9.57-4.328,19.652-2.829,29.93c2.468,16.912,8.017,32.753,16.979,47.167
	c5.86,9.424,10.222,19.719,17.042,28.553c4.493,5.824,9.876,10.613,15.976,14.727c5.023,3.389,9.724,7.143,15.584,9.225
	c4.479,1.594,8.45,1.028,12.562-0.828c7.498-3.386,14.164-8.041,20.514-13.194c1.207-0.979,2.232-2.214,3.895-2.466
	c1.424-0.26,1.963,0.646,2.344,1.768c0.39,2.292-1.308,3.501-2.692,4.717c-7.071,6.208-14.754,11.605-23.317,15.481
	c-6.31,2.856-13.179,2.636-19.168-0.611c-14.798-8.026-27.953-18.006-36.111-33.375c-6.658-12.542-15.036-24.13-20.54-37.339
	C87.844,81.596,84.4,67.349,83.376,52.546c-0.42-6.075-2.012-8.579-7.823-10.102c-6.002-1.572-6.515-1.155-6.872,5.153
	c-1.272,22.425,5.022,42.84,16.582,61.795c3.275,5.371,5.651,11.155,8.12,16.859c8.952,20.68,21.615,39.122,34.064,57.708
	C128.856,187.161,132.857,189.539,130.624,193.906z"/>
<path d="M250.42,107.552c-1.018,0.732-2.313,1.105-2.973,2.304c0.772,5.895-2.637,10.57-4.502,15.709
	c-3.149,8.682-8.104,16.356-13.028,24.061c-4.052,6.34-8.901,11.93-15.317,15.973c-7.303,4.606-14.139,9.928-22.059,13.588
	c-4.568,2.114-9.482,3.323-13.896,5.746c-6.811,3.734-13.627,7.469-20.362,11.34c-2.757,1.586-5.529,2.846-8.755,2.858
	c-7.252,1.679-12.711-3.112-18.908-5.239l0.006,0.017c-0.335-1.978-1.63-3.22-3.193-4.314c-1.367-0.958-2.905-1.895-2.176-4.019
	c2.297-0.803,4.029,0.507,5.751,1.632c10.001,6.528,19.771,7.935,30.388,0.651c6.68-4.58,14.916-6.406,22.334-9.746
	c20.211-9.096,37.83-21.313,47.875-41.834c4.006-8.18,8.682-16.239,10.021-25.526c0.278-1.915,0.869-3.718,2.063-5.265
	c1.03-1.334,2.428-1.975,4.108-1.668C249.84,104.193,250.754,105.456,250.42,107.552z"/>
<path d="M134.044,10.309c0.788,0.906,1.716,1.727,2.34,2.733c1.583,2.553,1.497,3.354-1.238,4.927
	c-1.979,1.138-2.732,1.859-1.55,4.319c2.608,5.424,1.341,6.979-4.862,6.747c-0.681-0.024-1.381-0.204-1.976,0.31
	c-0.118,0.304-0.385,0.635-0.333,0.905c1.169,6.006-0.771,7.84-6.864,6.399c-1.166-0.275-2.619-1.091-3.158,0.444
	c-1.273,3.633-4.476,4.518-7.46,5.797c-1.51,0.867-2.789,0.272-3.265-1.104c-0.847-2.456,1.49-3.404,2.753-4.829
	c1.791-2.854-0.673-4.039-2.228-5.501c-2.059-1.935-3.454-3.969-1.416-6.688c2.261-3.013,4.916-1.375,6.805,0.124
	c1.945,1.542,4.296,2.472,5.609,3.839c-2.938-1.638-5.797-4.491-9.526-5.961c-2.466-0.974-3.074-2.764-2.159-4.992
	c0.918-2.229,2.851-3.083,5.133-2.323c4.685,1.563,9.586,2.663,12.499,5.069c-1.34-1.003-3.98-2.383-6.837-3.274
	c-2.657-0.83-4.469-2.29-3.65-5.253c0.911-3.298,3.608-4.142,6.597-3.442c3.461,0.808,6.364,2.911,9.281,4.866
	c0.519,0.188,0.991,0.075,1.378-0.351c0.177-0.348,0.362-0.663,0.513-1.016C131.011,10.157,132.201,9.54,134.044,10.309z"/>
<path d="M199.391,145.721c6.758-5.9,12.209-12.957,15.775-21.089c6.959-15.871,12.178-32.422,18.178-48.669
	c4.469-12.078,10.84-23.12,22.426-29.845c-0.818-1.585-1.598-3.169-2.305-4.757c-13.089,7.982-21.564,19.938-26.475,34.327
	c-4.695,13.751-9.057,27.612-14.479,41.109c-1.361,3.389-2.943,6.635-4.744,9.811c-3.896,6.869-9.494,12.313-14.718,18.084
	l1.056,2.035C196.33,148.836,197.869,147.05,199.391,145.721z"/>
<path d="M134.044,10.309c-0.878,0.403-1.417,0.999-1.035,2.023c0.441,1.182,0.649,2.326-0.248,3.399
	c-3.406-0.852-5.737-3.535-8.738-5.121c-15.573-8.226-29.154-5.14-41.338,7.11c-3.648,3.667-8.465,5.88-11.514,10.134
	c-0.64,0.988-1.447,1.775-2.85,2.386c-1.078-1.24,0.882-3.811-1.623-4.343c7.916-11.1,17.524-19.96,31.025-23.815
	c8.104-2.315,16.132-2.093,23.921,0.929C126.115,4.742,130.782,6.409,134.044,10.309z"/>
<path d="M110.903,38.848c-0.751,0.357-1.521,0.678-2.252,1.072c-2.292,1.244-2.272,1.38,0.29,2.971
	c-2.616,1.349-3.731-0.149-4.493-2.357c-0.773-2.244-1.545-4.417-3.373-6.172c-2.231-2.141-4.567-3.503-7.743-2.783l-0.259-0.417
	c2.08-4.319,5.731-2.394,8.694-1.835c2.424,0.457,4.772,1.804,6.36,3.976C109.308,35.021,110.663,36.656,110.903,38.848z"/>
<path fill="#753D24" d="M75.346,96.274c4.089,8.033,8.786,15.738,12.481,23.99c4.886,10.916,9.628,21.91,16.144,32.041
	c7.122,11.073,13.819,22.418,21.286,33.27c3.631,3.826,8.125,6.049,12.965,8.145c8.275,3.577,15.48,2.107,22.569-2.611
	c2.745-1.828,5.762-3.088,8.831-4.322c7.224-2.902,14.315-6.122,21.46-9.217c7.385-3.196,13.43-8.521,20.197-12.692
	c6.035-3.724,10.522-8.948,14.641-14.537c6.188-8.407,10.473-17.853,14.803-27.284c2.063-4.486,2.745-9.265,3.939-13.947
	c1.001-3.931,2.176-4.125,5.758-1.555c1.225,0.838,2.266,1.781,3.141,2.824c0.284-6.938,0.986-13.805,2.73-20.433
	c-2.746-7.612-3.223-16.301-1.797-23.971c0.918-4.944,2.445-9.572,4.533-13.819c-1.574-2.812-3.092-5.611-4.449-8.406
	c-2.85,1.454-5.51,3.215-7.766,5.484c-6.021,6.058-10.308,13.358-14.414,20.763c-0.498,0.897-0.82,1.907-1.117,2.899
	c-5.115,17.089-11.414,33.769-18.318,50.182c-3.986,9.477-10.24,17.627-18.855,23.65c-7.444,5.955-14.813,11.967-23.379,16.373
	c-7.09,3.651-13.797,3.615-20.858-0.015c-4.69-2.408-8.554-5.854-12.816-8.802c-7.682-5.315-14.115-11.754-18.869-19.792
	c-3.882-6.57-7.352-13.396-11.454-19.821c-8.203-12.846-14.155-26.561-17.488-41.45c-2.321-10.363-4.299-20.729-3.125-31.429
	c0.093-0.837,0.14-1.758-0.989-2.026c-2.025,0.282-2.538,3.547-5.1,2.669c-1.315-1.737,0.349-4.262-1.507-5.713
	c-2.195,0.489-2.763,3.532-4.839,3.046c-2.413-0.563-0.979-3.357-1.945-4.902c-0.093-0.146-0.135-0.319-0.218-0.473
	c-0.801-1.476-1.897-1.505-2.856-0.314c-0.625,0.775-1.146,1.821-1.246,2.795c-0.403,3.963-1.141,7.874-1.318,11.883
	c-0.533,12.28,1.27,24.191,4.627,35.961C71.878,88.758,73.446,92.542,75.346,96.274z"/>
<path fill="#753D24" d="M110.903,38.848c-2.208-0.129-2.937-2.049-4.125-3.409c-2.527-1.817-3.559-5.27-6.835-6.268
	c-1.744-0.588-3.492-0.549-5.245-0.049c-1.331,0.067-2.387,1.13-3.761,1.046c-1.94,2.655-4.454,4.623-7.167,6.36
	c-0.401-0.492-0.73-0.718-0.787-0.997c-1.187-5.63-1.177-5.628-5.803-1.878c-0.244,0.197-0.623,0.224-1.14,0.396
	c-0.659-1.72-1.268-3.476-1.996-5.177c-0.556-1.301-1.485-1.893-2.871-1.017c-1.154-1.533-0.088-2.726,0.825-3.648
	c6.917-6.992,13.655-14.144,22.966-18.219c12.78-5.59,27.092-1.485,36.753,7.96c0.475,0.463,0.702,1.183,1.044,1.782l-0.014,0.005
	c-1.394,0.74-2.784,0.788-4.17-0.022c-2.58-1.786-5.268-3.352-8.314-4.234c-1.166-0.336-2.295-0.831-3.549-0.487
	c-1.032,0.287-2.073,0.689-2.247,1.873c-0.207,1.423,1.03,1.64,1.999,1.892c5.797,1.494,9.813,5.397,14.281,9.978
	c-3.126,0.883-5.096-0.271-6.904-1.325c-3.627-2.119-7.627-3.33-11.413-5.046c-0.782-0.356-1.627-0.616-2.47-0.782
	c-1.257-0.25-2.525-0.188-2.98,1.304c-0.372,1.208,0.448,1.835,1.413,2.433c3.53,2.182,6.971,4.517,10.536,6.638
	c2.002,1.191,3.799,2.381,3.956,5.346c-2.317,0.013-3.881-1.205-5.5-2.458c-2.325-1.807-4.748-3.486-7.143-5.198
	c-1.263-0.902-2.624-1.188-3.706,0.159c-1.2,1.493-0.852,2.978,0.682,4.022c1.763,1.198,3.08,2.756,4.313,4.456
	C112.829,36.071,112.35,37.496,110.903,38.848z"/>
<path d="M90.936,30.169c0.702-1.15,1.625-1.982,3.037-2.11c2.167-0.481,4.328-0.726,6.457,0.184
	c2.853,1.749,5.019,4.106,6.349,7.197c-0.993,0.276-1.619-0.254-2.12-1.001c-2.931-4.397-6.919-5.032-11.587-3.275
	C92.358,30.832,91.648,30.501,90.936,30.169z"/>
<path fill="#753D24" d="M128.577,15.713c1.39,0.008,2.78,0.016,4.17,0.021C131.352,16.813,129.963,16.734,128.577,15.713z"/>
<path d="M100.429,28.242c-2.153-0.061-4.304-0.122-6.457-0.184C96.153,27.105,98.308,27.066,100.429,28.242z"/>
<rect x="68.568" y="29.448" transform="matrix(0.939 0.3439 -0.3439 0.939 16.8995 -24.603)" fill="#753D24" width="18.495" height="11.795"/>
<rect x="107.833" y="8.917" fill="#753D24" width="15.667" height="24.833"/>
<rect x="103.79" y="14.75" fill="#753D24" width="10.127" height="16.417"/>
<rect x="118.333" y="10.75" fill="#753D24" width="8.167" height="11.5"/>
<rect x="120.771" y="12.375" fill="#753D24" width="8.167" height="11.5"/>
</svg>
