<?xml version="1.0" encoding="utf-8"?>
<!-- Generator: Adobe Illustrator 16.0.0, SVG Export Plug-In . SVG Version: 6.00 Build 0)  -->
<svg version="1.2" baseProfile="tiny" id="Layer_1" xmlns="http://www.w3.org/2000/svg" xmlns:xlink="http://www.w3.org/1999/xlink"
	 x="0px" y="0px" width="200px" height="300px" viewBox="0 0 200 300" xml:space="preserve">
<path d="M180.402,2.13c-4.187-0.65-8.398-1.103-12.658-1.424c-1.622-0.122-3.243-0.189-4.863-0.243
	c-0.201,1.687-0.79,3.313-1.779,4.667c6.162,0.182,12.27,0.636,18.318,1.53C179.767,5.154,180.091,3.644,180.402,2.13z"/>
<path d="M80.103,300.909c1.048-0.456,2.098-0.907,3.139-1.378c6.968-3.146,13.89-6.557,21.654-7.413
	c0.797-0.09,1.432-0.361,1.974-0.94c4.254-4.55,9.625-6.147,15.709-6.931c3.242-0.42,6.221-0.268,9.034,0.449
	c0.422-1.597,1.421-3.06,3.131-4.187c-8.672-2.975-17.842-1.593-26.558,4.18c-1.756,1.165-3.348,2.643-5.415,3.251
	c-8.661,2.554-16.892,6.168-25.145,9.785C78.579,298.717,79.41,299.774,80.103,300.909z"/>
<path d="M158.803,262.372c0.78-0.797,1.576-1.562,2.397-2.287c-0.972-1.212-1.864-2.508-2.671-3.866
	c-0.581-0.974-1.73-2.734-0.011-3.576c2.258-1.105,2.274-3.004,2.443-4.916c0.667-7.552,2.742-14.761,5.178-21.892
	c3.237-9.491,5.269-19.142,4.563-29.293c-0.481-6.897-0.481-13.83-0.581-20.753c-0.13-9.006-0.015-18.017-0.255-27.02
	c-0.201-7.538,0.242-15.077,0.008-22.595c-0.37-11.788,0.368-23.522,0.893-35.272c0.113-2.544,0.244-5.107,0.834-7.613
	c-0.374-0.864-0.642-1.817-0.77-2.866c-0.167-1.39-0.204-2.751-0.138-4.092c-2.416,3.171-3.978,7.168-4.335,12.331
	c-0.842,12.204-1.005,24.384-1.23,36.572c-0.141,7.542-1.877,15.051-0.863,22.573c1.06,7.835,0.681,15.667,0.754,23.503
	c0.057,6.174-0.079,12.476,0.678,18.484c2.602,20.698-6.425,39.004-10.954,58.216c-0.586,2.475-0.96,4.533-0.15,6.927
	C155.578,257.855,157.016,260.29,158.803,262.372z"/>
<path d="M27.237,76.785c2.451,0.285,3.689,1.801,3.792,4.274c0.069,1.7,0.686,3.172,1.21,4.747c0.896,2.704,2.183,5.239,3.144,7.87
	c3.519,9.618,5.508,19.681,7.908,29.623c1.384,5.738,1.927,11.574,2.68,17.4c1.296,10.007,2.985,19.954,2.556,30.118
	c-0.167,3.923-0.612,7.819-0.783,11.729c-0.54,12.325-0.976,24.623-2.826,36.876c-1.448,9.578-4.1,18.829-6.543,28.12
	c-1.714,6.522-3.955,12.943-5.745,19.469c-0.743,2.705-1.828,5.175-3.282,7.489c0.898,0.399,1.793,0.8,2.689,1.206
	c2.713-4.789,4.917-9.874,6.53-15.423c3.238-11.146,6.518-22.276,9.167-33.567c3.779-16.106,3.545-32.646,4.605-49.013
	c1.408-21.729-2.71-42.949-7.009-64.134c-2.294-11.302-7.197-21.748-9.982-32.875c-0.708-2.839-2.365-5.611-5.694-6.528
	c-0.977,0.255-2.194,0.243-2.668,1.045c0.065,0.432,0.13,0.863,0.195,1.295C27.206,76.597,27.212,76.695,27.237,76.785z"/>
<path stroke="#000000" stroke-miterlimit="10" d="M45.192,11.331c-0.864,0.455-1.65,0.717-2.326-0.265
	c-2.122,1.097-4.271,2.148-6.362,3.303c-4.875,2.695-9.415,5.839-13.38,9.808c-6.549,6.558-10.957,14.218-14.143,22.496
	c0.149,0.333,0.314,0.644,0.439,1.008c0.535,1.549,1.272,2.962,2.107,4.308c1.954-6.082,4.004-12.155,8.01-17.376
	c3.649-4.756,6.507-10.325,12.123-13.096c5.67-2.801,10.658-6.831,16.668-8.987c0.953-0.34,2.012-0.796,2.009-2.135
	C48.469,9.858,46.801,10.484,45.192,11.331z"/>
<path fill="#753D24" d="M171.17,61.379c0.023-0.085,0.057-0.162,0.082-0.247c-0.199-0.626-0.357-1.273-0.421-1.966
	c-0.424-4.746,0.038-9.253,1.054-13.613c-0.909-1.778-1.26-3.928-0.715-6.374c2.529-11.355,6.009-22.472,8.551-33.807
	c-2.182-0.336-4.383-0.604-6.621-0.746c-7.31-0.464-14.606-0.715-21.913-1.087c-0.489,2.607-0.811,4.988-1.398,7.3
	c-1.348,5.294-2.644,10.523-0.01,15.846c0.813,1.638-0.469,2.719-1.86,2.947c-3.506,0.575-4.047,3.086-4.283,5.905
	c-0.1,1.201,0.007,2.445-0.265,3.602c-0.491,2.089-1.986,2.767-4.076,2.055c-3.474-1.183-3.474-1.183-4.663,2.73
	c-0.723,2.379-2.805,3.065-4.868,1.586c-0.649-0.464-0.819-1.762-2.068-1.162c-0.694,1.345,0.281,3.526-2.104,4.03
	c-1.868,0.394-2.719-0.883-3.688-2.038c-1.16-1.38-2.678-2.189-4.19-2.929c-1.319,1.578-1.369,3.294-1.789,4.881
	c-0.355,1.343-1.389,1.986-2.555,2.32c-1.518,0.435-1.569-1.028-2.044-1.867c-0.431-0.757-0.61-1.728-1.764-1.731
	c-2.465,4.894-2.861,4.95-6.899,0.991c-0.226,0.152-0.513,0.259-0.661,0.467c-0.167,0.234-0.164,0.587-0.318,0.839
	c-1.754,2.877-2.917,2.959-4.927,0.252c-0.702-0.944-1.097-2.145-2.444-2.362c-1.005,0.855-1.417,3.179-3.423,1.298
	c-0.229-0.732-0.642-1.353-1.165-1.904c-6.18-6.517-11.539-13.709-18.393-19.733c-3.637-3.197-7.111-7.175-10.45-10.995
	c-2.38-2.722-4.781-5.909-8.844-6.581c-0.565,0.37-1.132,0.74-1.698,1.109c-5.051,1.962-9.781,4.54-14.328,7.47
	c-0.881,0.567-1.79,1.057-2.765,1.49c-3.474,1.541-6.486,3.622-8.813,6.815c-2.442,3.351-5.12,6.473-7.263,10.099
	c-2.069,3.5-3.972,6.888-5.175,10.839c-0.382,1.253-0.741,2.521-1.098,3.792c2.936,5.331,7.844,9.331,11.525,14.181
	c1.611,1.196,2.816,2.982,3.225,5.409c0.352,0.829,0.634,1.706,0.877,2.608c0.709,0.054,1.605,0.608,2.858,1.689
	c3.118,2.161,5.146,4.952,5.362,8.895c0.135,2.444,1.075,4.693,2.107,6.882c1.869,3.964,3.249,8.102,4.405,12.316
	c3.625,13.217,6.416,26.621,7.926,40.233c0.598,5.387,1.903,10.652,2.095,16.114c0.612,17.377-1.606,34.625-2.137,51.945
	c-0.02,0.594-0.239,1.179-0.352,1.771c-1.324,6.935-2.548,13.889-4.003,20.794c-0.958,4.551-2.115,9.069-3.433,13.527
	c-1.36,4.601-3.062,9.099-4.541,13.663c-1.595,4.924-2.611,10.054-5.397,14.499c7.182,3.235,14.3,6.665,21.704,9.522
	c7.494,2.893,19.412,6.636,25.43,13.784c4.07-1.923,8.118-3.908,12.398-5.42c7.141-2.522,14.755-4.18,20.736-9.405
	c1.087-0.951,2.627-1.532,4.06-1.919c6.278-1.699,12.413-2.704,18.281-0.95c0.522-0.427,1.096-0.828,1.792-1.169
	c1.381-2.268,3.718-3.973,7.004-4.308c3.956-3.175,7.409-7.002,11.811-9.737c0.604-0.374,1.206-0.69,1.811-1.014
	c0.521-0.546,1.034-1.081,1.569-1.655c0.508-0.546,1.043-1.046,1.569-1.562c-2.165-2.665-3.578-5.847-4.598-9.276
	c-0.295-0.988-0.663-2.471,0.355-2.935c2.706-1.237,1.901-3.444,1.885-5.45c-0.015-1.689,0.312-3.28,0.849-4.875
	c1.963-5.854,4.065-11.671,5.739-17.606c1.961-6.949,3.497-14.012,3.299-21.321c-0.264-9.744-0.522-19.486-0.751-29.229
	c-0.152-6.478-0.064-12.963-0.429-19.426c-0.311-5.571-0.43-11.103-0.05-16.675c0.414-5.998,0.869-12.027,0.688-18.024
	c-0.158-5.229-0.431-10.495-0.01-15.66c0.438-5.388,1.13-10.774,1.525-16.181c0.188-2.563,0.563-5.163,2.564-7.042
	c0.011-0.009,0.019-0.017,0.027-0.025c-0.038-3.204,0.543-6.275,1.465-9.271C170.9,66.63,170.411,64.157,171.17,61.379z"/>
<path d="M107.312,241.159c-2.032,0.619-1.9-2.213-3.85-2.178c-1.052,0.391-1.036,1.796-1.633,2.759
	c-1.426,2.308-1.536,2.394-3.874,0.634c-1.017-0.766-1.479-0.909-2.524,0.184c-2.065,2.157-2.365,2-3.952-0.313
	c-0.584-0.851-0.845-1.963-1.939-2.403c-1.839,0.077-2.336,2.742-4.069,2.441c-1.751-0.308-1.738-2.667-3.036-3.693
	c-0.23-0.182-0.51-0.299-0.946-0.548c-1.693,0.845-2.804,2.759-5.294,2.722c-6.68-0.099-10.784-2.872-12.282-9.596
	c-1.144-5.127-2.25-10.277-3.092-15.485c-0.567-3.493-0.089-6.902-0.238-10.343c-0.581-13.397-1.099-26.771,1.343-40.132
	c2.52-13.791,3.584-27.792,4.841-41.758c0.96-10.671,2.794-21.338,6.729-31.276C76.452,84.71,80.3,77.334,87.167,72.31
	c0.366-0.267,0.653-0.662,1.046-0.863c4.729-2.413,5.18-2.895,7.3,2.237c0.565,1.37,1.083,2.758,1.733,4.422
	c2.041-0.616,2.845-2.218,3.894-3.602c1.574-2.077,2.332-2.02,3.71-0.097c0.92,1.28,0.646,3.725,2.706,3.775
	c1.829,0.042,2.326-2.145,3.409-3.328c2.211-2.421,2.141-2.479,4.529-0.001c0.524,0.542,1.078,1.058,1.641,1.563
	c1.233,1.107,2.004,0.714,2.803-0.65c2.949-5.03,3.014-5.04,7.433-1.483c1.028,0.83,2.378,1.388,2.889,2.777
	c0.013,2.267-1.407,1.669-2.634,1.264c-1.068-0.354-1.864-1.402-3.131-1.251c-1.813,0.353-2.381,2.81-3.858,2.931
	c-4.951,0.404-10.105-0.708-14.619,2.386c-2.655-2.255-5.052-1.717-8.074-0.186c-2.781,1.409-4.124-1.481-5.285-3.625
	c-2.219-4.093-2.916-4.37-6.029-0.887c-6.976,7.806-11.625,16.916-13.231,27.291c-3.851,24.866-6.083,49.95-9.929,74.822
	c-1.096,7.081,0.708,14.121,0.724,21.198c0.015,6.621-0.417,13.264,0.91,19.845c0.755,3.739,2.001,7.288,3.788,10.614
	c2.709,5.039,6.171,5.927,11.083,3.054c0.786-0.46,1.763-1.363,2.432-0.901c2.758,1.906,5.77,2.073,8.965,2.401
	c1.65,0.172,3.027,1.76,5.116,0.552c1.09-0.631,2.08,0.861,3.051,1.521c1.289-2.186,1.408-6.357,5.709-3.323
	C107.295,236.455,110.476,237.788,107.312,241.159z"/>
<path d="M124.479,75.577c1.516-0.188,2.357,0.893,3.311,1.762c0.93,0.849,1.769,0.911,2.469-0.278
	c2.874,2.423,4.291,5.597,5.407,9.156c1.931,6.159,4.24,12.187,5.511,18.554c0.479,2.389,0.797,4.734,0.766,7.158
	c-0.167,13.091-0.663,26.187,0.056,39.273c0.348,6.313,0.797,12.621,0.355,18.936c-0.605,8.668-0.445,17.496-2.798,25.882
	c-1.305,4.646-2.728,9.479-5.823,13.54c-2.987,3.923-4.063,9.07-7.836,12.545c-4.83,4.447-8.697,10.06-15.153,12.532
	c-1.34,0.514-1.729,1.485-1.729,2.834c0,1.454,0.341,3.146-1.704,3.688c2.001-3.16-0.912-3.975-2.574-5.388
	c0.646-2.107,1.728-3.886,3.906-4.663c7.182-2.563,12.221-8.062,16.395-13.804c7.033-9.677,12.114-20.341,12.94-32.772
	c0.811-12.21,0.867-24.339,0.002-36.548c-0.788-11.119,0.057-22.299-0.138-33.454c-0.195-10.973-4.047-20.923-8.085-30.852
	C128.525,80.646,124.529,79.396,124.479,75.577z"/>
<path fill="#FFAA81" d="M124.479,75.577c5.748,4.68,8.159,11.228,10.486,17.967c2.884,8.353,4.522,16.757,4.186,25.655
	c-0.605,15.945,0.573,31.882,0.805,47.827c0.111,7.389-0.25,14.759-1.076,22.091c-0.861,7.62-4.456,14.283-7.635,21.122
	c-3.618,7.786-10.021,13.065-15.894,18.859c-0.528,0.521-1.185,0.966-1.86,1.272c-1.636,0.748-3.267,1.723-4.997,2.003
	c-2.168,0.351-1.481,3.45-3.756,3.4c-0.889-1.241-1.727-2.238-2.986-0.27c-0.817,1.279-0.42,3.028-1.877,4.266
	c-0.974-1.037-1.947-2.071-2.812-2.991c-2.138,0.262-1.696,2.485-2.948,3.261c-0.168-0.066-0.364-0.081-0.441-0.184
	c-3.152-4.245-3.151-4.247-7.59-1.438c-1.747-0.893-1.697-3.142-2.577-3.856c-1.068-0.673-1.603-0.493-1.823-0.175
	c-2.066,2.974-4.933,3.774-8.297,3.026c-3.296-0.733-5.043-3.363-6.25-6.109c-3.122-7.101-4.492-14.587-4.333-22.383
	c0.125-6.179,0.02-12.361-0.524-18.535c-0.925-10.484,1.098-20.763,2.804-30.997c1.565-9.384,2.136-18.854,3.385-28.25
	c1.37-10.301,2.368-20.678,4.7-30.829c1.918-8.367,6.13-15.655,11.335-22.386c0.912-1.18,2.076-2.189,3.23-3.151
	c3.104-2.586,3.72-2.379,5.32,1.491c0.576,1.39,1.188,2.775,1.906,4.095c0.96,1.768,2.248,1.794,3.665,0.476
	c1.207-1.121,2.182-2.507,3.689-3.28c0.276,0.169,0.616,0.258,0.755,0.476c3.225,5.006,4.025,5.066,7.663,0.54
	c1.84-2.287,1.884-2.339,4.427-0.185c1.329,1.127,2.613,2.087,4.454,1.438c1.484-0.524,1.906-1.854,2.249-3.179
	C122.268,75.056,123.104,74.707,124.479,75.577z"/>
<path fill="none" stroke="#000000" stroke-miterlimit="10" d="M41.879,10.515c7.945,0,14.333-1.301,21.151-3.886
	c7.299-2.765,13.017-2.706,20.89-2.727c7.872-0.021,15.745,0,23.618,0c7.953,0,13.918-2.409,21.729-2.834
	c5.802-0.316,11.17-1.195,16.508-0.921c5.9,0.303,11.399,1.35,17.502,1.394"/>
<g>
	<path fill="#753D24" d="M169.17,48.595c-16.537,1.531-32.219-7.086-48.729-2.405c-0.945,0.268-1.275,1.747-0.291,2.216
		c9.207,4.378,19.158,2.747,28.954,2.055c0.999-0.071,1.675-1.296,0.857-2.07c-8.463-7.998-20.761-7.27-31.561-8.385
		c-1.555-0.161-1.538,2.265,0,2.424c10.08,1.042,21.938,0.2,29.847,7.675c0.286-0.69,0.57-1.379,0.856-2.07
		c-9.253,0.655-19.009,2.423-27.729-1.724c-0.097,0.739-0.192,1.478-0.291,2.216c16.215-4.596,31.801,4,48.085,2.492
		C170.712,50.876,170.727,48.451,169.17,48.595L169.17,48.595z"/>
</g>
<g>
	<path fill="#753D24" d="M98.712,38.631c-8.048,2.801-16.248,5.016-24.713,6.097c-1.091,0.14-1.785,1.626-0.612,2.259
		c12.848,6.93,27.547,6.733,41.747,6.445c18.125-0.369,36.237-1.308,54.367-1.516c1.562-0.018,1.563-2.442,0-2.424
		c-16.616,0.191-33.216,1.014-49.824,1.419c-15.122,0.37-31.313,1.401-45.064-6.018C74.407,45.647,74.204,46.4,74,47.152
		c8.69-1.111,17.09-3.306,25.357-6.184C100.824,40.458,100.192,38.116,98.712,38.631L98.712,38.631z"/>
</g>
<g>
	<path fill="#753D24" d="M90.895,30.323c-0.649,0.26-1.255,0.596-1.819,1.011c-3.448,2.203-5.979,6.798-4.456,10.952
		c3.462,9.443,13.726,11.439,22.598,12.851c4.959,0.789,9.911,1.616,14.887,2.282c3.409,0.455,6.822,0.823,10.255,1.08
		c2.652,0.198,5.384-0.221,7.928,0.461c0-6.234,0-12.469,0-18.705c-7.84,1.533-16.264-0.814-24.235-0.25
		c-8.733,0.617-17.568,0.773-26.073,3.079c-4.163,1.128-7.121,5.051-7.121,9.352c0,4.765,4.444,10.388,9.699,9.698
		c6.529-0.856,12.925-3.039,19.486-3.418c5.963-0.346,12.589-0.555,17.737-3.967c5.795-3.843,6.753-13.124,0-16.749
		c-4.067-2.181-7.748-2.337-12.198-3.026c-4.841-0.749-9.604-2.04-14.37-3.157c-9.069-2.126-18.42-4.892-27.83-4.031
		c-4.354,0.398-8.128,2.672-9.351,7.12c-1.127,4.099,0.658,8.878,4.457,10.952c9.128,4.984,21.21,3.461,31.261,3.478
		c13.111,0.021,26.195-1.995,39.299-0.941c-0.857-6.35-1.719-12.7-2.577-19.05c-8.71,3.203-20.335,0.783-29.429-1.168
		c-6.216-1.333-12.358-2.67-18.707-3.22c-1.336-0.116-4.318-0.637-6.744-0.934c-3.12-0.383-6.095-0.311-9.169,0.472
		c-8.572,2.183-9.018,13.242-2.318,17.726c4.249,2.844,9.807,3.024,14.75,2.92c5.834-0.121,11.686-0.273,17.514-0.579
		c7.006-0.366,13.864-1.67,20.749-2.925c2.781-0.507,5.73-1.12,8.358-1.345c3.07-0.263,6.26-0.365,9.14-1.54
		c4.067-1.659,7.121-4.646,7.121-9.351c0-5.565-4.427-9.33-9.698-9.698c-3.142-0.22-6.306,0.563-9.341,1.312
		c-3.303,0.815-6.571,1.003-9.964,0.967c-7.879-0.085-15.777-1.496-23.664-1.82c-8.184-0.337-16.184,0.764-24.264,1.922
		c-7.606,1.092-15.208,1.253-22.88,1.256c-4.313,0-8.207,2.958-9.352,7.12c-1.269,4.612,1.533,11.167,6.773,11.93
		c18.045,2.625,36.085,2.924,54.237,1.249c9.441-0.872,18.849-2.255,28.175-3.949c4.375-0.794,8.743-1.668,13.065-2.721
		c3.956-0.963,7.468-1.827,11.559-1.304c-1.631-6.024-3.263-12.048-4.894-18.073c-0.896,0.553-0.886,0.587,0.031,0.102
		c-1.118,0.232-1.243,0.277-0.378,0.132c-1.421,0.146-2.868,0.104-4.293,0.088c-3.136-0.036-6.267,0.033-9.399-0.016
		c-8.824-0.137-17.381-0.45-26.195,0.393c-15.352,1.469-32.509,3.627-47.457-1.273c0.772,5.908,1.544,11.817,2.317,17.726
		c-0.69,0.277-0.44,0.235,0.749-0.127c-1.143,0.288,2.443-0.068,2.186-0.063c2.001-0.033,4.01,0.14,6.008,0.243
		c4.509,0.234,8.927,0.689,13.42,1.139c9.734,0.976,20.576-1.094,29.893-3.805c4.629-1.347,8.87-3.692,13.544-4.831
		c3.929-0.957,8.479-0.649,12.479-0.408c4.87,0.293,10.705,0.958,15.113-1.686c2.3-1.38,4.478-3.635,5.092-6.358
		c0.284-1.257,0.942-5,0.259-1.47c-0.094,0.246-0.188,0.491-0.282,0.736c0.931-1.495,0.561-1.141-1.111,1.062
		c-1.631,0.441-3.263,0.883-4.896,1.325c0.282,0.004,0.564,0.009,0.845,0.013c11.165,0.173,12.923-15.916,2.579-19.049
		c-6.025-1.826-12.325-1.483-18.482-0.673c-7.479,0.983-15.126,1.55-22.436,3.502c-12.09,3.228-6.98,21.721,5.154,18.703
		c4.113-1.022,8.116-2.37,12.375-2.481c12.484-0.329,12.526-19.299,0-19.396c-5.197-0.04-10.487-0.235-15.508,1.357
		c-11.878,3.766-6.804,22.494,5.154,18.705c3.139-0.996,6.652-0.692,10.354-0.664c0-6.465,0-12.931,0-19.396
		c-6.042,0.16-11.713,1.729-17.529,3.175c1.718,6.234,3.437,12.469,5.154,18.704c5.777-1.542,11.686-1.966,17.58-2.829
		c3.732-0.546,9.2-1.159,13.027,0c0.859-6.35,1.718-12.7,2.577-19.05c-4.577-0.071-7.938,2.124-10.572,5.662
		c-1.063,1.431-1.808,3.006-2.416,4.691c-0.198,0.434-0.328,0.886-0.389,1.358c-0.62,3.829-0.411,3.448,0.627-1.146
		c1.16-1.159,2.318-2.319,3.479-3.479c2.308-1.383-0.027-0.395-1.551-0.419c-1.86-0.029-3.727-0.259-5.585-0.371
		c-4.5-0.27-9.117,0.055-13.564,0.724c-4.311,0.647-8.024,2.344-12.056,3.891c-4.104,1.574-8.394,2.62-12.698,3.452
		c-8.371,1.615-16.274,0.888-24.659,0.104C70.123,14.847,61.601,14.436,54.324,18c-8.021,3.929-5.066,15.305,2.317,17.726
		c16.604,5.443,35.537,3.658,52.613,1.965c9.335-0.925,18.441-0.514,27.79-0.369c7.094,0.111,16.059,1.125,22.232-2.979
		c3.651-2.425,5.662-6.574,4.458-10.952c-1.254-4.562-4.991-6.563-9.351-7.121c-8.442-1.08-17.153,2.229-25.355,3.873
		c-8.076,1.617-16.215,2.899-24.4,3.794c-17.219,1.883-34.947,2.25-52.125-0.248c-0.859,6.35-1.718,12.699-2.578,19.049
		c7.51-0.001,14.934-0.185,22.387-1.17c7.749-1.024,15.33-2.182,23.175-2.054c7.934,0.13,15.842,1.121,23.74,1.811
		c4.331,0.377,8.719-0.249,12.992-0.879c2.764-0.408,6.028-1.468,7.817-1.344c-0.859-6.35-1.718-12.699-2.577-19.049
		c-3.675,1.499-9.735,1.54-14.578,2.366c-5.66,0.966-11.234,2.211-16.969,2.652c-5.374,0.413-10.773,0.347-16.155,0.564
		c-2.001,0.082-3.998,0.155-6.002,0.12c-0.187-0.003-3.356-0.429-1.295-0.059c-2.443-0.438,1.163,0.938-0.568-0.221
		c-0.772,5.909-1.544,11.817-2.317,17.726c-1.655,0.421,1.395-0.037,1.642-0.027c2.641,0.091-0.465-0.155,2.181,0.268
		c2.802,0.447,5.602,0.799,8.427,1.044c6.004,0.52,11.935,2.496,17.864,3.543c10.66,1.885,23.526,3.85,33.936,0.021
		c10.404-3.827,8.511-18.157-2.579-19.05c-11.535-0.927-23.006,0.636-34.532,0.894c-5.437,0.122-10.87-0.145-16.302-0.064
		c-2.228,0.033-4.447,0.054-6.674-0.047c-1.36-0.061-2.43-0.216-3.263-0.671c-1.631,6.024-3.264,12.048-4.895,18.073
		c7.344-0.672,14.345,1.311,21.417,3.035c4.201,1.025,8.412,2.033,12.646,2.912c2.337,0.485,4.694,0.814,7.059,1.126
		c1.592,0.21,2.691,0.065,3.486,0.491c0-5.583,0-11.166,0-16.749c-2.071,1.373,1.743-0.328-0.968,0.516
		c0.083-0.026-3.146,0.601-1.614,0.408c-2.401,0.301-4.832,0.352-7.246,0.512c-6.037,0.4-11.669,2.524-17.605,3.302
		c0.859,6.351,1.719,12.7,2.578,19.05c7.672-2.079,15.766-2.134,23.661-2.556c9.036-0.484,17.605,1.495,26.649-0.273
		c9.669-1.889,8.876-16.324,0-18.704c-5.228-1.4-10.675-0.932-16.015-1.389c-4.557-0.391-9.035-1.168-13.544-1.896
		c-3.193-0.515-6.387-0.968-9.552-1.642c-1.697-0.361-3.365-0.829-5.003-1.397c2.113,0.732,0.12,0.013-0.337-0.244
		c0.321,0.268,0.641,0.537,0.963,0.806c-1.199-1.22-0.745-0.342,1.365,2.636c-1.486,3.651-2.972,7.301-4.458,10.953
		c0.563-0.414,1.169-0.75,1.818-1.01c4.78-2.257,5.973-9.013,3.479-13.269C101.32,28.949,95.675,28.066,90.895,30.323L90.895,30.323
		z"/>
</g>
<g>
	<path fill="#753D24" d="M58.23,27.982c3.944,1.29,8.727,1.677,13.292,0.904c2.364-0.399,4.654-1.22,7-1.749
		c1.962-0.442,3.777,0.03,5.798,0.234c4.32,0.438,8.997,0.39,13.298-0.178c4.204-0.554,8.626-0.775,12.792-2.049
		c11.926-3.646,6.836-22.37-5.156-18.704c-3.238,0.99-4.75,0.845-8.947,1.492c-3.445,0.53-7.24,0.273-10.732,0.168
		c-1.765-0.054-3.62-0.439-5.422-0.533c-2.702-0.14-5.581,0.592-8.208,1.186c-1.397,0.315-3.117,1.08-4.426,1.046
		c-0.582-0.18-1.155-0.2-1.722-0.062c0.14,0.019-4.996-1.306-2.412-0.46c-5.025-1.644-10.578,1.86-11.929,6.773
		C50.005,21.332,53.21,26.341,58.23,27.982L58.23,27.982z"/>
</g>
<g>
	<path fill="#753D24" d="M57.734,27.024c3.36,0.762,6.176,0.682,9.554,0.212c8.258-1.147,9.467-14.31,2.317-17.726
		c-2.474-1.182-4.792-1.743-7.52-1.855c-1.403-0.057-2.813,0.236-4.174,0.56c-0.308,0.073-6.171,3.835-3.452,1.864
		c1.632-0.441,3.264-0.882,4.896-1.324c-0.473,0.059-0.946,0.118-1.418,0.177c2.286,5.52,4.571,11.038,6.857,16.556
		c0.095-0.118,0.189-0.236,0.284-0.354c4.606-5.759,3.136-13.744-4.279-16.21c-0.106-0.036-0.213-0.07-0.319-0.106
		c-1.719,6.234-3.438,12.469-5.156,18.704c3.11,0.557,6.385,1.098,9.506,0.176c1.042-0.309,2.027-0.685,3.035-1.086
		c0.437-0.172,4.617-1.194,2.022-0.872c-2.285-5.519-4.571-11.037-6.857-16.555c-0.152,0.151-0.303,0.302-0.455,0.453
		C64,8.806,65.427,7.976,66.853,7.144c-0.98,0.311-1.006,0.403-0.074,0.277c-0.791,0.09-2.545-0.404-0.661,0.156
		c2.258,2.257,4.516,4.515,6.773,6.773c-0.032-0.18-0.063-0.36-0.093-0.54c-1.486,3.651-2.971,7.302-4.457,10.952
		c0.208-0.091,0.417-0.184,0.625-0.275c-2.492,0.326-4.983,0.651-7.474,0.977c5.511,1.288,10.021,1.079,14.329-3.062
		c3.132-3.009,3.687-8.048,1.517-11.752c-2.351-4.013-6.611-5.227-10.953-4.457c0.209-0.044,0.419-0.089,0.627-0.134
		c1.632,6.024,3.263,12.048,4.896,18.072c-0.488,0.265-3.523,0.51-1.49,0.615c2.147,0.111,4.373-0.61,6.336-1.411
		c-2.49-5.909-4.982-11.817-7.473-17.726c-1.376,1.039,0.227,0.34,1.87,0.583c1.426,5.403,2.853,10.806,4.279,16.209
		c-0.886,0.867-1.906,1.422-3.063,1.666c1.301-0.154,2.598-0.339,3.89-0.556c1.978-0.314,1.973-0.318,4.23-0.424
		c2.054-0.098,4.768,0.882,6.881,1.161c2.097,0.276,4.926-0.353,7.093-0.567c-0.859-6.35-1.719-12.7-2.578-19.05
		c-1.171,0.402-2.318,0.863-3.441,1.385c1.164-0.128,2.329-0.257,3.492-0.386c-1.209-0.333-1.3-0.375-0.273-0.128
		c-1.632,6.024-3.264,12.048-4.896,18.073c0.189,0.012,0.378,0.023,0.567,0.035c0-6.465,0-12.931,0-19.396
		c0.032,0.009,0.063,0.018,0.095,0.028c-5.174-1.055-10.458,1.422-11.929,6.773c-1.356,4.93,1.622,10.744,6.773,11.929
		c1.848,0.426,3.689,0.711,5.581,0.885c1.183-0.105,2.354-0.283,3.513-0.53c3.11-1.229,3.089-1.303-0.06-0.221
		c1.906,0.106,3.778,0.385,5.674,0.603c1.245-0.013,2.48-0.143,3.706-0.39c-0.198,0.04,3.26-0.479,1.861-0.425
		c-2.791-4.865-5.583-9.729-8.374-14.594c-0.101,0.159-0.2,0.319-0.299,0.479c1.159-1.16,2.319-2.319,3.48-3.479
		c2.724-0.612,3.332-0.835,1.825-0.668c0.931,0.245,0.833,0.195-0.295-0.15c-0.859,6.35-1.718,12.7-2.578,19.05
		c-1.383-0.168-0.696-0.075,2.057,0.283c1.318,0.032,2.608,0.05,3.919,0.188c2.934,0.31,5.694-0.547,8.563-0.897
		c-0.857-6.35-1.719-12.7-2.577-19.05c0.021,0.002,0.039,0.006,0.061,0.008c-5.277,0.294-9.699,4.188-9.699,9.698
		c0,5.064,4.416,9.993,9.699,9.698c1.724-0.095,3.411-0.317,5.096-0.701c10.515-2.395,8.364-20.384-2.579-19.049
		c-2.425,0.295-4.934,0.898-7.34,0.993c-2.501,0.098-4.739-0.385-7.199-0.567c-4.256-0.317-8.271,3.193-9.352,7.12
		c-1.454,5.287,1.758,10.279,6.774,11.93c6.112,2.013,13.638,0.593,17.194-5.095c3.822-6.115-1.105-14.871-8.375-14.593
		c-1.632,0.063-3.229,0.291-4.829,0.612c-2.262,0.455,0.886,0.366-3.575-0.151c-2.004-0.233-4.769-0.74-6.693,0.028
		c-0.991,0.39-1.975,0.8-2.95,1.23c4.167-0.253,5.143-0.569,2.93-0.946c-1.718,6.233-3.438,12.468-5.156,18.703
		c1.677,0.341,3.351,0.574,5.061,0.666c5.283,0.284,9.698-4.626,9.698-9.698c0-5.537-4.423-9.368-9.698-9.698
		c-0.189-0.012-0.378-0.023-0.567-0.036c-10.026-0.627-12.7,13.267-4.895,18.073c5.006,3.083,10.279,2.854,15.169,1.084
		c4.104-1.486,7.12-4.778,7.12-9.352c0-4.892-4.428-10.218-9.698-9.698c-2.135,0.211-5.325,0.865-7.246,0.417
		c-3.188-0.742-6.144-0.822-9.37-1.038c-2.407-0.16-4.573,0.955-6.791,1.082c-3.446,0.198-6.938,1.362-9.34,3.94
		c-4.448,4.775-3.376,15.079,4.279,16.21c4.613,0.681,9.2,0.387,13.077-2.538c3.528-2.662,5.714-6.381,4.457-10.953
		C82.25,6.762,76.5,2.634,71.597,4.633c-2.858,1.164-6.35,1.048-9.48,2.75c-8.376,4.554-4.732,18.467,4.895,18.073
		c1.525-0.063,3.027-0.293,4.528-0.56c-3.146-5.403-6.29-10.807-9.435-16.21c0.112-0.132,0.225-0.263,0.337-0.395
		c1.631-0.441,3.263-0.882,4.895-1.324c2.341-0.205-5.588-0.555-3.267-0.555c-2.129,0-3.638,0.771-5.52,1.599
		c-4.184,1.84-5.136,7.01-4.457,10.953c0.031,0.18,0.062,0.36,0.093,0.54c0.566,3.284,3.763,5.879,6.773,6.773
		c5.165,1.535,11.922,0.465,15.784-3.38c5.462-5.441,1.921-17.646-6.858-16.556c-2.157,0.269-4.112,0.691-6.195,1.233
		c-1.005,0.261-1.978,0.727-2.943,1.099c-0.004,0,2.663,0.666-0.269,0.142C48.261,6.63,43.326,23.532,55.32,27.521
		c0.106,0.036,0.213,0.07,0.319,0.105c-1.426-5.403-2.853-10.806-4.279-16.209c-0.094,0.118-0.188,0.236-0.284,0.354
		c-2.228,2.787-3.491,5.81-2.494,9.436c1.037,3.771,5.145,7.646,9.352,7.12c4.001-0.5,6.349-1.32,9.411-3.904
		c-1.426,0.832-2.853,1.662-4.279,2.494c-2.177,0.516,0.19,0.21,0.875,0.299c-1.631-0.441-3.263-0.882-4.895-1.324
		c0.255,0.123,0.511,0.245,0.766,0.368c0.773-5.909,1.545-11.817,2.318-17.726c0.224-0.272,0.476-0.343,0.758-0.213
		c-5.151-1.168-10.48,1.506-11.93,6.773C49.608,20.012,52.579,25.856,57.734,27.024L57.734,27.024z"/>
</g>
<g>
	<path fill="#753D24" d="M114.917,23.073c2.379-0.007,4.806-0.437,6.85-1.728c2.915-1.846,4.801-4.862,4.801-8.375
		c-0.004-1.75-0.447-3.382-1.323-4.896c-1.173-2.003-3.43-4.034-5.796-4.457c-1.943-0.348-3.854-0.505-5.811-0.616
		c-4.271-0.242-8.257,3.138-9.353,7.121c-1.126,4.093,0.655,8.884,4.458,10.952c2.259,1.229,4.604,1.786,7.175,1.802
		c1.532,0.01,3.175-0.145,4.613-0.667c0.435-0.158,2.159-0.739,2.909-1.309c1.963-1.496,2.203-1.492,3.576-3.579
		c0.506-0.767,0.801-1.657,1.083-2.529c1.428-4.413-1.133-9.668-5.188-11.679c-2.397-1.189-4.828-1.706-7.475-0.977
		c-2.425,0.667-4.525,2.288-5.796,4.457c-1.313,2.24-1.666,4.97-0.979,7.474c0.63,2.284,2.283,4.716,4.459,5.796
		c0.158,0.068,0.309,0.152,0.451,0.252c-0.654-0.505-1.309-1.011-1.963-1.516c0.048,0.042,0.097,0.083,0.143,0.123
		c-0.506-0.655-1.012-1.308-1.518-1.963c0.031,0.04,0.063,0.081,0.09,0.12c-0.324-0.772-0.65-1.544-0.977-2.316
		c0.015,0.039,0.029,0.078,0.047,0.117c-0.117-0.859-0.232-1.719-0.348-2.578c0,0.038,0.002,0.076,0.002,0.114
		c0.115-0.859,0.232-1.719,0.348-2.578c-0.013,0.036-0.025,0.073-0.036,0.109c0.326-0.773,0.652-1.545,0.979-2.317
		c-0.023,0.035-0.046,0.069-0.069,0.104c0.504-0.655,1.01-1.309,1.516-1.962c-0.033,0.033-0.064,0.066-0.099,0.098
		c0.656-0.505,1.309-1.011,1.965-1.516c-0.186,0.142-0.378,0.24-0.591,0.332c0.771-0.325,1.542-0.651,2.313-0.977
		c-0.284,0.104-0.566,0.181-0.867,0.23c0.86-0.115,1.72-0.231,2.579-0.347c-0.759,0.083-1.492,0.119-2.253,0.017
		c0.86,0.115,1.72,0.231,2.579,0.346c-0.26-0.049-0.506-0.109-0.757-0.193c0.771,0.326,1.544,0.651,2.317,0.977
		c-0.154-0.057-0.301-0.126-0.438-0.212c-1.633,6.025-3.265,12.048-4.897,18.073c0.874,0.05,1.743,0.075,2.613,0.171
		c-0.859-0.116-1.719-0.231-2.577-0.347c0.207,0.026,0.413,0.058,0.618,0.1c-0.771-5.909-1.542-11.817-2.315-17.726
		c-0.136,0.099-0.28,0.177-0.439,0.233c0.773-0.326,1.545-0.652,2.318-0.977c-0.159,0.056-0.322,0.096-0.489,0.12
		c0.861-0.116,1.718-0.231,2.579-0.347c-0.343,0.04-0.682,0.05-1.028,0.051c-5.286,0.016-9.697,4.399-9.697,9.698
		C105.219,18.649,109.629,23.089,114.917,23.073L114.917,23.073z"/>
</g>
<g>
	<path d="M43.797,12.365c1.564,0,1.564-2.425,0-2.425S42.233,12.365,43.797,12.365L43.797,12.365z"/>
</g>
<g>
	<path d="M45.211,12.701c1.564,0,1.564-2.424,0-2.424S43.647,12.701,45.211,12.701L45.211,12.701z"/>
</g>
</svg>
