<?xml version="1.0" encoding="utf-8"?>
<!-- Generator: Adobe Illustrator 16.0.0, SVG Export Plug-In . SVG Version: 6.00 Build 0)  -->
<!DOCTYPE svg PUBLIC "-//W3C//DTD SVG 1.1//EN" "http://www.w3.org/Graphics/SVG/1.1/DTD/svg11.dtd">
<svg version="1.1" id="Layer_1" xmlns="http://www.w3.org/2000/svg" xmlns:xlink="http://www.w3.org/1999/xlink" x="0px" y="0px"
	 width="920px" height="162px" viewBox="0 0 920 162" enable-background="new 0 0 920 162" xml:space="preserve">
<path fill-rule="evenodd" clip-rule="evenodd" fill="#680202" d="M920,162c-305.167,0-610.333-0.008-915.5,0.093
	c-3.749,0.002-4.607-0.842-4.597-4.593C0.047,106.334,0.043,55.167-0.098,4C-0.107,0.575,0.576-0.095,4-0.094
	c304,0.102,608,0.102,912,0c3.423-0.001,4.106,0.668,4.098,4.094C919.958,56.666,920,109.333,920,162z M910.971,98.83
	c-3.654-0.494-7.309-0.482-10.963-0.004c-0.477,0.007-1.341-0.087-1.372,0.035c-1.225,4.731-1.215,9.485-0.009,14.218
	c0.031,0.121,0.9,0.029,1.378,0.037c3.66,0.458,7.32,0.46,10.98,0.001c0.89,0.118,1.017-0.395,0.91-1.101
	c0.001-4.009,0.001-8.019,0.001-12.028C912.002,99.271,911.898,98.721,910.971,98.83z M94.606,113.072
	c1.819,0.106,3.665,0.051,5.452,0.35c4.643,0.775,5.765-1.144,5.702-5.66c-0.15-10.978-0.792-21.997,0.441-32.943
	c1.376-12.226,10.072-23.93,23.819-23.938c2.509-0.001,3.226-0.916,2.991-3.226c-0.151-1.483-0.203-3.02,0.007-4.488
	c0.422-2.969-0.811-3.7-3.592-3.383c-10.214,1.167-18.159,5.525-22.39,15.359c-2.778-2.991-0.581-6.653-1.359-9.897
	c-0.347-1.444,1.467-3.856-1.688-4.179c-3.056-0.033-6.111-0.066-9.167-0.101c-2.216,0.652-1.814,2.502-1.815,4.104
	c-0.016,21.239-0.018,42.479,0.003,63.717C93.014,110.377,92.54,112.219,94.606,113.072z M628.667,54.132
	c1.809,1.79,0.908,5.722,3.917,6.169c2.969,0.44,7.116,1.48,8.93-0.514c1.858-2.043-0.742-5.428-1.952-8.06
	c-0.325-0.708-0.992-1.26-1.502-1.883c-3.32-5.124-8.198-7.763-14.068-8.819c-2.892-1.256-5.922-1.318-8.991-1.042
	c-0.667-0.011-1.334-0.021-2-0.031c-5.589-0.335-11.026,0.187-16.085,2.85c-0.805,0.047-1.552,0.211-1.997,0.986
	c-1.356,0.325-2.411,1.09-3.221,2.213c-10.169,9.123-8.475,23.588,3.548,29.766c4.318,2.218,8.986,3.447,13.728,4.467
	c6.66,1.432,13.475,2.463,19.522,5.882c6.813,3.853,6.973,12.441-0.054,15.928c-8.438,4.187-17.29,4.551-25.965,0.225
	c-2.763-1.377-5.599-3.459-6.033-6.348c-1.001-6.662-5.602-5.425-9.914-5.523c-2.457-0.056-3.245,0.704-2.808,3.205
	c0.932,5.317,3.416,9.688,7.449,13.2c10.93,9.518,33.518,10.302,45.591,2.189c8.755-5.884,12.426-24.301-1.243-31.5
	c-5.228-2.752-10.796-4.277-16.516-5.471c-5.861-1.224-11.757-2.348-17.212-4.998c-3.412-1.657-5.767-4.1-5.507-8.114
	c0.262-4.048,2.459-6.973,6.341-8.129C611.755,48.063,620.665,47.758,628.667,54.132z M435.283,41.094
	c-1.907,1.295-1.256,3.288-1.26,5.021c-0.04,20.577-0.039,41.155-0.002,61.732c0.003,1.749-0.594,3.709,1.134,5.107
	c3.794,0.729,7.583,0.866,11.364-0.087c1.743-0.815,1.468-2.423,1.47-3.878c0.017-12.425,0.012-24.849,0.008-37.273
	c0-1.318,0.121-2.678-0.979-3.71c0.052-0.822-0.03-1.68,0.175-2.461c2.765-10.54,12.587-16.886,24.107-15.615
	c9.836,1.084,16.839,9.133,17.011,20.157c0.205,13.151,0.138,26.31-0.024,39.463c-0.037,3.04,0.739,4.337,3.886,3.91
	c1.472-0.199,2.997-0.109,4.49-0.016c1.995,0.124,3.087-0.379,3.032-2.724c-0.344-14.975,0.852-29.996-0.644-44.923
	c-1.171-11.694-7.381-20.472-18.642-24.347c-11.554-3.975-22.346-2.169-31.164,7.129c-0.744,0.785-1.102,2.119-2.524,2.152
	C445.672,40.451,445.672,40.451,435.283,41.094z M714.631,112.885c1.459-0.766,1.364-2.149,1.364-3.479
	c0.005-13.154,0.01-26.309-0.005-39.463c-0.002-1.467,0.235-3.093-1.65-3.757c-0.147-0.646-0.309-1.288-0.441-1.938
	c-2.305-11.288-8.294-19.746-19.574-23.142c-11.774-3.543-22.426-1.307-30.857,8.332c-0.533,0.609-0.968,1.396-2.084,1.117
	c0-11.454-0.31-22.953,0.135-34.423c0.214-5.548-3.137-4.084-6.021-4.245c-3.139-0.176-5.477-0.453-5.435,4.375
	c0.265,30.823,0.296,61.65-0.016,92.472c-0.056,5.535,2.907,4.442,6.129,4.757c3.989,0.391,5.444-0.611,5.325-5.011
	c-0.338-12.487-0.281-24.992-0.071-37.485c0.206-12.29,9.221-21.072,21.295-21.188c12.077-0.115,19.751,7.467,20.505,20.292
	c0.107,1.827,0.144,3.661,0.146,5.492c0.012,11.33,0.058,22.66-0.037,33.99c-0.021,2.52,0.201,4.298,3.399,3.86
	C709.35,113.083,712.061,113.978,714.631,112.885z M781.916,104.376c-0.108,1.319-0.123,2.654-0.343,3.955
	c-0.699,4.153,0.937,5.478,5.12,5.189c3.643-0.25,6.402,0.466,6.288-5.186c-0.421-20.815-0.306-41.646-0.055-62.466
	c0.053-4.346-1.375-4.916-5.295-5.135c-5.134-0.287-6.941,1.295-6.075,6.268c0.216,1.235,0.032,2.541,0.032,4.857
	c-10.408-12.695-23.237-14.359-37.095-10.407c-14.532,4.145-23.687,18.136-23.77,35.009c-0.086,17.674,8.892,31.649,23.386,36.403
	c13.718,4.499,28.447,0.786,35.852-9.036C780.768,103.46,781.525,103.263,781.916,104.376z M834.145,110.989
	c5.77-17.908,11.539-35.816,17.6-54.627c0.914,2.725,1.57,4.571,2.156,6.44c4.878,15.55,9.837,31.075,14.53,46.681
	c0.942,3.13,2.321,4.449,5.55,3.968c1.466-0.219,3.016-0.209,4.485,0c3.062,0.436,4.31-0.893,5.19-3.792
	c4.593-15.116,9.435-30.156,14.162-45.23c2.413-7.693,4.769-15.405,7.275-23.513c-2.57,0-4.594,0.25-6.531-0.052
	c-4.047-0.632-5.764,0.9-6.762,4.938c-2.115,8.547-4.89,16.932-7.391,25.384c-2.647,8.946-5.292,17.894-8.35,28.234
	c-5.603-17.891-10.759-34.324-15.892-50.764c-2.45-7.846-2.434-7.675-10.625-7.831c-3.109-0.059-4.313,0.987-5.154,3.867
	c-3.03,10.374-6.326,20.671-9.552,30.987c-2.323,7.429-4.693,14.841-7.479,23.639c-5.308-17.903-10.186-34.302-15.029-50.709
	c-2.459-8.329-2.425-8.227-11.08-7.764c-2.438,0.13-2.796,0.851-2.123,2.947c6.652,20.729,13.266,41.471,19.891,62.209
	c1.537,7.375,1.537,7.374,8.895,7.375c1.308,0,2.617-0.03,3.924,0.014C833.528,113.448,834.197,112.581,834.145,110.989z
	 M578.012,41.117c-9.616-0.607-9.613-0.607-10.016,8.851c-0.011,0.249-0.288,0.486-0.444,0.727
	c-15.546-13.729-36.067-14.592-49.2-2.071c-13.878,13.231-15.359,37.434-3.18,52.439c6.739,8.303,15.604,12.143,26.188,12.358
	c10.445,0.212,19.376-3.161,26.544-12.213c0,5.007,0.236,8.825-0.054,12.602c-0.474,6.168-2.38,11.794-7.783,15.521
	c-10.377,7.157-28.308,4.488-36.188-5.329c-3.709-4.593-8.384-0.729-12.639-2.23c0.124,2.167,0.645,3.324,1.572,4.311
	c3.283,7.738,9.375,12.322,17.087,14.94c7.07,2.4,14.407,2.59,21.753,1.93c16.041-1.441,26.964-12.38,27.222-28.49
	c0.387-24.151,0.016-48.314-0.034-72.473C579.005,41.278,578.701,41.015,578.012,41.117z M912.962,157.881
	c0.642-3.342,0.637-6.685,0.026-10.029c-1.433-3.315-4.381-1.776-6.578-1.777c-296.391-0.079-592.782-0.075-889.173-0.073
	c-1.5,0-2.999,0.014-4.498,0.03c-1.261,0.015-2.273,0.441-2.76,1.711c-1.772,3.143-0.424,6.56-0.862,9.819
	c1.349,2.237,3.571,1.392,5.44,1.402c12.496,0.07,24.993,0.037,37.489,0.037c284.587,0,569.174,0.002,853.761-0.046
	C908.194,158.955,910.838,159.914,912.962,157.881z M73.061,64.574c10.168-8.756,13.18-15.533,11.504-25.769
	C82.438,25.8,71.687,17.577,56.137,17.395c-13.659-0.161-27.322,0.052-40.981-0.098c-3.031-0.033-3.977,0.749-3.964,3.895
	c0.12,29.487,0.124,58.976-0.004,88.462c-0.014,3.206,1.019,3.861,3.984,3.833c14.326-0.14,28.654-0.02,42.981-0.082
	c6.746-0.029,13.241-1.34,19.271-4.507c7.738-4.063,11.862-10.482,12.271-19.205C90.276,77.315,84.284,69.205,73.061,64.574z
	 M268.786,102.99c0,2.247,0.185,3.769-0.036,5.229c-0.603,3.998,0.622,5.759,5.002,5.281c3.386-0.368,6.438,0.895,6.361-5.026
	c-0.39-30.461-0.26-60.931-0.084-91.396c0.022-3.988-0.768-5.188-5.024-5.382c-5.384-0.244-6.958,1.535-6.28,6.573
	c0.352,2.616,0.062,5.318,0.062,7.982c0,8.198,0,16.397,0,25.204c-15.327-14.848-36.642-15.571-50.074-2.303
	c-14.455,14.278-14.572,40.387-0.691,55.428C227.897,115.285,252.835,120.813,268.786,102.99z M190.813,103.129
	c0,2.067,0.232,3.866-0.047,5.581c-0.679,4.163,1.259,5.078,4.966,4.761c3.176-0.272,6.341,1.001,6.243-4.65
	c-0.362-20.978-0.281-41.966-0.032-62.946c0.052-4.33-1.334-4.987-5.287-5.133c-4.743-0.174-6.731,0.979-5.914,5.916
	c0.216,1.306,0.628,2.893-0.365,4.245c-17.085-14.458-37.524-14.795-50.632-0.901c-13.558,14.369-13.528,39.74,0.061,54.306
	C152.702,118.13,173.016,117.794,190.813,103.129z M417.837,51.599c-14.824-14.42-35.592-15.664-49.055-3.555
	c-14.433,12.981-16.323,38.208-4.043,53.777c6.629,8.403,15.385,12.489,25.981,12.764c10.574,0.273,19.777-2.891,27.115-12.42
	c0,3.024,0.225,4.692-0.043,6.277c-0.734,4.35,1.166,5.409,5.2,5.054c3.327-0.294,6.138,0.561,6.036-4.872
	c-0.387-20.821-0.323-41.656-0.026-62.48c0.065-4.599-1.314-5.396-5.534-5.391c-4.322,0.005-6.526,0.824-5.671,5.595
	C418.051,47.757,417.837,49.25,417.837,51.599z M288.113,62.523c0,15.48,0.093,30.963-0.074,46.442
	c-0.036,3.318,0.583,4.563,4.267,4.527c19.641-0.194,39.287-0.281,58.925,0.024c5.833,0.091,3.646-3.639,3.943-6.281
	c0.335-2.976,0.364-5.218-4.123-5.127c-15.641,0.316-31.294,0.01-46.938,0.21c-3.517,0.045-4.407-0.894-4.387-4.396
	c0.153-26.467,0.084-52.935,0.085-79.402c0-6.8-0.012-6.54-6.887-6.872c-3.992-0.193-4.967,1.021-4.906,4.932
	C288.252,31.892,288.113,47.208,288.113,62.523z"/>
<path fill-rule="evenodd" clip-rule="evenodd" fill="#FAF7F7" d="M912.988,147.852c0.61,3.345,0.615,6.688-0.026,10.029
	c-1.999-0.016-3.999-0.045-5.998-0.045c-296.956-0.002-593.912-0.002-890.869-0.014c-2.326,0-4.652-0.17-6.978-0.261
	c0.438-3.26-0.91-6.677,0.862-9.819c1.996,0.047,3.991,0.135,5.987,0.135c188.066,0.006,376.133,0.009,564.199,0.004
	C691.107,147.878,802.048,147.861,912.988,147.852z"/>
<path fill-rule="evenodd" clip-rule="evenodd" fill="#EEEBEB" d="M73.061,64.574c11.223,4.631,17.215,12.741,16.634,25.118
	c-0.409,8.723-4.533,15.142-12.271,19.205c-6.03,3.167-12.526,4.478-19.271,4.507c-14.327,0.063-28.655-0.058-42.981,0.082
	c-2.965,0.028-3.999-0.627-3.984-3.833c0.128-29.486,0.124-58.975,0.004-88.462c-0.013-3.146,0.933-3.928,3.964-3.895
	c13.659,0.149,27.322-0.063,40.981,0.098c15.55,0.183,26.301,8.405,28.429,21.411C86.241,49.041,83.229,55.818,73.061,64.574z
	 M22.1,28.253c0.149,2.546,0.298,5.092,0.447,7.638c-0.012,7.72-0.023,15.439-0.035,23.159c-0.292,0.538-0.138,0.792,0.479,0.749
	c0.337,0.063,0.675,0.127,1.013,0.191c0.284,0.16,0.567,0.321,0.85,0.481c10.093,2.555,20.186,2.554,30.279,0.002
	c0.593-0.051,1.186-0.101,1.779-0.151c0.448,0.973,0.808,0.907,1.09-0.092c12.457-2.941,17.892-10.485,15.116-20.968
	c-1.794-6.775-6.965-9.635-13.126-11.354c-0.411-2.002-1.976-1.917-3.483-1.917c-10.252-0.003-20.503-0.004-30.755,0
	C24.076,25.992,22.306,25.864,22.1,28.253z M22.13,102.514c0.099,2.764,2.144,2.486,3.954,2.488
	c10.295,0.016,20.59,0.021,30.885-0.005c1.59-0.004,3.474,0.433,4.021-1.881c2.591,1.24,4.47-0.957,6.627-1.546
	c6.516-1.779,10.535-6.121,11.021-13.051c0.474-6.743-2.507-11.771-8.277-15.237c-3.203-1.924-6.874-2.237-10.354-3.212
	c-0.414-2.323-2.234-2.065-3.867-2.067c-9.763-0.014-19.525-0.014-29.288,0c-1.634,0.002-3.454-0.253-3.856,2.076
	c-1.25,1.432-0.671,3.157-0.688,4.751C22.208,84.058,22.181,93.286,22.13,102.514z"/>
<path fill-rule="evenodd" clip-rule="evenodd" fill="#F0EEEE" d="M523.878,124.001c7.881,9.817,25.812,12.486,36.188,5.329
	c5.403-3.727,7.31-9.353,7.783-15.521c0.29-3.776,0.054-7.595,0.054-12.602c-7.168,9.052-16.099,12.425-26.544,12.213
	c-10.584-0.216-19.448-4.056-26.188-12.358c-12.18-15.006-10.698-39.208,3.18-52.439c13.133-12.521,33.654-11.657,49.201,2.072
	c0.155-0.241,0.433-0.479,0.443-0.728c0.402-9.458,0.399-9.458,10.016-8.851c0.275,0.29,0.552,0.581,0.827,0.871
	c0.05,24.158,0.421,48.321,0.034,72.473c-0.258,16.11-11.181,27.049-27.222,28.49c-7.346,0.66-14.683,0.471-21.753-1.93
	c-7.712-2.618-13.804-7.202-17.087-14.94C515.968,122.555,520.151,124.495,523.878,124.001z M543.561,49.804
	c-15.106-0.007-25.433,10.781-25.467,26.606c-0.035,16.095,10.402,27.039,25.688,26.937c14.724-0.1,24.834-10.901,24.957-26.666
	C568.862,60.817,558.552,49.81,543.561,49.804z"/>
<path fill-rule="evenodd" clip-rule="evenodd" fill="#F0EEEE" d="M819.017,106.002c-6.625-20.738-13.238-41.479-19.891-62.209
	c-0.673-2.097-0.314-2.817,2.123-2.947c8.655-0.463,8.621-0.565,11.08,7.764c4.844,16.407,9.722,32.806,15.029,50.709
	c2.786-8.798,5.156-16.21,7.479-23.639c3.226-10.316,6.521-20.613,9.552-30.987c0.841-2.88,2.045-3.926,5.154-3.867
	c8.191,0.156,8.175-0.015,10.625,7.831c5.133,16.439,10.289,32.873,15.892,50.764c3.058-10.341,5.702-19.288,8.35-28.234
	c2.501-8.452,5.275-16.837,7.391-25.384c0.998-4.037,2.715-5.569,6.762-4.938c1.938,0.302,3.961,0.052,6.531,0.052
	c-2.507,8.107-4.862,15.819-7.275,23.513c-4.728,15.074-9.569,30.114-14.162,45.23c-0.881,2.899-2.129,4.228-5.19,3.792
	c-1.47-0.209-3.02-0.219-4.485,0c-3.229,0.481-4.607-0.838-5.55-3.968c-4.693-15.605-9.652-31.131-14.53-46.681
	c-0.586-1.869-1.242-3.716-2.156-6.44c-6.061,18.811-11.83,36.719-17.6,54.627c-5.686,1.313-11.563,3.22-14.229-4.688
	C819.854,106.121,819.326,106.098,819.017,106.002z"/>
<path fill-rule="evenodd" clip-rule="evenodd" fill="#F0EEEE" d="M268.786,102.99c-15.951,17.823-40.889,12.295-50.766,1.592
	c-13.881-15.041-13.764-41.149,0.691-55.428c13.433-13.269,34.747-12.545,50.074,2.303c0-8.807,0-17.006,0-25.204
	c0-2.664,0.29-5.366-0.062-7.982c-0.678-5.038,0.896-6.817,6.28-6.573c4.257,0.193,5.047,1.394,5.024,5.382
	c-0.176,30.465-0.306,60.935,0.084,91.396c0.076,5.921-2.976,4.658-6.361,5.026c-4.38,0.478-5.604-1.283-5.002-5.281
	C268.971,106.759,268.786,105.237,268.786,102.99z M269.333,77.068c-0.021-8.093-2.343-14.726-6.911-19.744
	c-6.999-7.688-19.026-9.914-28.897-5.35c-10.477,4.844-16.044,16.307-14.425,29.696c1.373,11.356,9.27,20.291,19.738,22.334
	C256.122,107.378,269.382,95.666,269.333,77.068z"/>
<path fill-rule="evenodd" clip-rule="evenodd" fill="#F0EEEE" d="M779.962,103.828c-7.404,9.822-22.134,13.535-35.852,9.036
	c-14.494-4.754-23.472-18.729-23.386-36.403c0.083-16.873,9.237-30.864,23.77-35.009c13.857-3.952,26.687-2.288,37.095,10.407
	c0-2.316,0.184-3.622-0.032-4.857c-0.866-4.973,0.941-6.555,6.075-6.268c3.92,0.219,5.348,0.789,5.295,5.135
	c-0.251,20.82-0.366,41.65,0.055,62.466c0.114,5.651-2.646,4.936-6.288,5.186c-4.184,0.288-5.819-1.036-5.12-5.189
	c0.22-1.301,0.234-2.636,0.342-3.958C781.646,102.814,780.969,102.728,779.962,103.828z M782.19,77.273
	c0.019-12.845-6.462-23.095-16.642-26.324c-13.468-4.273-26.956,1.992-31.894,14.814c-5.611,14.572,0.293,31.14,13.079,36.703
	C764.681,110.276,782.161,97.855,782.19,77.273z"/>
<path fill-rule="evenodd" clip-rule="evenodd" fill="#F0EEEE" d="M190.813,103.129c-17.797,14.665-38.11,15.001-51.008,1.178
	c-13.589-14.565-13.618-39.937-0.061-54.306c13.107-13.894,33.547-13.557,50.632,0.901c0.993-1.353,0.581-2.939,0.365-4.245
	c-0.817-4.937,1.171-6.09,5.914-5.916c3.953,0.146,5.339,0.803,5.287,5.133c-0.249,20.98-0.33,41.969,0.032,62.946
	c0.098,5.651-3.067,4.378-6.243,4.65c-3.707,0.317-5.645-0.598-4.966-4.761C191.045,106.995,190.813,105.196,190.813,103.129z
	 M191.212,77.464c0.101-5.586-0.923-10.907-3.744-15.797c-5.817-10.082-17.125-14.331-28.881-10.863
	c-11.612,3.426-18.528,14.51-17.767,28.478c0.692,12.722,8.672,22.584,20.013,24.735C177.997,107.272,191.08,95.839,191.212,77.464z
	"/>
<path fill-rule="evenodd" clip-rule="evenodd" fill="#F0EEEE" d="M417.837,51.599c0-2.349,0.214-3.842-0.039-5.251
	c-0.855-4.771,1.349-5.59,5.671-5.595c4.22-0.006,5.6,0.792,5.534,5.391c-0.297,20.824-0.36,41.659,0.026,62.48
	c0.102,5.433-2.709,4.578-6.036,4.872c-4.034,0.355-5.935-0.704-5.2-5.054c0.268-1.585,0.043-3.253,0.043-6.277
	c-7.338,9.529-16.541,12.693-27.115,12.42c-10.597-0.274-19.353-4.36-25.981-12.764c-12.28-15.569-10.39-40.796,4.043-53.777
	C382.245,35.935,403.013,37.179,417.837,51.599z M418.22,77.07c-0.022-14.791-8.564-25.752-21.132-27.116
	c-14.427-1.566-25.73,6.431-28.678,20.286c-3.357,15.786,4.996,30.695,18.87,33.683C404.703,107.674,418.248,95.918,418.22,77.07z"
	/>
<path fill-rule="evenodd" clip-rule="evenodd" fill="#EFECEC" d="M714.631,112.885c-2.57,1.093-5.281,0.198-7.894,0.557
	c-3.198,0.438-3.42-1.341-3.399-3.86c0.095-11.33,0.049-22.66,0.037-33.99c-0.002-1.831-0.038-3.665-0.146-5.492
	c-0.754-12.825-8.428-20.407-20.505-20.292c-12.074,0.116-21.089,8.898-21.295,21.188c-0.21,12.493-0.267,24.998,0.071,37.485
	c0.119,4.399-1.336,5.401-5.325,5.011c-3.222-0.314-6.185,0.778-6.129-4.757c0.312-30.821,0.28-61.648,0.016-92.472
	c-0.042-4.828,2.296-4.551,5.435-4.375c2.884,0.161,6.234-1.303,6.021,4.245c-0.444,11.47-0.135,22.969-0.135,34.423
	c1.116,0.278,1.551-0.508,2.084-1.117c8.432-9.639,19.083-11.875,30.857-8.332c11.28,3.396,17.27,11.854,19.574,23.142
	c0.133,0.649,0.294,1.292,0.441,1.938C714.438,81.752,714.534,97.318,714.631,112.885z"/>
<path fill-rule="evenodd" clip-rule="evenodd" fill="#EEEAEA" d="M446.52,112.867c-3.781,0.953-7.57,0.815-11.364,0.087
	c0.042-23.953,0.085-47.906,0.128-71.86c10.389-0.643,10.389-0.643,11.438,9.639c1.423-0.033,1.78-1.367,2.524-2.152
	c8.818-9.298,19.61-11.104,31.164-7.129c11.261,3.875,17.471,12.652,18.642,24.347c1.495,14.927,0.3,29.948,0.644,44.923
	c0.055,2.345-1.037,2.848-3.032,2.724c-1.493-0.094-3.019-0.184-4.49,0.016c-3.146,0.427-3.923-0.87-3.886-3.91
	c0.162-13.153,0.229-26.312,0.024-39.463c-0.172-11.024-7.175-19.073-17.011-20.157c-11.521-1.271-21.343,5.075-24.107,15.615
	c-0.205,0.781-0.123,1.639-0.175,2.461C445.716,82.947,446.611,97.912,446.52,112.867z"/>
<path fill-rule="evenodd" clip-rule="evenodd" fill="#F0EEEE" d="M594.918,43.788c0.445-0.775,1.192-0.939,1.997-0.986
	c5.246,0.309,10.339-0.961,15.495-1.566c0.243-0.028,0.395-0.838,0.59-1.283c0.666,0.011,1.333,0.021,2,0.031
	c2.613,3.663,5.843,2,8.991,1.042c5.87,1.057,10.748,3.695,14.068,8.819c0.239,1.289,0.634,2.573,0.68,3.87
	c0.061,1.706,2.752,3.965-0.369,5.013c-2.255,0.758-5.011,0.938-6.485-1.982c-0.675-1.336-1.329-2.749-3.218-2.613
	c-8.002-6.374-16.912-6.069-26.042-3.353c-3.882,1.156-6.079,4.081-6.341,8.129c-0.26,4.015,2.095,6.457,5.507,8.114
	c5.455,2.65,11.351,3.774,17.212,4.998c5.72,1.193,11.288,2.719,16.516,5.471c13.669,7.199,9.998,25.616,1.243,31.5
	c-12.073,8.112-34.661,7.328-45.591-2.189c-4.033-3.513-6.518-7.883-7.449-13.2c-0.438-2.501,0.351-3.261,2.808-3.205
	c4.313,0.099,8.913-1.139,9.914,5.523c0.435,2.889,3.271,4.971,6.033,6.348c8.675,4.326,17.527,3.962,25.965-0.225
	c7.026-3.486,6.866-12.075,0.054-15.928c-6.048-3.419-12.862-4.45-19.522-5.882c-4.741-1.02-9.409-2.249-13.728-4.467
	c-12.022-6.178-13.717-20.643-3.547-29.766C593.277,45.999,594.822,45.947,594.918,43.788z"/>
<path fill-rule="evenodd" clip-rule="evenodd" fill="#F1F1F1" d="M288.113,62.523c0-15.315,0.139-30.632-0.096-45.942
	c-0.061-3.91,0.914-5.125,4.906-4.932c6.875,0.332,6.887,0.072,6.887,6.872c-0.001,26.468,0.068,52.936-0.085,79.402
	c-0.021,3.502,0.87,4.44,4.387,4.396c15.645-0.2,31.298,0.106,46.938-0.21c4.487-0.091,4.458,2.151,4.123,5.127
	c-0.298,2.643,1.89,6.372-3.943,6.281c-19.638-0.306-39.284-0.219-58.925-0.024c-3.684,0.036-4.303-1.209-4.267-4.527
	C288.206,93.486,288.113,78.004,288.113,62.523z"/>
<path fill-rule="evenodd" clip-rule="evenodd" fill="#5A0000" d="M912.988,147.852c-110.94,0.01-221.881,0.026-332.822,0.029
	c-188.066,0.005-376.133,0.002-564.199-0.004c-1.996,0-3.991-0.088-5.987-0.135c0.486-1.27,1.499-1.696,2.76-1.711
	c1.499-0.017,2.998-0.03,4.498-0.03c296.391-0.002,592.782-0.006,889.173,0.073C908.607,146.075,911.556,144.536,912.988,147.852z"
	/>
<path fill-rule="evenodd" clip-rule="evenodd" fill="#F3F3F3" d="M107.038,55.144c4.23-9.834,12.176-14.192,22.39-15.359
	c2.781-0.317,4.014,0.414,3.592,3.383c-0.21,1.469-0.158,3.005-0.007,4.488c0.234,2.31-0.482,3.225-2.991,3.226
	c-13.747,0.008-22.443,11.712-23.819,23.938c-1.233,10.946-0.592,21.966-0.441,32.943c0.063,4.517-1.06,6.436-5.702,5.66
	c-1.787-0.299-3.633-0.243-5.451-0.35c0.072-24.035,0.145-48.07,0.217-72.105c3.056,0.034,6.111,0.067,9.167,0.101
	c0.052,4.155-0.033,8.319,0.207,12.464C104.334,55.878,104.972,56.085,107.038,55.144z"/>
<path fill-rule="evenodd" clip-rule="evenodd" fill="#570000" d="M9.118,157.562c2.326,0.091,4.652,0.261,6.978,0.261
	c296.957,0.012,593.913,0.012,890.869,0.014c1.999,0,3.999,0.029,5.998,0.045c-2.124,2.033-4.768,1.074-7.153,1.074
	c-284.587,0.048-569.174,0.046-853.761,0.046c-12.497,0-24.993,0.033-37.489-0.037C12.689,158.953,10.466,159.799,9.118,157.562z"/>
<path fill-rule="evenodd" clip-rule="evenodd" fill="#F1F1F1" d="M911.896,99.988c0,4.01,0,8.02-0.001,12.028
	c-0.303,0.367-0.606,0.734-0.91,1.101c-3.66,0.459-7.32,0.457-10.98-0.001c0.001-4.764,0.002-9.526,0.003-14.29
	c3.654-0.479,7.309-0.49,10.963,0.004C911.279,99.216,911.588,99.603,911.896,99.988z"/>
<path fill-rule="evenodd" clip-rule="evenodd" fill="#570000" d="M94.824,40.967c-0.072,24.035-0.145,48.07-0.217,72.105
	c-2.067-0.854-1.594-2.695-1.596-4.285c-0.021-21.238-0.019-42.478-0.003-63.717C93.01,43.469,92.608,41.619,94.824,40.967z"/>
<path fill-rule="evenodd" clip-rule="evenodd" fill="#570000" d="M435.283,41.094c-0.043,23.954-0.086,47.907-0.128,71.86
	c-1.728-1.398-1.131-3.358-1.134-5.107c-0.037-20.577-0.038-41.155,0.002-61.732C434.027,44.382,433.376,42.389,435.283,41.094z"/>
<path fill-rule="evenodd" clip-rule="evenodd" fill="#EEEBEB" d="M628.667,54.132c1.889-0.136,2.543,1.277,3.218,2.613
	c1.475,2.92,4.23,2.74,6.485,1.982c3.121-1.048,0.43-3.307,0.369-5.013c-0.046-1.297-0.44-2.581-0.68-3.87
	c0.51,0.623,1.177,1.175,1.502,1.883c1.21,2.632,3.811,6.017,1.952,8.06c-1.813,1.994-5.961,0.954-8.93,0.514
	C629.575,59.854,630.476,55.922,628.667,54.132z"/>
<path fill-rule="evenodd" clip-rule="evenodd" fill="#570000" d="M714.631,112.885c-0.097-15.566-0.193-31.133-0.291-46.699
	c1.886,0.664,1.648,2.29,1.65,3.757c0.015,13.154,0.01,26.309,0.005,39.463C715.995,110.735,716.09,112.119,714.631,112.885z"/>
<path fill-rule="evenodd" clip-rule="evenodd" fill="#570000" d="M446.52,112.867c0.092-14.955-0.804-29.92,0.499-44.861
	c1.1,1.032,0.979,2.392,0.979,3.71c0.004,12.425,0.009,24.849-0.008,37.273C447.987,110.444,448.263,112.052,446.52,112.867z"/>
<path fill-rule="evenodd" clip-rule="evenodd" fill="#FAF7F7" d="M819.017,106.002c0.31,0.096,0.838,0.119,0.898,0.299
	c2.666,7.908,8.544,6.002,14.229,4.688c0.053,1.592-0.616,2.459-2.31,2.401c-1.307-0.044-2.616-0.014-3.924-0.014
	C820.554,113.376,820.554,113.377,819.017,106.002z"/>
<path fill-rule="evenodd" clip-rule="evenodd" fill="#EFECEC" d="M613,39.952c-0.195,0.445-0.347,1.255-0.59,1.283
	c-5.156,0.605-10.249,1.875-15.495,1.566C601.974,40.139,607.411,39.617,613,39.952z"/>
<path fill-rule="evenodd" clip-rule="evenodd" fill="#E8DDDD" d="M107.038,55.144c-2.066,0.941-2.704,0.734-2.84-1.612
	c-0.24-4.145-0.155-8.309-0.207-12.464c3.154,0.322,1.341,2.734,1.688,4.179C106.457,48.49,104.26,52.152,107.038,55.144z"/>
<path fill-rule="evenodd" clip-rule="evenodd" fill="#EFECEC" d="M523.878,124.001c-3.727,0.494-7.91-1.446-11.066,2.08
	c-0.928-0.986-1.448-2.144-1.572-4.311C515.494,123.272,520.169,119.408,523.878,124.001z"/>
<path fill-rule="evenodd" clip-rule="evenodd" fill="#FAF7F7" d="M900.008,98.826c-0.001,4.764-0.002,9.526-0.003,14.29
	c-0.478-0.008-1.347,0.084-1.378-0.037c-1.206-4.732-1.216-9.486,0.009-14.218C898.667,98.739,899.531,98.833,900.008,98.826z"/>
<path fill-rule="evenodd" clip-rule="evenodd" fill="#EFECEC" d="M623.991,41.025c-3.148,0.958-6.378,2.621-8.991-1.042
	C618.069,39.707,621.1,39.77,623.991,41.025z"/>
<path fill-rule="evenodd" clip-rule="evenodd" fill="#EFECEC" d="M594.918,43.788c-0.096,2.159-1.641,2.211-3.22,2.213
	C592.507,44.878,593.562,44.113,594.918,43.788z"/>
<path fill-rule="evenodd" clip-rule="evenodd" fill="#E8DDDD" d="M779.962,103.828c1.007-1.101,1.685-1.014,1.953,0.545
	C781.525,103.263,780.768,103.46,779.962,103.828z"/>
<path fill-rule="evenodd" clip-rule="evenodd" fill="#FAF7F7" d="M911.896,99.988c-0.309-0.386-0.617-0.772-0.926-1.158
	C911.898,98.721,912.002,99.271,911.896,99.988z"/>
<path fill-rule="evenodd" clip-rule="evenodd" fill="#EFECEC" d="M578.839,41.988c-0.275-0.29-0.552-0.581-0.827-0.871
	C578.701,41.015,579.005,41.278,578.839,41.988z"/>
<path fill-rule="evenodd" clip-rule="evenodd" fill="#FAF7F7" d="M910.985,113.117c0.304-0.366,0.607-0.733,0.91-1.101
	C912.002,112.723,911.875,113.235,910.985,113.117z"/>
<path fill-rule="evenodd" clip-rule="evenodd" fill="#690505" d="M60.007,70.07c3.48,0.975,7.152,1.288,10.354,3.212
	c5.771,3.466,8.751,8.494,8.277,15.237c-0.486,6.93-4.505,11.271-11.021,13.051c-2.158,0.589-4.036,2.786-6.627,1.546
	c-2.16-0.049-4.321-0.09-6.481-0.148c-10.791-0.293-21.599,0.598-32.379-0.454c0.051-9.228,0.078-18.456,0.178-27.684
	c0.017-1.594-0.562-3.319,0.688-4.751C35.333,70.076,47.67,70.073,60.007,70.07z"/>
<path fill-rule="evenodd" clip-rule="evenodd" fill="#680101" d="M59.991,27.909c6.162,1.719,11.333,4.578,13.126,11.354
	c2.776,10.482-2.659,18.026-15.116,20.968c-0.363,0.031-0.727,0.062-1.09,0.092c-0.593,0.051-1.186,0.101-1.779,0.151
	c-10.093-0.001-20.186-0.001-30.279-0.002c-0.283-0.16-0.566-0.321-0.85-0.481c0-7.954-0.003-15.908-0.001-23.861
	c0.001-7.129,0.003-7.13,7.377-7.132c5.137-0.001,10.279,0.145,15.408-0.051c3.404-0.129,6.945,0.976,10.209-0.865
	C57.995,28.023,58.993,27.966,59.991,27.909z"/>
<path fill-rule="evenodd" clip-rule="evenodd" fill="#570000" d="M56.997,28.081c-3.265,1.841-6.805,0.736-10.209,0.865
	c-5.129,0.195-10.271,0.05-15.408,0.051c-7.374,0.002-7.375,0.003-7.377,7.132c-0.001,7.953,0.001,15.907,0.001,23.861
	c-0.337-0.064-0.675-0.128-1.013-0.191c-0.04-0.327-0.2-0.577-0.479-0.749c0.012-7.72,0.023-15.439,0.035-23.159
	c0.971-2.52,0.341-5.133,0.448-7.703C34.327,27.548,45.662,27.755,56.997,28.081z"/>
<path fill-rule="evenodd" clip-rule="evenodd" fill="#FAF7F7" d="M22.13,102.514c10.78,1.052,21.588,0.161,32.379,0.454
	c2.16,0.059,4.321,0.1,6.481,0.148c-0.548,2.313-2.431,1.877-4.021,1.881c-10.295,0.026-20.59,0.021-30.885,0.005
	C24.273,105,22.229,105.277,22.13,102.514z"/>
<path fill-rule="evenodd" clip-rule="evenodd" fill="#FAF7F7" d="M56.997,28.081c-11.335-0.326-22.67-0.533-34.002,0.106
	c-0.309-0.124-0.607-0.103-0.895,0.065c0.206-2.389,1.976-2.261,3.653-2.261c10.252-0.004,20.503-0.003,30.755,0
	c1.507,0,3.072-0.085,3.483,1.917C58.993,27.966,57.995,28.023,56.997,28.081z"/>
<path fill-rule="evenodd" clip-rule="evenodd" fill="#FAF7F7" d="M60.007,70.07c-12.337,0.003-24.674,0.006-37.011,0.009
	c0.402-2.329,2.222-2.074,3.856-2.076c9.763-0.014,19.525-0.014,29.288,0C57.772,68.005,59.593,67.747,60.007,70.07z"/>
<path fill-rule="evenodd" clip-rule="evenodd" fill="#FAF7F7" d="M24.854,60.472c10.093,0.001,20.186,0.001,30.279,0.002
	C45.04,63.025,34.947,63.026,24.854,60.472z"/>
<path fill-rule="evenodd" clip-rule="evenodd" fill="#690505" d="M22.1,28.253c0.288-0.168,0.586-0.189,0.895-0.065
	c-0.107,2.57,0.523,5.184-0.448,7.703C22.398,33.345,22.249,30.799,22.1,28.253z"/>
<path fill-rule="evenodd" clip-rule="evenodd" fill="#690505" d="M22.512,59.05c0.279,0.172,0.439,0.422,0.479,0.749
	C22.374,59.842,22.22,59.588,22.512,59.05z"/>
<path fill-rule="evenodd" clip-rule="evenodd" fill="#FAF7F7" d="M56.912,60.322c0.363-0.03,0.727-0.061,1.09-0.092
	C57.72,61.229,57.36,61.295,56.912,60.322z"/>
<path fill-rule="evenodd" clip-rule="evenodd" fill="#680202" d="M543.561,49.804c14.991,0.006,25.302,11.014,25.178,26.877
	c-0.123,15.765-10.233,26.566-24.957,26.666c-15.285,0.103-25.723-10.842-25.688-26.937
	C518.128,60.585,528.454,49.797,543.561,49.804z"/>
<path fill-rule="evenodd" clip-rule="evenodd" fill="#680202" d="M269.333,77.068c0.049,18.598-13.211,30.31-30.495,26.937
	c-10.469-2.043-18.365-10.978-19.738-22.334c-1.619-13.39,3.948-24.853,14.425-29.696c9.871-4.564,21.898-2.338,28.897,5.35
	C266.99,62.343,269.313,68.976,269.333,77.068z"/>
<path fill-rule="evenodd" clip-rule="evenodd" fill="#680202" d="M782.19,77.273c-0.029,20.582-17.51,33.003-35.456,25.193
	c-12.786-5.563-18.69-22.131-13.079-36.703c4.938-12.822,18.426-19.088,31.894-14.814C775.729,54.179,782.209,64.429,782.19,77.273z
	"/>
<path fill-rule="evenodd" clip-rule="evenodd" fill="#680202" d="M191.214,77.463c-0.134,18.376-13.217,29.81-30.381,26.554
	c-11.341-2.151-19.32-12.014-20.013-24.735c-0.762-13.968,6.154-25.052,17.767-28.478c11.756-3.468,23.063,0.781,28.881,10.863
	C190.289,66.557,191.313,71.878,191.214,77.463z"/>
<path fill-rule="evenodd" clip-rule="evenodd" fill="#680202" d="M418.22,77.07c0.028,18.848-13.517,30.604-30.939,26.853
	c-13.874-2.987-22.228-17.896-18.87-33.683c2.947-13.855,14.251-21.853,28.678-20.286C409.655,51.318,418.197,62.279,418.22,77.07z"
	/>
</svg>
