<?xml version="1.0" encoding="utf-8"?>
<!-- Generator: Adobe Illustrator 16.0.0, SVG Export Plug-In . SVG Version: 6.00 Build 0)  -->
<svg version="1.2" baseProfile="tiny" id="Layer_1" xmlns="http://www.w3.org/2000/svg" xmlns:xlink="http://www.w3.org/1999/xlink"
	 x="0px" y="0px" width="960px" height="560px" viewBox="0 0 960 560" xml:space="preserve">
<g>
	<rect x="47.5" y="51.5" fill="none" width="572" height="89"/>
	<path d="M100.568,74.427c-0.936,1.656-2.16,3.168-3.384,4.608c-1.152,1.368-2.448,2.592-3.888,3.744
		c-2.88,2.448-6.121,4.321-9.649,5.688c-0.72,0.288-1.368-0.288-1.584-0.864c-0.216-0.72,0.288-1.296,0.864-1.512
		c0.216-0.072,1.08-0.504,1.224-0.504c0.432-0.216,0.864-0.432,1.296-0.648c0.864-0.432,1.728-0.937,2.52-1.44
		c0.792-0.432,1.584-1.008,2.376-1.584c0.144-0.072,1.008-0.72,1.008-0.792c0.36-0.288,0.72-0.576,1.08-0.864
		c1.296-1.152,2.448-2.376,3.601-3.744c0.144-0.216,0.288-0.432,0.504-0.576c0-0.144,0.144-0.216,0.216-0.288
		c0.216-0.36,0.504-0.72,0.72-1.08c0.936-1.368,2.016-2.88,2.016-4.68c0-0.144-0.072-0.937-0.072-1.008
		c-0.072-0.144-0.144-0.36-0.144-0.504c-0.072-0.072-0.072-0.216-0.144-0.288c0,0,0-0.072,0-0.144
		c-0.072-0.072-0.144-0.216-0.144-0.216c-0.072-0.144-0.072-0.216-0.144-0.288c-0.072-0.144-0.144-0.288-0.288-0.432
		c-0.072-0.144-0.072-0.216-0.144-0.288l-0.144-0.144c-0.072-0.144-0.216-0.288-0.288-0.36c-0.288-0.36-0.576-0.648-0.937-0.936
		c0,0-0.072,0-0.072-0.072c0.072,0.072-0.144-0.072-0.144-0.072c-0.216-0.144-0.36-0.288-0.504-0.36
		c-0.36-0.216-0.72-0.432-1.152-0.576l-0.216-0.144c-0.072,0-0.216-0.072-0.288-0.072c-0.216-0.072-0.36-0.144-0.576-0.216
		c-0.936-0.288-1.872-0.504-2.808-0.648c-0.072,0-0.288-0.072-0.288-0.072c-0.144,0-0.216,0-0.36,0
		c-0.216-0.072-0.432-0.072-0.648-0.072c-0.432-0.072-0.937-0.072-1.368-0.144c-1.08-0.072-2.088-0.144-3.096-0.144
		c-4.321-0.288-8.641-0.504-12.961-0.792c-0.864-0.072-1.584-1.008-1.08-1.873c0.936-1.584,1.944-3.24,2.88-4.824
		c0.432-0.72,0.864-1.512,1.368-2.304c0.144-0.288,0.36-0.648,0.504-1.008c0.072-0.072,0.288-0.648,0.288-0.72
		c0.072-0.216,0.144-0.36,0.144-0.504v-0.072c0-0.072,0.072-0.072,0.072-0.144c0-0.144,0-0.216,0-0.36c0-0.072,0-0.072,0-0.072
		c-0.072-0.072-0.072-0.144-0.072-0.144s-0.144-0.36-0.216-0.36c0,0,0,0-0.072-0.072c0,0-0.072,0-0.072-0.072
		c-0.072-0.072-0.648-0.216-0.72-0.216H75.51c-0.072,0-0.072,0-0.144,0c-0.288,0-0.576,0-0.864-0.072
		c-0.72,0-1.368,0.072-2.016,0.072c-0.36,0.072-0.648,0.072-0.936,0.144c-0.216,0-0.36,0-0.504,0c-0.072,0-0.144,0.072-0.216,0.072
		c-0.072,0-0.072,0-0.072,0c-0.648,0.072-1.296,0.216-1.944,0.36c-1.224,0.216-2.521,0.576-3.672,1.008
		c-0.36,0.144-0.648,0.216-1.008,0.36c-0.144,0.072-0.576,0.288-0.648,0.288c-0.648,0.288-1.224,0.576-1.8,0.864
		c-0.36,0.216-0.792,0.432-1.224,0.648c0.288,1.728,0.576,3.384,0.936,5.112c1.081,5.977,2.376,11.953,3.745,17.93
		c1.44,5.977,2.952,11.881,4.68,17.786c0.144,0.648-0.288,1.296-0.936,1.512c-0.648,0.216-1.368-0.216-1.512-0.864
		c-0.936-3.313-1.872-6.625-2.736-9.937c-1.512-5.904-2.88-11.881-4.104-17.857c-0.864-4.032-1.656-8.137-2.376-12.169
		c-0.216,0.144-0.432,0.288-0.648,0.432c0,0.072-0.576,0.504-0.504,0.432c-0.504,0.432-1.008,0.864-1.512,1.296
		c-0.936,0.936-1.872,1.872-2.664,2.88c-0.432,0.576-1.368,0.432-1.8,0c-0.504-0.504-0.432-1.296,0-1.8
		c1.872-2.304,4.176-4.32,6.697-5.977c-0.144-1.08-0.36-2.088-0.504-3.168c-0.072-0.648,0.144-1.296,0.864-1.512
		c0.648-0.216,1.44,0.216,1.584,0.864c0.144,0.792,0.216,1.584,0.36,2.376c4.392-2.304,9.289-3.601,14.257-3.672
		c1.656,0,3.313,0.216,4.393,1.656c0.864,1.224,0.576,2.953,0.072,4.249c-0.648,1.512-1.584,2.88-2.376,4.249
		c-0.576,0.936-1.08,1.872-1.656,2.808c4.32,0.216,8.641,0.504,12.961,0.72c4.032,0.288,8.28,0.72,11.449,3.528
		c1.296,1.224,2.376,2.88,2.736,4.68C102.225,70.539,101.648,72.555,100.568,74.427z M76.734,50.089v-0.072V50.089z"/>
	<path d="M131.67,68.667c-2.736,0.432-5.4,1.008-7.993,1.656c-1.368,0.432-2.664,0.792-3.816,1.224
		c-0.648,0.216-1.296,0.432-1.944,0.72c-0.216,0.072-0.576,0.216-0.864,0.288c0,0,0,0-0.072,0c0,0.072,0,0.072-0.072,0.144
		c-0.144,0-0.288,0.072-0.432,0.072c-0.144,0.216-0.432,0.36-0.648,0.36c0,0.072-0.144,0.144-0.216,0.216l-0.144,0.144
		c-0.144,0.072-0.216,0.216-0.36,0.36c0,0-0.144,0.144-0.072,0.144c-0.072,0-0.144,0.072-0.144,0.144h-0.072
		c0.936,2.376,1.944,4.681,3.024,6.985c1.8,3.672,3.672,7.272,5.761,10.729c0.288,0.504,0.144,1.224-0.36,1.656
		c-0.648,0.288-1.296,0.072-1.656-0.504c-6.121-9.577-8.497-14.041-11.449-25.202c-0.144-0.576,0.144-1.224,0.792-1.44
		c0.648-0.216,1.152,0.216,1.512,0.864c1.224,2.448,0.576,1.368,0.864,2.808c0.072,0.576,0.36,1.081,0.576,1.729
		c1.44-1.152,3.312-1.729,4.968-2.376c3.96-1.296,8.064-2.304,12.241-2.952c0.576-0.144,1.224,0.144,1.44,0.792
		C132.606,67.803,132.318,68.595,131.67,68.667z"/>
	<path d="M171.918,73.203c-0.36,0.648-1.08,0.72-1.728,0.432c-0.072,0-0.144-0.072-0.216-0.072c-0.144-0.072-0.288-0.144-0.36-0.144
		c-0.288-0.144-0.576-0.216-0.792-0.36c-0.576-0.144-1.08-0.36-1.656-0.504c-1.08-0.288-2.088-0.504-3.168-0.648
		c-0.072,0-0.36,0-0.36,0c-0.144-0.072-0.216-0.072-0.36-0.072c-0.288,0-0.576-0.072-0.864-0.072c-0.504,0-1.08-0.072-1.584-0.072
		c-1.08,0-2.16,0.072-3.24,0.216c-0.072,0-0.36,0.072-0.36,0.072c-0.144,0-0.216,0-0.36,0.072c-0.288,0-0.504,0.072-0.72,0.072
		c-0.504,0.144-1.008,0.216-1.44,0.36c-1.008,0.288-2.016,0.576-2.952,0.936c0,0-0.36,0.144-0.288,0.144
		c-0.144,0.072-0.216,0.072-0.288,0.144c-0.216,0.072-0.432,0.144-0.648,0.288c-0.36,0.144-0.792,0.36-1.152,0.576
		c-0.432,0.216-0.792,0.504-1.224,0.792c-0.144,0.072-0.36,0.216-0.504,0.36c-0.072,0-0.144,0.072-0.216,0.144
		c-0.072,0-0.144,0.072-0.144,0.072c-0.72,0.576-1.368,1.224-1.944,1.872c0,0.072-0.216,0.288-0.144,0.288
		c-0.072,0.072-0.144,0.072-0.144,0.144c-0.144,0.216-0.288,0.36-0.36,0.576c-0.216,0.36-0.432,0.72-0.648,1.08
		c0,0.072-0.144,0.36-0.072,0.288c-0.072,0.072-0.072,0.144-0.144,0.216c0,0.144-0.072,0.36-0.144,0.576
		c-0.072,0.216-0.144,0.432-0.144,0.648l-0.072,0.288c0,0.072,0,0.216,0,0.36c0-0.072,0.072,0.216,0.072,0.288c0,0,0,0,0,0.072
		c0,0,0,0,0.072,0c0,0.072,0.288,0.432,0.36,0.504c0.072,0.072,0.216,0.144,0.144,0.144c0.144,0.072,0.288,0.216,0.432,0.288
		c0.072,0,0.072,0,0.144,0c0,0,0,0,0.072,0.072c0.072,0,0.144,0.072,0.288,0.072c0.072,0,0.216,0.072,0.288,0.072h0.072
		c0,0,0,0,0.072,0c0.288,0,0.504,0,0.792,0c0,0,0.432-0.072,0.216,0c0.144-0.072,0.288-0.072,0.432-0.072
		c1.08-0.216,2.088-0.648,3.096-1.008c0.504-0.216,1.008-0.36,1.512-0.576c0-0.072,0.072-0.072,0.072-0.072h0.072
		c0.144-0.072,0.216-0.144,0.36-0.144c0.216-0.144,0.432-0.216,0.648-0.288c0.936-0.432,1.872-0.936,2.808-1.368
		c1.8-1.008,3.528-2.088,5.185-3.313c0.432-0.288,0.864-0.576,1.296-0.936c0.072,0,0.072-0.072,0.072-0.072c0.072,0,0.072,0,0.072,0
		c0.072-0.072,0.216-0.144,0.288-0.216c0.216-0.216,0.36-0.36,0.576-0.504c0.792-0.648,1.584-1.296,2.304-2.016
		c0.576-0.576,1.584-0.504,2.016,0.216c1.152,2.088,0.72,4.321,0.576,6.553c0,1.152,0,2.304,0.072,3.457
		c0.072,1.08,0.216,2.016,0.504,3.24c0.144,0.648-0.216,1.368-0.864,1.512c-0.648,0.216-1.44-0.216-1.584-0.864
		c-0.504-2.304-0.72-4.681-0.648-7.057c0.072-1.08,0.216-2.088,0.216-3.168c0,0,0,0,0-0.72c-4.104,3.456-8.641,6.264-13.609,8.281
		c-0.936,0.36-1.944,0.72-2.952,1.08c-1.08,0.36-2.304,0.72-3.528,0.576c-2.232-0.216-4.393-1.584-4.537-4.032
		c-0.072-1.08,0.36-2.232,0.792-3.24c0.288-0.864,0.792-1.584,1.296-2.304c1.224-1.584,2.664-2.808,4.32-3.888
		c7.128-4.464,16.489-4.681,24.122-1.368C172.134,71.763,172.278,72.627,171.918,73.203z"/>
	<path d="M219.438,85.3c-0.36,0.576-1.152,0.864-1.728,0.504c-2.592-1.656-5.113-3.384-7.561-5.256
		c-2.016,2.16-4.248,4.032-6.769,5.544c-3.168,2.016-6.84,3.672-10.585,4.393c-3.384,0.576-7.344,0.576-10.297-1.44
		c-1.656-1.08-2.88-2.664-3.456-4.608c-0.576-1.944-0.576-4.104,0-6.121c0.576-2.016,1.656-3.816,2.88-5.472
		c1.296-1.656,2.664-3.168,4.248-4.537c2.952-2.448,7.129-4.608,11.089-3.168h0.072c-0.072-0.216-0.072-0.504-0.144-0.792
		c-0.216-1.728-0.144-3.456,0.288-5.112c0.864-3.168,2.952-6.121,6.121-7.272c3.816-1.368,8.137,0.432,10.729,3.384
		c1.368,1.584,2.448,3.384,3.024,5.472c0.648,2.088,0.72,4.249,0.36,6.337c-0.648,4.176-2.953,7.993-5.617,11.233
		c-0.072,0.072-0.144,0.216-0.288,0.288c0.504,0.432,1.008,0.792,1.584,1.152c1.8,1.296,3.672,2.592,5.617,3.745
		C219.582,83.932,219.798,84.724,219.438,85.3z M208.133,79.036c-0.36-0.36-0.792-0.648-1.224-1.008
		c-1.512-1.224-3.024-2.52-4.392-3.96c-0.288,0.504-0.864,0.864-1.44,0.648c-0.648-0.144-1.08-0.864-0.936-1.512
		c0.072-0.216,0.144-0.36,0.216-0.576c0-0.072,0-0.216,0-0.288c0-0.072,0-0.144,0-0.288c0,0,0,0,0-0.36c0,0,0,0,0-0.072
		c-0.072-0.072-0.072-0.216-0.072-0.288c-0.432-0.576-0.792-1.08-1.08-1.656c-0.144-0.288-0.288-0.504-0.432-0.792
		c-0.144-0.072-0.216-0.216-0.36-0.288l-0.072-0.072c0,0-0.072,0-0.072-0.072c-0.072,0-0.144-0.072-0.216-0.144
		c-0.216-0.144-0.432-0.288-0.648-0.36c-0.144-0.072-0.216-0.144-0.36-0.216l-0.216-0.072c-0.36-0.144-0.792-0.288-1.224-0.36
		c-0.072,0-0.432-0.072-0.288-0.072c-0.072,0-0.144,0-0.216,0c-0.216,0-0.504,0-0.72,0c-0.144,0-0.288,0-0.504,0
		c0,0.072-0.288,0.072-0.216,0.072c-0.144,0-0.36,0.072-0.504,0.072c-0.504,0.144-0.936,0.216-1.296,0.432
		c-0.144,0-0.288,0.072-0.36,0.072c-0.072,0.072-0.216,0.144-0.216,0.144c-0.216,0.072-0.432,0.144-0.648,0.288
		c-0.36,0.216-0.792,0.432-1.152,0.72c-0.216,0.144-0.432,0.288-0.648,0.432c-0.144,0.072-0.216,0.144-0.288,0.216
		c-0.072,0-0.072,0-0.072,0.072h-0.072c-0.36,0.288-0.72,0.576-1.08,0.936c-0.72,0.648-1.44,1.368-2.088,2.088
		c-0.72,0.792-1.224,1.368-1.728,2.232c-0.576,0.792-1.152,1.656-1.512,2.592c-0.072,0.072-0.072,0.072-0.072,0.144
		c0,0-0.072,0.072-0.072,0.144c-0.072,0.072-0.072,0.216-0.144,0.36c-0.072,0.216-0.144,0.432-0.216,0.648
		c-0.144,0.432-0.288,1.296-0.288,1.368c0,0.072,0,0.144,0,0.216c-0.072,0.144-0.072,0.216-0.072,0.36c0,0.216,0,0.432,0,0.72
		c0,0.216,0,0.432,0,0.648c0.072,0.072,0.072,0.216,0.072,0.288c0,0,0,0.144,0,0.216c0.072,0.432,0.216,0.936,0.36,1.44
		c0.072,0,0.144,0.288,0.072,0.144c0.072,0.072,0.072,0.144,0.144,0.288c0.072,0.144,0.216,0.36,0.36,0.576
		c0.072,0.144,0.144,0.216,0.216,0.36c0,0,0.072,0.144,0.144,0.144c0.072,0.144,0.216,0.288,0.288,0.36
		c0.144,0.144,0.288,0.288,0.432,0.432c0.072,0.072,0.144,0.072,0.216,0.144l0.072,0.072c0.36,0.288,0.648,0.432,1.008,0.648
		c0.144,0.072,0.288,0.144,0.504,0.216l0.072,0.072c0.072,0,0.144,0.072,0.288,0.072c0.36,0.144,0.792,0.288,1.224,0.36
		c0.144,0.072,0.36,0.072,0.576,0.144c0.072,0,0.144,0,0.288,0c0,0,0,0,0.072,0c0.792,0.144,1.656,0.144,2.521,0.072
		c0.432,0,0.864,0,1.296-0.072h0.072c0.144-0.072,0.216-0.072,0.36-0.072c0.144-0.072,0.36-0.072,0.576-0.144
		c0.864-0.144,1.8-0.36,2.665-0.648c0.432-0.144,0.936-0.36,1.368-0.504c0.216-0.072,0.432-0.144,0.648-0.216
		c0.072-0.072,0.216-0.144,0.288-0.144c0.072,0,0.144-0.072,0.216-0.072c1.729-0.792,3.384-1.656,4.969-2.736
		c0.432-0.216,0.864-0.504,1.224-0.792c0.216-0.144,0.36-0.288,0.576-0.432c0.072-0.072,0.144-0.072,0.216-0.144
		c0.072-0.072,0.144-0.144,0.144-0.144c0.792-0.576,1.512-1.224,2.232-1.872C207.341,79.828,207.701,79.468,208.133,79.036z
		 M199.564,62.834c0,0.216,0,0.432,0.072,0.648c0,0,0,0,0,0.288c0.072,0.36,0.144,0.792,0.288,1.152
		c0.072,0.504,0.216,0.936,0.432,1.44c0,0.072,0.072,0.144,0.144,0.288c0,0,0,0,0,0.072c0,0,0,0,0,0.072
		c0.144,0.144,0.216,0.36,0.288,0.576c0.072,0.072,0.072,0.072,0.072,0.072c0.792,0.792,1.368,1.728,1.728,2.736
		c0,0.072,0.072,0.144,0.144,0.216c0,0.072,0.144,0.144,0.144,0.216c0.072,0.072,0.144,0.144,0.216,0.216
		c0.288,0.36,0.576,0.72,0.864,1.08c1.368,1.44,2.808,2.736,4.32,3.96c0.504,0.504,1.008,0.864,1.584,1.296
		c0.288-0.36,0.576-0.72,0.936-1.152v-0.072c0.072,0,0.072-0.072,0.144-0.144c0.072-0.072,0.144-0.144,0.216-0.288
		c0.144-0.144,0.288-0.36,0.432-0.576c0.288-0.432,0.576-0.792,0.792-1.224c0.576-0.864,1.08-1.8,1.512-2.736
		c0.072-0.144,0.144-0.288,0.216-0.432c0-0.072,0.072-0.072,0.072-0.144c0.072-0.288,0.144-0.504,0.288-0.72
		c0.144-0.432,0.288-0.936,0.432-1.368c0.144-0.504,0.288-1.08,0.36-1.584c0-0.072,0-0.144,0-0.288l0.072-0.216
		c0-0.216,0-0.432,0.072-0.72c0-0.504,0-1.008,0-1.584c-0.072-0.216-0.072-0.432-0.072-0.72c0,0,0,0,0-0.072c0,0,0,0,0-0.072
		c-0.072-0.072-0.072-0.216-0.072-0.288c-0.144-0.504-0.216-1.008-0.36-1.512c-0.072-0.216-0.144-0.432-0.288-0.648
		c0-0.144-0.072-0.288-0.072-0.36c-0.072,0-0.072-0.072-0.072-0.072s0,0,0-0.072c-0.432-0.864-0.864-1.728-1.512-2.448
		c0,0-0.144-0.288-0.216-0.288c-0.072-0.072-0.144-0.144-0.216-0.288c-0.144-0.144-0.288-0.288-0.432-0.504
		c-0.216-0.144-0.36-0.288-0.504-0.432c-0.144-0.072-0.216-0.144-0.288-0.216l-0.144-0.144c-0.432-0.288-0.792-0.576-1.224-0.792
		c-0.216-0.072-0.36-0.216-0.576-0.288c-0.072-0.072-0.144-0.072-0.216-0.144c-0.072,0-0.216-0.072-0.216-0.072
		c-0.504-0.144-0.936-0.288-1.44-0.36c-0.072-0.072-0.144-0.072-0.216-0.072c-0.072,0-0.216,0-0.216,0
		c-0.216-0.072-0.432-0.072-0.72-0.072c-0.288,0-0.504,0-0.792,0.072h-0.072c-0.072,0-0.144,0-0.288,0.072
		c-0.288,0.072-0.648,0.144-1.008,0.288c0,0,0,0-0.072,0c0,0,0,0,0,0.072c-0.072,0-0.216,0.072-0.288,0.072
		c-0.144,0.072-0.288,0.144-0.432,0.288c-0.144,0.072-0.288,0.144-0.432,0.288c-0.072,0-0.072,0.072-0.144,0.072
		c-0.072,0-0.072,0.072-0.072,0.072c-0.288,0.216-0.576,0.504-0.864,0.792c-0.072,0.072-0.144,0.144-0.36,0.432
		c-0.072,0.072-0.072,0.144-0.144,0.216c-0.216,0.36-0.432,0.648-0.648,1.008c-0.072,0.144-0.144,0.288-0.216,0.504
		c-0.072,0.072-0.072,0.144-0.144,0.288c-0.288,0.72-0.504,1.44-0.648,2.232c0,0.144-0.072,0.36-0.072,0.36
		c0,0.216,0,0.432-0.072,0.576C199.564,62.042,199.564,62.402,199.564,62.834z"/>
	<path d="M308.286,93.077c0,0.72-0.648,1.224-1.224,1.296c-1.008,0-1.944,0.072-2.88,0.216c-7.849,0.72-8.353,0.576-16.201,0.288
		c-3.745-0.072-7.489-0.288-11.161-0.648c-3.024-0.288-6.048-0.72-9.001-1.44c-5.616-1.296-10.801-3.816-14.545-8.281
		c-4.608-5.4-5.617-12.673-5.761-19.514c-0.216-7.705,0.72-15.41,2.665-22.898c0.144-0.648,0.792-1.008,1.44-0.864
		c0.72,0.144,1.08,0.936,0.936,1.512c-0.288,0.936-0.504,1.872-0.72,2.736c-0.432,1.8-0.792,3.672-1.008,5.544
		c-0.072,0.432-0.144,1.008-0.216,1.296c0,0.288-0.072,0.864-0.144,1.296c-0.144,0.936-0.216,1.872-0.288,2.808
		c-0.288,3.744-0.36,7.489-0.144,11.161c0.072,0.864,0.144,1.728,0.216,2.52c0.072,0.216,0.072,0.432,0.072,0.648
		c0.072,0.072,0.072,0.144,0.072,0.216c0,0.072,0,0.144,0,0.216c0.072,0.432,0.144,0.72,0.216,1.152
		c0.288,1.729,0.648,3.313,1.224,4.825c0.072,0.216,0.792,1.944,0.864,2.088c0.36,0.72,0.72,1.512,1.224,2.161
		c0.144,0.216,0.72,1.008,0.864,1.152c0.144,0.144,0.216,0.288,0.36,0.36c0.432,0.576,0.864,1.08,1.368,1.512
		c0.288,0.216,0.504,0.432,0.792,0.648c0.144,0.144,0.288,0.288,0.432,0.36c0.072,0.072,0.144,0.072,0.144,0.144
		c-0.216-0.216,0.072,0,0.072,0.072c0.504,0.432,1.08,0.792,1.728,1.08c0.576,0.432,1.152,0.72,1.8,1.08
		c0.288,0.144,0.648,0.288,0.936,0.432c1.224,1.224,7.345,2.376,8.569,2.736c0.72,0.144,1.44,0.288,2.088,0.36
		c0.216,0.072,0.432,0.072,0.576,0.072c0.288,0.144,1.296,0.072,1.368,0.144c1.584,0.216,3.096,0.288,4.681,0.432
		c3.888,0.288,7.705,0.504,11.593,0.504c7.777,0.144,8.065,0.144,15.77-0.576C307.71,91.853,308.214,92.429,308.286,93.077z"/>
	<path d="M340.323,73.203c-0.36,0.648-1.08,0.72-1.728,0.432c-0.072,0-0.144-0.072-0.216-0.072c-0.144-0.072-0.288-0.144-0.36-0.144
		c-0.288-0.144-0.576-0.216-0.792-0.36c-0.576-0.144-1.08-0.36-1.656-0.504c-1.08-0.288-2.088-0.504-3.168-0.648
		c-0.072,0-0.36,0-0.36,0c-0.144-0.072-0.216-0.072-0.36-0.072c-0.288,0-0.576-0.072-0.864-0.072c-0.504,0-1.08-0.072-1.584-0.072
		c-1.08,0-2.16,0.072-3.24,0.216c-0.072,0-0.36,0.072-0.36,0.072c-0.144,0-0.216,0-0.36,0.072c-0.288,0-0.504,0.072-0.72,0.072
		c-0.504,0.144-1.008,0.216-1.44,0.36c-1.008,0.288-2.016,0.576-2.952,0.936c0,0-0.36,0.144-0.288,0.144
		c-0.144,0.072-0.216,0.072-0.288,0.144c-0.216,0.072-0.432,0.144-0.648,0.288c-0.36,0.144-0.792,0.36-1.152,0.576
		c-0.432,0.216-0.792,0.504-1.224,0.792c-0.144,0.072-0.36,0.216-0.504,0.36c-0.072,0-0.144,0.072-0.216,0.144
		c-0.072,0-0.144,0.072-0.144,0.072c-0.72,0.576-1.368,1.224-1.944,1.872c0,0.072-0.216,0.288-0.144,0.288
		c-0.072,0.072-0.144,0.072-0.144,0.144c-0.144,0.216-0.288,0.36-0.36,0.576c-0.216,0.36-0.432,0.72-0.648,1.08
		c0,0.072-0.144,0.36-0.072,0.288c-0.072,0.072-0.072,0.144-0.144,0.216c0,0.144-0.072,0.36-0.144,0.576
		c-0.072,0.216-0.144,0.432-0.144,0.648l-0.072,0.288c0,0.072,0,0.216,0,0.36c0-0.072,0.072,0.216,0.072,0.288c0,0,0,0,0,0.072
		c0,0,0,0,0.072,0c0,0.072,0.288,0.432,0.36,0.504c0.072,0.072,0.216,0.144,0.144,0.144c0.144,0.072,0.288,0.216,0.432,0.288
		c0.072,0,0.072,0,0.144,0c0,0,0,0,0.072,0.072c0.072,0,0.144,0.072,0.288,0.072c0.072,0,0.216,0.072,0.288,0.072h0.072
		c0,0,0,0,0.072,0c0.288,0,0.504,0,0.792,0c0,0,0.432-0.072,0.216,0c0.144-0.072,0.288-0.072,0.432-0.072
		c1.08-0.216,2.088-0.648,3.096-1.008c0.504-0.216,1.008-0.36,1.512-0.576c0-0.072,0.072-0.072,0.072-0.072h0.072
		c0.144-0.072,0.216-0.144,0.36-0.144c0.216-0.144,0.432-0.216,0.648-0.288c0.936-0.432,1.872-0.936,2.808-1.368
		c1.8-1.008,3.528-2.088,5.185-3.313c0.432-0.288,0.864-0.576,1.296-0.936c0.072,0,0.072-0.072,0.072-0.072c0.072,0,0.072,0,0.072,0
		c0.072-0.072,0.216-0.144,0.288-0.216c0.216-0.216,0.36-0.36,0.576-0.504c0.792-0.648,1.584-1.296,2.304-2.016
		c0.576-0.576,1.584-0.504,2.016,0.216c1.152,2.088,0.72,4.321,0.576,6.553c0,1.152,0,2.304,0.072,3.457
		c0.072,1.08,0.216,2.016,0.504,3.24c0.144,0.648-0.216,1.368-0.864,1.512c-0.648,0.216-1.44-0.216-1.584-0.864
		c-0.504-2.304-0.72-4.681-0.648-7.057c0.072-1.08,0.216-2.088,0.216-3.168c0,0,0,0,0-0.72c-4.104,3.456-8.641,6.264-13.609,8.281
		c-0.936,0.36-1.944,0.72-2.952,1.08c-1.08,0.36-2.304,0.72-3.528,0.576c-2.232-0.216-4.393-1.584-4.537-4.032
		c-0.072-1.08,0.36-2.232,0.792-3.24c0.288-0.864,0.792-1.584,1.296-2.304c1.224-1.584,2.664-2.808,4.32-3.888
		c7.128-4.464,16.489-4.681,24.122-1.368C340.539,71.763,340.683,72.627,340.323,73.203z"/>
	<path d="M373.298,94.589c-0.72,0.144-1.296-0.288-1.584-0.936c-1.296-3.528-2.592-7.057-3.816-10.585
		c-0.72-1.8-1.368-3.6-2.016-5.4c-0.288-0.864-0.576-1.656-0.936-2.52c0-0.072-0.072-0.216-0.072-0.288c0,0,0,0,0-0.072
		c-0.072-0.144-0.144-0.288-0.216-0.432c-0.144-0.288-0.288-0.504-0.504-0.792c0,0-0.144-0.144-0.144-0.216
		c-0.072-0.072-0.144-0.144-0.216-0.216c-0.072,0-0.072,0-0.072-0.072c0,0,0,0-0.072,0c-0.072-0.072-0.144-0.072-0.216-0.144
		c-0.072,0-0.288-0.144-0.144-0.072c-0.072-0.072-0.144-0.072-0.216-0.072c-0.144-0.072-0.216-0.072-0.288-0.072c0,0,0,0-0.072,0
		c-0.144,0-0.288,0-0.432,0h-0.216c-0.144,0-0.288,0.072-0.432,0.144c-0.072,0-0.216,0.072-0.288,0.072h-0.072v0.072
		c-0.216,0.072-0.432,0.144-0.648,0.288c-0.216,0.144-0.432,0.288-0.648,0.432c0,0.072,0,0.072-0.072,0.072
		c-0.072,0.072-0.216,0.144-0.288,0.216c-0.36,0.36-0.648,0.648-1.008,1.008c-0.72,0.792-1.08,1.368-1.728,2.232
		c-1.224,1.729-2.376,3.528-3.384,5.4c-1.008,1.944-1.8,3.745-2.52,5.689c-0.216,0.504-0.648,0.936-1.224,0.936
		c-0.432,0-0.936-0.216-1.08-0.648c-2.521-5.76-3.672-12.097-3.313-18.434c0-0.648,0.504-1.224,1.224-1.224s1.296,0.576,1.296,1.224
		c-0.072,1.512-0.072,3.024,0,4.537c0.072,1.512,0.216,2.808,0.504,4.249c0.216,1.44,0.576,2.88,1.008,4.32
		c0.144,0.432,0.216,0.864,0.36,1.296c1.152-2.52,2.448-4.968,3.96-7.272c0.576-0.792,1.152-1.584,1.728-2.376
		c0.576-0.72,1.152-1.512,1.8-2.16c1.296-1.296,2.88-2.376,4.752-2.592c2.161-0.288,3.96,1.152,4.825,3.024
		c0.504,0.936,0.864,1.944,1.224,3.024c0.432,1.08,0.792,2.232,1.224,3.312c1.656,4.537,3.24,9.001,4.896,13.465
		C374.378,93.653,373.946,94.373,373.298,94.589z"/>
	<path d="M409.009,101.357c0,1.873-0.144,3.889-1.008,5.617c-1.008,1.944-2.88,3.024-4.968,3.456
		c-2.232,0.504-4.537,0.648-6.841,0.432c-1.152-0.144-2.304-0.288-3.456-0.576c-1.008-0.216-2.088-0.504-2.952-1.08
		c-0.864-0.648-1.584-1.584-1.512-2.736c0.144-1.152,0.72-2.16,1.872-2.448c0.648-0.144,1.368,0.216,1.512,0.864
		c0.216,0.648-0.144,1.368-0.792,1.584h-0.072c0,0,0,0,0,0.144c0,0.072,0.072,0.072,0.072,0.072c0,0.072,0,0.072,0,0.072
		s0,0.072,0.072,0.072c0.072,0.072,0.144,0.144,0.144,0.216c0.072,0,0.072,0,0.072,0c0.144,0.144,0.432,0.288,0.504,0.288
		c0.072,0,0.072,0,0.072,0c0.072,0.072,0.144,0.072,0.216,0.072c0.864,0.288,1.728,0.504,2.592,0.72
		c0.576,0.072,0.864,0.144,1.296,0.144c0.432,0.072,0.864,0.072,1.296,0.144c0.936,0,1.872,0,2.808-0.072
		c0.288,0,0.576,0,0.792-0.072c0,0,0.36,0,0.288,0c0.072,0,0.144-0.072,0.216-0.072c0.432-0.072,0.792-0.144,1.224-0.216
		c0.432-0.072,0.864-0.216,1.296-0.36c0,0,0.216-0.144,0.216-0.072c0-0.072,0.072-0.072,0.072-0.072
		c0.216-0.072,0.36-0.216,0.576-0.288c0.072-0.072,0.144-0.072,0.216-0.144l0.144-0.144c0.144-0.144,0.288-0.288,0.36-0.432
		c0.072,0,0.072,0,0.072,0s0,0,0-0.072c0.072,0,0.072-0.072,0.144-0.144c0.072-0.144,0.144-0.288,0.216-0.432
		c0.072-0.072,0.216-0.432,0.144-0.216c0-0.072,0.072-0.144,0.072-0.216c0.072-0.216,0.144-0.432,0.216-0.648
		c0-0.216,0.072-0.432,0.144-0.648c0-0.072,0-0.144,0-0.288c0-0.072,0-0.072,0.072-0.072c0.072-0.936,0.072-1.872,0.072-2.808
		c0.072-2.448,0.072-4.825,0-7.201c-0.072-3.672-0.288-7.417-0.504-11.161c-3.888,3.96-9.289,6.336-14.905,6.409
		c-3.672,0.072-8.208-0.936-9.505-4.896c-0.648-1.944-0.216-4.032,0.648-5.833c0.936-1.8,2.232-3.384,3.744-4.608
		c3.24-2.808,7.489-4.752,11.737-4.896c2.16-0.072,4.32,0.432,6.121,1.512c1.728,1.08,3.024,2.592,3.745,4.464
		c0.288,0.648-0.216,1.368-0.864,1.512c-0.72,0.216-1.296-0.216-1.512-0.864c-0.072,0-0.144-0.216-0.144-0.216s0,0,0-0.072
		c-0.072-0.144-0.144-0.216-0.216-0.36c-0.144-0.216-0.216-0.432-0.36-0.648c-0.072,0-0.216-0.144-0.216-0.216
		c-0.072-0.072-0.216-0.216-0.288-0.288c-0.216-0.216-0.36-0.432-0.576-0.576c-0.072,0-0.216-0.144-0.216-0.144s0,0-0.072-0.072
		c-0.072-0.072-0.216-0.144-0.36-0.216c-0.216-0.144-0.432-0.288-0.72-0.432c-0.144-0.072-0.216-0.144-0.36-0.216
		c-0.072,0-0.072,0-0.072,0c-0.072,0-0.072,0-0.144-0.072c-0.288-0.072-0.504-0.144-0.792-0.216
		c-0.792-0.216-1.224-0.288-2.017-0.36c-0.648,0-1.368,0-2.016,0.072l-0.36,0.072c-0.216,0.072-0.36,0.072-0.576,0.072
		c-0.36,0.072-0.648,0.216-1.008,0.288c-0.648,0.144-1.296,0.36-1.873,0.576c-0.144,0.072-0.216,0.144-0.36,0.144
		c0,0.072-0.216,0.144-0.216,0.144c-0.216,0.072-0.432,0.144-0.648,0.288c-0.432,0.216-0.864,0.432-1.224,0.648
		c-0.504,0.288-0.936,0.576-1.296,0.864c-0.216,0.144-0.432,0.288-0.576,0.432c-0.072,0-0.072,0-0.072,0
		c-0.072,0.072-0.072,0.072-0.072,0.072c-0.072,0.072-0.216,0.144-0.288,0.216c-0.72,0.648-1.512,1.296-2.088,2.088
		c-0.144,0.072-0.216,0.216-0.288,0.288c-0.072,0-0.144,0.216-0.144,0.216c-0.144,0.144-0.288,0.288-0.36,0.432
		c-0.288,0.432-0.504,0.792-0.72,1.224c-0.072,0.144-0.072,0.288-0.144,0.36c0,0.072-0.072,0.072-0.072,0.072V79.9
		c-0.072,0.216-0.144,0.432-0.216,0.648c-0.072,0.216-0.144,0.432-0.144,0.648c0,0.072-0.072,0.144-0.072,0.216
		c0,0.072,0,0.144,0,0.144c0,0.288-0.072,0.504,0,0.792c0,0,0,0,0,0.288c0,0.072,0,0.072,0,0.072
		c0.072,0.216,0.072,0.432,0.144,0.648c0.072,0.072,0.072,0.072,0.072,0.144c0,0.072,0.072,0.216,0.072,0.216
		c0.144,0.144,0.288,0.432,0.432,0.648c0.072,0.072,0.144,0.144,0.216,0.216c0.144,0.144,0.288,0.288,0.432,0.432c0,0,0,0,0.072,0
		v0.072c0.072,0,0.144,0.072,0.216,0.144c0.216,0.144,0.432,0.216,0.648,0.36c0.072,0.072,0.144,0.072,0.288,0.144c0,0,0,0,0.072,0
		c0.36,0.144,0.792,0.288,1.152,0.432c0.216,0,0.504,0.072,0.72,0.144c0.144,0,0.216,0,0.288,0c0.072,0.072,0.216,0.072,0.216,0.072
		c0.36,0,0.792,0.072,1.152,0.072c0.936,0.072,1.8,0,2.736-0.072c0.144,0,0.288,0,0.432-0.072h0.072c0,0,0,0,0.072,0
		c0.216,0,0.432-0.072,0.648-0.072c0.432-0.072,0.864-0.216,1.224-0.288c0.936-0.216,1.8-0.504,2.664-0.864l0.288-0.144
		c0.072,0,0.144-0.072,0.216-0.072c0.216-0.072,0.36-0.216,0.576-0.288c0.432-0.216,0.792-0.36,1.152-0.576
		c0.792-0.504,1.512-0.936,2.232-1.512c0,0,0.216-0.144,0.288-0.216c0.072-0.072,0.144-0.072,0.216-0.144
		c0.144-0.144,0.36-0.288,0.504-0.432c0.36-0.36,0.648-0.648,0.936-0.936c0.36-0.36,0.648-0.72,1.008-1.08
		c0.072-0.144,0.216-0.288,0.36-0.432c0-0.072,0.072-0.144,0.072-0.144c0.072-0.072,0.144-0.216,0.216-0.288
		c0.72-1.008,2.232-0.648,2.376,0.648c0,0.144,0,0.288,0,0.432c0.36,4.752,0.648,9.505,0.72,14.257
		C409.081,96.533,409.081,98.909,409.009,101.357z"/>
	<path d="M432.192,89.044c-0.864,0.72-1.944,1.08-3.024,1.296c-2.304,0.576-4.608,0.576-6.913,0.144
		c-0.648-0.144-1.152-0.936-0.936-1.584c0.576-1.296,1.296-2.448,2.304-3.456c0.432-0.504,1.296-0.432,1.728,0
		c0.504,0.504,0.504,1.296,0,1.8c-0.144,0.216-0.36,0.432-0.504,0.648c-0.072,0-0.072,0.072-0.072,0.072
		c-0.072,0-0.072,0.072-0.144,0.144c0,0-0.072,0.072-0.072,0.144c0.216,0,0.504,0,0.72,0c0.432,0,0.864,0,1.296,0
		c0.216-0.072,0.432-0.072,0.648-0.072c0,0,0.288-0.072,0.36-0.072c0.792-0.144,1.584-0.36,2.376-0.648c0,0,0.144-0.072,0.216-0.072
		c0.072,0,0.072-0.072,0.144-0.072c0.072-0.072,0.288-0.288,0.144-0.072c0-0.072,0-0.072,0.072-0.072c-0.072,0,0-0.144,0-0.072
		c0,0,0,0,0-0.144c0-0.072-0.072-0.144-0.072-0.216c0-0.072,0-0.072-0.072-0.144c-0.072-0.144-0.144-0.288-0.288-0.504
		c-0.072-0.072-0.072-0.144-0.144-0.216l-0.072-0.072c-0.144-0.216-0.288-0.36-0.432-0.504c-0.576-0.72-1.08-1.368-1.656-1.944
		c-1.152-1.296-2.304-2.448-3.528-3.672c-1.512-1.44-3.096-3.528-4.104-5.328c-1.008-1.8-1.512-4.033-1.008-6.049
		c0.504-1.872,1.872-3.456,3.744-3.96c1.656-0.432,3.672-0.144,4.824,1.296c0.432,0.576,0.504,1.296,0,1.8
		c-0.432,0.432-1.368,0.576-1.8,0c-0.144-0.144-0.216-0.288-0.432-0.432c-0.072-0.072-0.144-0.072-0.216-0.144
		c-0.072,0-0.216-0.072-0.216-0.072c-0.144,0-0.216-0.072-0.288-0.072c-0.072,0-0.288,0-0.288,0s0,0-0.504,0h-0.072
		c-0.144,0-0.288,0.072-0.432,0.072c-0.072,0.072-0.36,0.144-0.288,0.144c-0.216,0.072-0.432,0.216-0.648,0.36
		c0,0-0.072,0.072-0.144,0.144c0,0,0,0-0.288,0.288c-0.072,0.072-0.072,0.144-0.144,0.216c-0.072,0.144-0.144,0.216-0.216,0.36
		c0,0.072,0,0.072,0,0.072v0.072c-0.072,0.072-0.072,0.144-0.072,0.216c-0.072,0.144-0.144,0.288-0.144,0.504
		c0,0-0.072,0.288-0.072,0.216v0.072c0,0.144,0,0.288,0,0.432c0,0.216,0,0.432,0,0.576c0,0.072,0.072,0.288,0.072,0.216
		c0,0.072,0,0.072,0,0.144c0.072,0.288,0.144,0.648,0.216,0.936c0.072,0.216,0.144,0.36,0.216,0.504c0,0.072,0,0.144,0.072,0.144
		c0,0.072,0,0.144,0.072,0.216c0.144,0.36,0.36,0.648,0.504,0.936c0.144,0.216,0.288,0.36,0.36,0.504
		c0.072,0.072,0.144,0.144,0.144,0.216c0,0,0,0,0.072,0c0.216,0.288,0.432,0.576,0.72,0.864c1.44,1.584,3.024,3.6,4.464,5.112
		c0.792,0.792,1.512,1.656,2.232,2.52c0.36,0.432,0.792,0.864,1.152,1.296c0.288,0.432,0.648,0.864,0.864,1.368
		C433.2,86.596,433.272,88.108,432.192,89.044z"/>
	<path d="M476.762,92.069c-0.288,1.512-1.8,2.376-3.24,2.304c-1.584,0-2.952-0.864-3.744-2.232c-0.792-1.44-1.08-3.024-1.656-4.608
		c-0.144-0.36-0.288-0.72-0.36-0.936c-0.144-0.36-0.36-0.72-0.576-1.152c-0.36-0.72-0.792-1.44-1.224-2.088
		c-0.216-0.216-0.36-0.504-0.504-0.72c-0.072,0-0.072-0.072-0.072-0.072s-0.072,0-0.072-0.072c-0.072-0.072-0.144-0.216-0.216-0.288
		c-0.288-0.36-0.648-0.72-0.936-1.008c-0.216-0.216-0.432-0.36-0.576-0.576c-0.072,0-0.072,0-0.072-0.072c-0.072,0-0.072,0-0.072,0
		c-0.072-0.072-0.144-0.144-0.288-0.216c-0.216-0.072-0.648-0.36-0.648-0.36c-0.144,0-0.216-0.072-0.36-0.072
		c-0.144-0.072-0.288-0.072-0.36-0.144c0,0.072-0.288,0-0.288,0c-0.216,0-0.432,0-0.648,0c-0.072,0-0.288,0.072-0.288,0.072
		c-0.144,0-0.216,0.072-0.36,0.072c-0.288,0.072-0.504,0.144-0.72,0.216c-0.36,0.144-0.36,0.144-0.72,0.288
		c-0.216,0.144-0.432,0.288-0.72,0.36c-0.432,0.288-0.864,0.504-1.296,0.792c-3.744,2.161-6.913,4.537-9.937,7.561
		c-0.648,0.648-1.944,0.432-2.088-0.504c-0.72-4.752-1.44-9.433-2.016-14.185c-0.504-4.68-0.792-9.361-0.72-14.041
		c0-2.376,0.144-4.681,0.432-6.985c0.072-0.72,0.144-1.368,0.288-2.016c0.072-0.504,0.072-1.008,0.216-1.44
		c0.432-1.152,1.368-2.16,2.664-1.872c0.72,0.216,1.08,0.936,0.936,1.584c-0.144,0.504-0.648,0.864-1.152,0.936
		c0,0.072-0.072,0.216-0.072,0.288c-0.072,0.216-0.072,0.36-0.072,0.576c-0.144,0.936-0.288,1.728-0.36,2.736
		c-0.216,1.944-0.36,3.889-0.36,5.905c-0.072,4.68,0.216,9.361,0.72,14.041c0.432,3.888,0.936,7.633,1.584,11.593
		c1.944-1.8,4.033-3.457,6.265-4.896c1.44-0.936,2.88-1.872,4.464-2.592c1.656-0.792,3.528-1.368,5.4-0.792
		c2.088,0.72,3.528,2.376,4.825,4.104c1.224,1.729,2.232,3.672,2.952,5.688c0.288,0.864,0.504,1.8,0.792,2.736
		c0.072,0,0.216,0.432,0.144,0.216c0,0.072,0.072,0.216,0.072,0.288c0.144,0.216,0.216,0.36,0.36,0.576c0,0,0.144,0.216,0.072,0.144
		c0.072,0.072,0.144,0.072,0.144,0.144c0.144,0.072,0.216,0.216,0.288,0.216c0.072,0.072,0.144,0.144,0.288,0.216
		c0.144,0,0.36,0.072,0.432,0.072c0.072,0,0.144,0,0.216,0c0,0,0,0,0.216,0c0.072,0,0.288-0.072,0.288-0.072
		c0.072,0,0.144-0.072,0.216-0.072v-0.072c0.072,0,0.072,0,0.072-0.072c0-0.072,0-0.072,0-0.144c0.144-0.72,0.936-1.08,1.584-0.936
		C476.618,90.701,476.906,91.421,476.762,92.069z"/>
	<path d="M514.92,73.203c-0.359,0.648-1.08,0.72-1.728,0.432c-0.072,0-0.145-0.072-0.216-0.072c-0.145-0.072-0.288-0.144-0.36-0.144
		c-0.288-0.144-0.576-0.216-0.792-0.36c-0.576-0.144-1.08-0.36-1.656-0.504c-1.08-0.288-2.088-0.504-3.168-0.648
		c-0.072,0-0.36,0-0.36,0c-0.144-0.072-0.216-0.072-0.36-0.072c-0.288,0-0.576-0.072-0.863-0.072c-0.505,0-1.08-0.072-1.585-0.072
		c-1.08,0-2.16,0.072-3.24,0.216c-0.071,0-0.359,0.072-0.359,0.072c-0.145,0-0.217,0-0.36,0.072c-0.288,0-0.504,0.072-0.72,0.072
		c-0.505,0.144-1.009,0.216-1.44,0.36c-1.008,0.288-2.017,0.576-2.952,0.936c0,0-0.36,0.144-0.288,0.144
		c-0.145,0.072-0.216,0.072-0.288,0.144c-0.216,0.072-0.432,0.144-0.648,0.288c-0.359,0.144-0.792,0.36-1.151,0.576
		c-0.433,0.216-0.792,0.504-1.225,0.792c-0.144,0.072-0.36,0.216-0.504,0.36c-0.072,0-0.144,0.072-0.216,0.144
		c-0.072,0-0.145,0.072-0.145,0.072c-0.72,0.576-1.368,1.224-1.944,1.872c0,0.072-0.216,0.288-0.144,0.288
		c-0.072,0.072-0.144,0.072-0.144,0.144c-0.145,0.216-0.288,0.36-0.36,0.576c-0.216,0.36-0.433,0.72-0.648,1.08
		c0,0.072-0.144,0.36-0.071,0.288c-0.072,0.072-0.072,0.144-0.145,0.216c0,0.144-0.072,0.36-0.144,0.576
		c-0.072,0.216-0.145,0.432-0.145,0.648l-0.072,0.288c0,0.072,0,0.216,0,0.36c0-0.072,0.072,0.216,0.072,0.288c0,0,0,0,0,0.072
		c0,0,0,0,0.072,0c0,0.072,0.288,0.432,0.36,0.504c0.071,0.072,0.216,0.144,0.144,0.144c0.144,0.072,0.288,0.216,0.432,0.288
		c0.072,0,0.072,0,0.145,0c0,0,0,0,0.072,0.072c0.071,0,0.144,0.072,0.288,0.072c0.071,0,0.216,0.072,0.287,0.072h0.072
		c0,0,0,0,0.072,0c0.288,0,0.504,0,0.792,0c0,0,0.432-0.072,0.216,0c0.145-0.072,0.288-0.072,0.433-0.072
		c1.08-0.216,2.088-0.648,3.096-1.008c0.504-0.216,1.009-0.36,1.513-0.576c0-0.072,0.071-0.072,0.071-0.072h0.072
		c0.145-0.072,0.216-0.144,0.36-0.144c0.216-0.144,0.432-0.216,0.647-0.288c0.937-0.432,1.872-0.936,2.809-1.368
		c1.8-1.008,3.528-2.088,5.185-3.313c0.432-0.288,0.864-0.576,1.296-0.936c0.072,0,0.072-0.072,0.072-0.072c0.072,0,0.072,0,0.072,0
		c0.071-0.072,0.216-0.144,0.288-0.216c0.216-0.216,0.359-0.36,0.575-0.504c0.792-0.648,1.585-1.296,2.305-2.016
		c0.576-0.576,1.584-0.504,2.016,0.216c1.152,2.088,0.721,4.321,0.576,6.553c0,1.152,0,2.304,0.072,3.457
		c0.072,1.08,0.216,2.016,0.504,3.24c0.145,0.648-0.216,1.368-0.864,1.512c-0.647,0.216-1.439-0.216-1.584-0.864
		c-0.504-2.304-0.72-4.681-0.647-7.057c0.071-1.08,0.216-2.088,0.216-3.168c0,0,0,0,0-0.72c-4.104,3.456-8.641,6.264-13.609,8.281
		c-0.936,0.36-1.944,0.72-2.952,1.08c-1.08,0.36-2.305,0.72-3.528,0.576c-2.232-0.216-4.393-1.584-4.536-4.032
		c-0.072-1.08,0.359-2.232,0.792-3.24c0.288-0.864,0.792-1.584,1.296-2.304c1.224-1.584,2.664-2.808,4.32-3.888
		c7.129-4.464,16.489-4.681,24.122-1.368C515.137,71.763,515.28,72.627,514.92,73.203z"/>
	<path d="M546.526,89.188c-2.016,0.576-4.248,0.504-6.12-0.504c-1.44-0.72-2.593-1.944-3.385-3.384
		c-0.216-0.36-0.36-0.72-0.576-1.08c-0.144,0.36-0.288,0.72-0.432,1.08c-0.72,1.368-1.513,2.736-2.736,3.672
		c-1.368,1.08-2.952,1.44-4.608,0.72c-1.729-0.792-2.809-2.592-3.528-4.248c-0.937-2.088-1.8-4.176-2.376-6.336
		c-1.296-4.321-1.872-8.785-1.872-13.25c0-0.648,0.576-1.224,1.224-1.224c0.72,0,1.296,0.576,1.296,1.224
		c0,1.44,0.072,2.809,0.145,4.249c0.072,0.36,0.072,0.648,0.144,1.008c0,0.216,0,0.36,0.072,0.576c0,0.072,0,0.144,0,0.216
		c0-0.072,0-0.072,0,0.072c0.144,0.72,0.216,1.368,0.36,2.088c0.504,2.736,1.296,5.4,2.304,7.993
		c0.36,0.936,0.648,1.728,1.152,2.736c0.216,0.432,0.432,0.792,0.72,1.224c0,0.072,0.072,0.144,0.145,0.216
		c0,0.072,0.144,0.216,0.144,0.216c0.072,0.072,0.216,0.216,0.36,0.36c0,0,0,0,0.288,0.288c0.144,0.144,0.576,0.36,0.576,0.36
		c0.144,0,0.359,0.072,0.504,0.072c0.072,0,0.072,0,0.144,0c0.072,0,0.072,0,0.145,0c0,0,0,0,0.072,0
		c0.071,0,0.216-0.072,0.287-0.072c0,0,0.217-0.144,0.145-0.072c0.072,0,0.144-0.072,0.216-0.072
		c0.072-0.072,0.145-0.144,0.288-0.216c0,0,0,0,0.072,0c0-0.072,0-0.072,0-0.072c0.144-0.144,0.359-0.288,0.504-0.432
		c0.072-0.072,0.144-0.216,0.288-0.36l0.144-0.144c0.072-0.144,0.217-0.288,0.288-0.432c0.288-0.432,0.504-0.864,0.721-1.296
		c0.144-0.288,0.288-0.504,0.359-0.792c0.072-0.072,0.072-0.072,0.072-0.072c0-0.072,0-0.072,0-0.072
		c0.072-0.144,0.072-0.216,0.144-0.36c0.145-0.504,0.36-0.936,0.505-1.44c0.144-0.504,0.216-1.008,0.359-1.584
		c0-0.072,0-0.216,0-0.36l0.072-0.216c0-0.216,0.072-0.432,0.072-0.648c0-0.072,0-0.072,0-0.072
		c-0.072-1.008-0.072-2.016-0.072-3.024c0-0.72,0.576-1.296,1.296-1.296c0.721,0,1.152,0.576,1.225,1.296
		c0.144,0.936,0.144,1.944,0.071,2.952c0,0.072,0,0.216,0,0.36c0.072,0.144,0.072,0.36,0.072,0.504c0,0.072,0,0.072,0,0.144
		c0.072,0.072,0.072,0.144,0.072,0.288c0.144,0.792,0.288,1.512,0.576,2.304c0.072,0.216,0.144,0.432,0.216,0.576
		c0,0.072,0.145,0.36,0.072,0.288c0.144,0.36,0.288,0.648,0.504,1.008c0.072,0.144,0.216,0.36,0.288,0.504
		c0.072,0.072,0.144,0.144,0.216,0.216c0,0,0,0.072,0.072,0.144c0.144,0.216,0.359,0.432,0.576,0.648
		c0.144,0.144,0.288,0.216,0.432,0.36c0,0,0.072,0,0.072,0.072c0.072,0,0.144,0.072,0.216,0.144
		c0.144,0.072,0.288,0.144,0.432,0.216c0.072,0.072,0.505,0.216,0.36,0.216c0.432,0.144,0.864,0.288,1.296,0.36c0,0,0,0,0.072,0
		c0,0,0,0,0.072,0c0.071,0,0.216,0,0.359,0c0.217,0,0.433,0,0.721,0c0.144,0,0.216,0,0.359,0c0.072-0.072,0.217-0.072,0.217-0.072
		c0.288-0.072,0.504-0.072,0.72-0.144c0.288-0.072,0.504-0.144,0.72-0.216c0.145-0.072,0.217-0.072,0.36-0.144l0.216-0.072
		c0.792-0.36,1.513-0.792,2.232-1.296l0.216-0.144c0-0.072,0.072-0.072,0.145-0.144c0.144-0.072,0.288-0.216,0.432-0.36
		c0.216-0.216,0.504-0.504,0.792-0.792c0.145-0.144,0.288-0.288,0.433-0.504c0.071-0.072,0.144-0.144,0.144-0.216
		c0.072,0,0.072-0.072,0.144-0.144c0.217-0.216,0.36-0.504,0.576-0.792c0.433-0.648,0.792-1.368,1.08-2.016
		c0-0.072,0.072-0.216,0.072-0.216c0.072-0.144,0.072-0.216,0.145-0.288c0.071-0.216,0.071-0.36,0.144-0.576
		c0.145-0.36,0.216-0.72,0.36-1.08c0.071-0.36,0.144-0.792,0.216-1.224c0-0.072,0-0.144,0.072-0.216v-0.072
		c0-0.216,0-0.432,0.071-0.576c0-0.792,0-1.584-0.071-2.376c0-0.144,0-0.288,0-0.36c0-0.072,0-0.072,0-0.072
		c-0.072-0.216-0.072-0.36-0.145-0.576c-0.072-0.36-0.144-0.72-0.216-1.08c-0.144-0.36-0.288-0.792-0.432-1.152
		c0-0.072,0-0.144-0.072-0.216c0,0,0-0.072-0.072-0.072c-0.072-0.216-0.144-0.36-0.216-0.576c-0.288-0.576-0.145-1.368,0.432-1.728
		c0.576-0.288,1.44-0.144,1.729,0.504c0.792,1.512,1.296,3.168,1.512,4.969C557.543,79.756,553.367,87.388,546.526,89.188z"/>
</g>
</svg>
