<?xml version="1.0" encoding="utf-8"?>
<!-- Generator: Adobe Illustrator 16.0.0, SVG Export Plug-In . SVG Version: 6.00 Build 0)  -->
<svg version="1.2" baseProfile="tiny" id="Layer_1" xmlns="http://www.w3.org/2000/svg" xmlns:xlink="http://www.w3.org/1999/xlink"
	 x="0px" y="0px" width="960px" height="560px" viewBox="0 0 960 560" xml:space="preserve">
<g>
	<rect x="136.805" y="41.756" fill="none" width="770.732" height="64.024"/>
	<path d="M182.227,77.545l-0.422,1.16l0.211,0.633c-0.563,0.75-0.997,1.43-1.301,2.039l-0.773,0.211l-0.738,0.844l-1.582,0.738
		c-0.234,0.094-0.457,0.27-0.668,0.527l-0.844,1.055l-1.723-0.633c-0.399-0.023-0.926,0.551-1.582,1.723l-1.02-0.457l-1.723,0.598
		l-0.352-0.141c-0.656,0.492-1.301,0.867-1.934,1.125c-0.633,0.258-1.219,0.404-1.758,0.439c-0.54,0.035-0.832,0.065-0.879,0.088
		c-0.047,0.023-0.445,0.364-1.195,1.02l-0.633-0.457l-0.738,0.527l-1.371-0.387c-0.469,0.399-0.973,0.598-1.512,0.598l-1.723-0.211
		l-0.633,0.984l-1.09-0.492h-0.352c-0.047,0.047-0.141,0.07-0.281,0.07c-0.118,0-0.27-0.023-0.457-0.07
		c-0.188-0.047-0.329-0.07-0.422-0.07c-0.305,0-0.738,0.234-1.301,0.703c-0.07,0.141-0.305,0.211-0.703,0.211
		c-0.422,0-0.949-0.07-1.582-0.211l-1.02,1.16l-1.09-0.422v-0.281c0-0.281-0.094-0.48-0.281-0.598
		c-0.118,0.188-0.329,0.281-0.633,0.281h-0.316l-0.914-2.215l0.07-1.09l-0.211-1.512l0.422-1.371l-0.211-1.582l0.422-1.371
		l-0.211-1.125l0.141-1.02c0.047-0.141,0.07-0.328,0.07-0.563c0-0.211-0.047-0.492-0.141-0.844l-0.352-1.125l-0.211-2.285
		c-0.891-0.07-1.489-0.223-1.793-0.457c-0.305-0.234-0.551-0.469-0.738-0.703c0.164-0.563,0.486-1.049,0.967-1.459
		c0.48-0.41,0.779-0.615,0.896-0.615c0.164,0,0.304,0.094,0.422,0.281l0.316-0.949l0.422-0.211l-0.422-1.441l0.563-0.211
		l-0.422-1.652l0.281-0.457l-0.492-1.266l0.492-1.02l-0.422-0.352l-0.07-0.914c0-0.352-0.083-0.68-0.246-0.984l-0.563-1.195
		l0.281-1.371l-0.563-0.281l0.141-1.301l-0.422-0.879l-0.598-2.074l-1.125-1.16c-0.399,0.047-0.786,0.258-1.16,0.633l-0.527-0.352
		l-0.633,0.352l-0.492-0.492l-0.527,0.492v-0.352l-1.125-0.281l-1.688,1.09c-1.383-0.75-2.074-1.5-2.074-2.25
		c0-0.281,0.118-0.422,0.352-0.422c0.211,0,0.364,0.023,0.457,0.07c0.352-0.82,0.773-1.253,1.266-1.301l1.02,0.492l0.492-0.211
		c1.336,0,2.378,0.059,3.129,0.176l0.914,0.176c0.234,0,0.504-0.058,0.809-0.176l0.422-0.176h0.492l0.598,0.527
		c0.141-0.093,0.422-0.199,0.844-0.316l1.652,0.668l4.465,0.633c0.398-0.093,0.691-0.141,0.879-0.141
		c0.281,0,0.738,0.094,1.371,0.281l1.16-0.281c0.141,0,0.445,0.199,0.914,0.598c1.007,0.563,2.016,0.844,3.023,0.844h0.352
		l1.02-0.281l0.422,0.563c0.234-0.141,0.457-0.211,0.668-0.211s0.369,0.118,0.475,0.352c0.105,0.234,0.264,0.352,0.475,0.352
		l1.934,0.105c0.75,0.867,1.688,1.301,2.813,1.301l0.598,0.176c0.164,0.07,0.515,0.364,1.055,0.879h1.23l0.211,0.598l1.441,0.914
		l0.281,1.371c-0.54,1.078-0.92,1.746-1.143,2.004c-0.223,0.258-0.498,0.498-0.826,0.721c-0.329,0.223-0.656,0.375-0.984,0.457
		c-0.329,0.083-0.738,0.276-1.23,0.58l-0.633-0.141l-1.512,1.125c-0.281-0.093-0.457-0.141-0.527-0.141
		c-0.375,0-0.633,0.293-0.773,0.879c-0.258-0.188-0.48-0.281-0.668-0.281c-0.164,0-0.281,0.094-0.352,0.281h-0.633l-0.949,1.09
		l-1.301,0.281c-0.234,0.234-0.51,0.417-0.826,0.545c-0.316,0.129-0.686,0.217-1.107,0.264c-0.422,0.047-0.879,0.164-1.371,0.352
		l-0.422,0.563h-0.738l-0.844,0.527c-0.352,0.211-0.691,0.364-1.02,0.457l-1.371,0.316l-0.352,0.422
		c-0.656,0.141-1.078,0.281-1.266,0.422c-0.188,0.141-0.516,0.246-0.984,0.316c-0.329,0.492-0.492,0.821-0.492,0.984
		c0,0.141,0.07,0.211,0.211,0.211h0.879c0.844,0,1.582,0.023,2.215,0.07l3.902,0.316l0.773-0.316l3.762,0.668l0.633-0.281
		c0.609,0.516,0.996,0.773,1.16,0.773c0.141,0,0.211-0.117,0.211-0.352h0.141c0.047,0,0.251,0.07,0.615,0.211
		c0.363,0.141,0.838,0.211,1.424,0.211h0.563c0.75,0.352,1.418,0.527,2.004,0.527c0.492,0,0.902-0.105,1.23-0.316
		c0.68,0.211,1.664,0.316,2.953,0.316l0.809,0.563l0.844-0.211l2.32,0.984h0.844c0.515,0.516,1.125,0.809,1.828,0.879
		c0.375,0.445,0.879,0.821,1.512,1.125C181.734,77.182,182.109,77.404,182.227,77.545z M169.57,59.264l-1.301-0.668
		c-0.141-0.07-0.48-0.445-1.02-1.125h-1.125l-0.527-0.281c-1.078-0.07-1.629-0.316-1.652-0.738l-0.633,0.492l-0.738-0.633
		l-0.773-0.176c-0.258-0.07-0.598-0.269-1.02-0.598l-0.703,0.422l-0.949-0.598c-0.188,0.047-0.48,0.07-0.879,0.07
		c-0.375,0-0.832-0.047-1.371-0.141l-0.703-0.141l-1.16,0.141l-0.914-0.914l-1.09,0.281l-0.738-0.422l-0.492,0.563l-1.02-0.422
		l-1.055,0.492l-1.16-0.211l-0.527,0.633l1.02,1.02v1.793l0.422,1.301l-0.422,1.16l0.598,1.863l-0.246,1.652l0.387,1.09l-0.316,1.16
		v1.723l-0.07,0.422c0,0.352,0.293,0.598,0.879,0.738c0.258-0.609,0.673-0.967,1.248-1.072c0.574-0.105,1.137-0.251,1.688-0.439
		c0.55-0.188,0.849-0.363,0.896-0.527l0.984-0.141l0.141-0.492l1.582-0.141l0.316-0.879c0.234,0.188,0.515,0.281,0.844,0.281
		c0.375,0,0.785-0.211,1.23-0.633l0.879,0.07c0.422-0.82,1.113-1.348,2.074-1.582c0.961-0.234,1.582-0.422,1.863-0.563l1.371-0.527
		h0.879l0.352-0.773l1.441-0.211l0.563-0.668v-0.352h0.141C169.301,60.564,169.57,60.131,169.57,59.264z M178.711,80.217
		c0.188-0.258,0.281-0.621,0.281-1.09c0-0.234-0.012-0.41-0.035-0.527c-0.023-0.117-0.316-0.585-0.879-1.406l-1.16-0.141
		l-0.527-0.809l-0.844,0.316l-1.441-0.809l-1.16,0.141l-0.633-0.492l-1.441,0.141c-0.54-0.398-1.02-0.598-1.441-0.598
		c-0.375,0-0.715,0.153-1.02,0.457c-0.305-0.164-0.516-0.339-0.633-0.527h-0.738l-4.605-0.211l-1.652-0.773
		c-0.07-0.047-0.234-0.088-0.492-0.123c-0.258-0.035-0.48-0.088-0.668-0.158c-0.961,0.141-1.723,0.422-2.285,0.844l-0.949-0.703
		l-1.301,0.141l-0.07,0.492l-1.441-0.141c-0.492-0.422-1.043-0.633-1.652-0.633c-1.594,0-2.391,0.762-2.391,2.285l0.105,0.738
		l-0.176,1.055l0.457,0.949l-0.281,0.949l0.07,0.633l-0.07,1.371c0.117,0.234,0.24,0.487,0.369,0.756
		c0.128,0.27,0.193,0.663,0.193,1.178l-0.563,1.582l0.352,0.668l-0.281,0.633l0.422,0.141l0.141,1.09l0.879,0.422l2.637-0.141
		l1.16-0.352l1.652,0.07c0.375,0.094,0.621,0.141,0.738,0.141c0.515,0,1.207-0.316,2.074-0.949l0.809,0.246l3.516-0.809l1.371-0.703
		l1.02,0.211l1.934-1.16h1.934c1.031-0.375,2.18-0.926,3.445-1.652c0.093,0.047,0.269,0.07,0.527,0.07
		c0.281,0,0.492-0.023,0.633-0.07l0.352-0.809l2.602-0.844l0.422-0.879L178.711,80.217z"/>
	<path d="M212.707,61.057l-0.211,0.879l-2.109,0.281l-1.371,1.02l-0.914,0.141l-1.16,0.703l-1.16,0.527
		c-0.563,0.492-1.02,0.797-1.371,0.914v0.352l-1.055,0.527l-0.738,1.16h-0.773l-0.387,1.125l-0.809,0.527
		c-0.329,0.188-0.586,0.445-0.773,0.773l-0.703,1.301c-0.54,0.281-0.856,0.926-0.949,1.934l-0.352-0.141l-0.141,0.457l-0.527,0.352
		l-0.492,1.23c-0.516,0.727-0.773,1.278-0.773,1.652l-0.668,0.281v1.512c-0.141,0.164-0.258,0.422-0.352,0.773l0.141,0.246
		l-0.703,0.281l0.211,0.563c-0.07,0.469-0.434,1.336-1.09,2.602l0.352,0.914l-0.703,1.16c0.093,0.469,0.141,0.832,0.141,1.09
		l-0.141,1.16l0.316,1.266c0.023,0.07,0.128,0.211,0.316,0.422l0.527,0.527c-0.305,0.585-0.598,0.996-0.879,1.23l-0.949-0.352
		l0.141,0.633l-1.582-0.281V89.85l-0.211-0.633l0.211-1.16l-0.211-0.492l0.141-2.461l-0.141-1.652
		c-0.329-0.117-0.492-0.258-0.492-0.422c0-0.188,0.164-0.48,0.492-0.879v-1.055c0-0.563-0.023-0.972-0.07-1.23l0.281-0.352
		l-0.281-1.371l0.211-1.09l-0.211-0.668l0.211-1.934l-0.352-0.563l0.211-0.668l-0.422-1.441l0.141-1.125
		c0-0.304-0.047-0.738-0.141-1.301l0.211-0.352l-0.422-2.461l-0.527-0.352l0.527-1.23c-0.492-0.68-0.738-1.477-0.738-2.391v-0.984
		c-0.211-0.234-0.352-0.457-0.422-0.668c0.328-0.445,0.926-0.832,1.793-1.16l0.527,0.141c0.093,0.586,0.352,1.148,0.773,1.688
		l-0.141,1.793l0.703,5.449c0,0.352-0.141,0.668-0.422,0.949l0.352,1.512l-0.211,1.09l0.211,1.16l-0.141,0.914l0.527,1.09
		l-0.316,0.211l0.246,1.652l0.563,0.141l0.246-1.406c0.023-0.164,0.304-0.585,0.844-1.266c0.609-0.539,0.914-1.137,0.914-1.793
		v-0.422l0.457-0.211c0.07,0,0.128-0.088,0.176-0.264c0.047-0.176,0.128-0.264,0.246-0.264h0.211l0.422-1.406l1.09-0.738l0.07-0.422
		h0.492l-0.211-0.809l1.09-0.492l0.07-0.879l1.02-0.141c0.515-0.422,0.867-0.879,1.055-1.371l0.668-0.141
		c0.093-0.188,0.527-0.621,1.301-1.301c0.164,0,0.281-0.07,0.352-0.211l1.16-0.633l0.281-0.527l0.633-0.352
		c1.242-0.914,2.086-1.371,2.531-1.371h0.281c0.422,0,0.761-0.117,1.02-0.352l0.633,0.211c0.328-0.234,0.598-0.352,0.809-0.352
		C212.203,60.823,212.66,60.963,212.707,61.057z"/>
	<path d="M240.656,88.584l-1.02,0.492l-0.211,0.633c-0.399,0.093-0.762,0.223-1.09,0.387l-0.352-0.246l-0.527,0.246l-1.125-1.371
		v-1.582l-0.527-0.457l0.141-2.215l-0.422-4.605l0.281-1.512l-0.492-0.809l0.633-0.352l-0.422-0.633l0.141-0.668l0.352-0.281
		l-0.07-0.879h0.387v-1.441l0.141-0.703c-0.188-0.047-0.41-0.269-0.668-0.668l-1.125,0.527c-0.305,0.586-0.621,0.973-0.949,1.16
		l-0.07,0.773l-0.809,0.352l-0.141,1.02l-0.492,0.352v0.527c-0.469,0.352-0.809,0.773-1.02,1.266l-0.492,0.316l-1.09,1.934
		l-1.723,1.723l-0.563,0.949L225.82,84.4l-0.387,0.844l-2.074,1.441l-2.32,2.742l-0.773,0.211c-0.234,0.047-0.598,0.293-1.09,0.738
		h-0.211c-0.399,0-0.715-0.387-0.949-1.16c-1.805-0.703-2.754-1.71-2.848-3.023l0.563-0.352c-0.329-0.914-0.516-1.851-0.563-2.813
		l-0.387-0.281l0.246-0.387c0.093-0.141,0.164-0.381,0.211-0.721c0.047-0.339,0.117-0.814,0.211-1.424l0.492-2.672
		c-0.047-0.093-0.07-0.258-0.07-0.492c0-0.258,0.07-0.527,0.211-0.809c-0.094-0.352-0.141-0.609-0.141-0.773
		c0-0.188,0.047-0.434,0.141-0.738l0.281-0.07c0.398-0.539,0.598-0.996,0.598-1.371c0-0.234-0.076-0.422-0.229-0.563
		c-0.153-0.141-0.229-0.234-0.229-0.281c0-0.164,0.128-0.281,0.387-0.352c-0.352-0.07-0.527-0.223-0.527-0.457
		c0-0.234,0.246-0.352,0.738-0.352v-0.141c0-0.515,0.146-0.99,0.439-1.424c0.293-0.434,0.451-0.732,0.475-0.896l-0.492-0.141
		l0.949-1.512v-0.352c0-1.007,0.328-1.875,0.984-2.602l-0.07-1.301l0.316-0.211c-0.164-0.211-0.246-0.445-0.246-0.703
		c0-0.141,0.152-0.211,0.457-0.211v-1.16c0.234-0.07,0.352-0.188,0.352-0.352c0-0.164-0.023-0.293-0.07-0.387
		c0.141-0.211,0.469-0.598,0.984-1.16c0.515-0.563,0.855-1.031,1.02-1.406h0.211c0.539,0,0.809-0.128,0.809-0.387
		c0-0.093-0.07-0.211-0.211-0.352c0.961,0,1.464-0.188,1.512-0.563l1.301-0.668l3.727,0.316v0.281l3.023,0.633h0.281
		c0.445,0,0.668,0.199,0.668,0.598l0.352-0.141c0.117,0.422,0.387,0.633,0.809,0.633l0.352-0.07l0.633,0.633l1.512,0.387v0.633
		c0.68-0.445,1.547-0.832,2.602-1.16v1.16h-0.352l0.703,0.352l-0.141,0.141l0.563,1.828l-0.633,0.703l-0.281,1.195
		c-0.094,0.399-0.316,0.891-0.668,1.477l0.457,0.914c-0.047,0.07-0.182,0.258-0.404,0.563c-0.223,0.305-0.334,0.844-0.334,1.617
		c0.141,0.07,0.211,0.188,0.211,0.352l-0.141,0.598l0.07,0.492l-0.211,0.773l0.141,0.668l-0.422,0.492l0.141,1.582l-0.211,0.211
		l0.211,0.316l-0.211,0.211c0.047,0.047,0.07,0.141,0.07,0.281c0,0.211-0.07,0.422-0.211,0.633l0.211,0.457l-0.352,0.633
		c-0.188,0.118-0.281,0.457-0.281,1.02l0.281,0.914l-0.668,0.879c0.234,0.492,0.457,0.809,0.668,0.949
		c-0.352,0.492-0.645,1.418-0.879,2.777l0.598,0.141l-0.07,0.387c0.047,0.07,0.07,0.234,0.07,0.492c0,0.375-0.176,0.856-0.527,1.441
		h0.457l0.211,1.09l1.441,0.141l0.492,0.914c-0.141,0.094-0.211,0.176-0.211,0.246c0,0.188,0.234,0.422,0.703,0.703h-0.07
		c-0.094,0-0.141,0.023-0.141,0.07C240.059,88.034,240.257,88.256,240.656,88.584z M236.965,62.709l-0.422-1.301l-1.16-0.352
		l-2.004-1.793c-0.305-0.188-0.551-0.281-0.738-0.281c-0.118,0-0.305,0.047-0.563,0.141l-0.352-0.352h-1.16l-0.352-0.457
		l-0.809,0.316l-0.352-0.316l-0.598,0.176l-1.125-0.176c-0.54,0-1.383,0.27-2.531,0.809l0.141,0.281l-0.633,0.211l-0.141,0.281
		l-0.809,0.105v0.422c-0.469,0.281-1.02,1.043-1.652,2.285c-0.399,1.454-0.832,2.684-1.301,3.691l0.563,0.281l-0.914,0.809
		l0.281,0.563c-0.422,0.633-0.633,1.371-0.633,2.215v0.387l-0.527,0.773v1.23c-0.375,0.422-0.586,0.856-0.633,1.301l-0.281,0.281
		v1.301l-0.246,0.352c0,0.469-0.094,1.113-0.281,1.934l0.387,0.879c-0.305,0.118-0.645,0.41-1.02,0.879l0.281,0.563l-0.422,0.563
		l0.563,1.441l-0.633,0.879l0.07,1.723l-0.211,0.809l0.352,0.211l0.141,0.492c0.398,0.164,0.738,0.434,1.02,0.809l1.652-0.387
		c0.304-0.703,0.832-1.078,1.582-1.125l-0.141-0.527c0.726-0.188,1.107-0.287,1.143-0.299c0.035-0.012,0.088-0.146,0.158-0.404
		c0.07-0.258,0.281-0.504,0.633-0.738h0.141c0.141,0,0.211-0.093,0.211-0.281l1.301-1.512h-0.281l0.773-0.703
		c0.258-0.258,0.645-0.48,1.16-0.668l0.527-1.371c0.891-0.375,1.394-0.879,1.512-1.512h0.422l0.703-0.914l-0.141-0.598l0.668-0.141
		c-0.094-0.164-0.141-0.281-0.141-0.352s0.164-0.334,0.492-0.791c0.328-0.457,0.585-0.838,0.773-1.143l0.316,0.141
		c0.07-0.563,0.328-0.996,0.773-1.301c0.093-0.375,0.281-0.673,0.563-0.896c0.281-0.223,0.48-0.334,0.598-0.334h0.492l0.07-0.879
		c0.093-0.093,0.141-0.188,0.141-0.281c0-0.141-0.07-0.281-0.211-0.422c0.422-0.703,0.761-1.137,1.02-1.301l0.141-0.773l0.492-0.387
		l-0.141-0.633c0.281-0.445,0.457-0.879,0.527-1.301l0.633-0.633L236.965,62.709z"/>
	<path d="M281.191,85.842c-0.516,1.852-1.16,3.094-1.934,3.727c-0.563-0.188-0.949-0.445-1.16-0.773l-1.301-2.039l-0.492-1.125
		l-0.949-3.34v-3.234l-0.211-2.813l0.211-1.582l-0.211-1.371v-2.004l-0.668-0.949l-0.281,0.598l-0.563,0.07l-1.09,2.531
		l-1.301,1.863h-0.563l-0.176,0.738c-0.07,0.281-0.206,0.598-0.404,0.949c-0.199,0.352-0.439,0.773-0.721,1.266l-1.934,2.145
		l-1.512,2.25l-1.652,1.723c-0.375,0.633-0.809,1.23-1.301,1.793l-0.984,0.773c-0.305,0.258-0.703,0.75-1.195,1.477l-1.23,0.422
		c-0.141,0.047-0.422,0.304-0.844,0.773l-0.844,0.176c-0.258,0.023-0.75,0.258-1.477,0.703l-0.633-0.141l-0.211,0.422l-0.809-0.07
		l-2.285-1.723c-0.375-0.515-0.656-1.213-0.844-2.092c-0.188-0.879-0.457-1.33-0.809-1.354l-0.387,0.141l0.738-1.16l-0.352-1.16
		l0.281-0.914l-0.141-1.371l0.492-2.18v-2.004l0.492-0.738v-1.793c0.352-0.68,0.527-1.23,0.527-1.652l0.281-0.211v-1.301l0.633-1.16
		l0.07-0.984c0.304-0.445,0.527-0.926,0.668-1.441l0.352-2.18c0.07-0.492,0.339-0.926,0.809-1.301l0.07-0.773
		c0.047-0.234,0.199-0.55,0.457-0.949c0.258-0.398,0.387-0.761,0.387-1.09c0.703-0.726,1.301-1.23,1.793-1.512l-0.141-0.281
		c0.304-0.07,0.48-0.188,0.527-0.352c0.07,0.047,0.211,0.07,0.422,0.07c0.188,0,0.328-0.023,0.422-0.07l-0.352-0.141l3.094-0.879
		c0.445-0.047,0.855-0.082,1.23-0.105c0.375-0.023,0.563-0.105,0.563-0.246v-0.07l1.16-0.07l0.633,0.352l0.387-0.141
		c0.07,0.234,0.258,0.352,0.563,0.352c0.093,0,0.188-0.023,0.281-0.07l1.16,0.07v0.316l0.281-0.141l1.09,0.914l1.09-0.281
		l0.633,1.16l1.16,0.949c0.141,0.118,0.352,0.469,0.633,1.055l1.16,0.633c0.375,0.399,0.668,0.598,0.879,0.598
		c0.141,0,0.234-0.093,0.281-0.281l0.492-2.461l0.563-1.301l-0.211-1.863l0.316-3.375l-0.316-0.879
		c0.352-0.422,0.527-0.926,0.527-1.512l-0.316-0.633l0.246-1.969l-0.246-2.004l0.316-0.422l-0.316-0.211
		c0.258-0.234,0.387-0.434,0.387-0.598c0-0.093-0.047-0.234-0.141-0.422c0.141-0.352,0.211-0.691,0.211-1.02
		c0-0.352-0.07-0.703-0.211-1.055h0.352c-0.094-0.188-0.141-0.41-0.141-0.668c0-0.304,0.234-0.585,0.703-0.844l-0.281-0.176
		l0.352-0.07c0.258,0,0.434,0.199,0.527,0.598c0.352,0.07,0.563,0.375,0.633,0.914h-0.352l0.07,1.16l-0.07,0.668h-0.422l0.773,0.844
		l-0.281,1.02l0.492,1.16l-0.352,0.492c0.234,0.563,0.352,0.997,0.352,1.301c0,0.281-0.07,0.563-0.211,0.844l0.563,0.457
		c-0.234,0.141-0.352,0.281-0.352,0.422c0,0.234,0.199,0.422,0.598,0.563v0.211c0,0.305-0.199,0.575-0.598,0.809v0.633
		c0,1.172-0.188,3.188-0.563,6.047c0.047,0.094,0.07,0.27,0.07,0.527c0,0.352-0.118,0.809-0.352,1.371l0.281,0.633l-0.422,1.652
		l-0.211,1.758c-0.023,0.234-0.176,0.633-0.457,1.195l0.211,0.809l-0.422,1.301l0.422,0.984l-0.563,2.25l0.352,1.723l-0.211,1.02
		l0.141,0.914l-0.422,0.211c0.469,0.773,0.703,1.184,0.703,1.23c0,0.211-0.141,0.352-0.422,0.422l0.141,0.457l-0.141,0.211
		l0.492,0.492l-0.352,1.16l0.492,1.582l-0.211,0.492l0.211,0.527l-0.422,1.301l0.352,0.352h0.598l0.492,0.633l1.02-0.281
		l0.352,0.563L281.191,85.842z M274.336,66.189l-0.422-0.141l-0.738-0.668l-0.598-0.352c-0.094-0.047-0.276-0.357-0.545-0.932
		c-0.27-0.574-0.604-1.037-1.002-1.389c-0.258-0.093-0.469-0.234-0.633-0.422v-0.492l-1.09-0.211l-1.055-0.598
		c-0.211-0.141-0.498-0.258-0.861-0.352c-0.364-0.093-0.85-0.211-1.459-0.352l-2.18,0.281l-0.633,0.352l-0.668-0.492l-1.125,0.352
		h-1.441l-0.246,0.633l-0.422,0.176c0,0.399,0.093,0.633,0.281,0.703c-0.258,0.422-0.856,0.949-1.793,1.582l-0.492,1.301
		l-0.668,0.352l-0.633,1.969l-0.211,2.145l-0.668,0.633v1.23c-0.516,0.469-0.773,0.856-0.773,1.16l0.141,1.723l-1.16,2.25
		l-0.281,1.582l-0.07,2.426l0.211,0.527l-0.492,0.984l0.352,0.598l-0.563,1.195c0.398,0.75,0.726,1.617,0.984,2.602l0.668,0.352
		l-0.141,0.457h0.703c0.492,0.329,0.785,0.492,0.879,0.492c0.047,0,0.158-0.117,0.334-0.352c0.176-0.234,0.545-0.352,1.107-0.352
		v0.281c0.304-0.234,0.492-0.457,0.563-0.668c0.375,0,0.563-0.164,0.563-0.492l0.668-0.281l0.281,0.211l0.211-0.809l1.441-0.563
		l0.141-0.633l1.02-0.598V83.24l0.773-0.809l0.246,0.105c0.188,0,0.281-0.176,0.281-0.527h0.492v-0.422l1.16-0.492l-0.281-1.09
		l0.773-0.492l-0.492-0.527c0.093,0.047,0.234,0.07,0.422,0.07c0.258,0,0.55-0.117,0.879-0.352l0.07-0.281l0.773-0.07l0.809-2.109
		l0.703-0.703l0.281-1.301l0.879-0.281c0.656-1.125,1.183-1.851,1.582-2.18v-0.984l0.668-0.281l1.793-3.621L274.336,66.189z"/>
	<path d="M306.363,80.428c0.304,0.211,0.457,0.434,0.457,0.668c0,0.586-0.153,0.914-0.457,0.984
		c-0.563,0.914-1.137,1.371-1.723,1.371c0,0.211-0.786,1.008-2.355,2.391c-0.469,0.118-0.779,0.252-0.932,0.404
		c-0.153,0.153-0.475,0.452-0.967,0.896c-0.656,0.023-1.09,0.305-1.301,0.844l-0.703,0.211l-0.281-0.141l-0.211,0.598h-0.211
		c-0.352,0-0.856,0.141-1.512,0.422c-0.656,0.281-1.067,0.445-1.23,0.492l-0.738,0.281h-0.492l-0.422-0.633l-0.668-0.563
		c-0.281-0.726-0.645-1.359-1.09-1.898l-0.211-1.723l0.07-0.844l-0.352-0.457l0.07-2.074l-0.07-1.793l0.07-0.879
		c0.141-0.211,0.211-0.398,0.211-0.563c0-0.328-0.164-0.761-0.492-1.301c0.188-1.992,0.281-3.094,0.281-3.305
		c0-0.422-0.188-0.855-0.563-1.301l0.563-0.281l0.211-2.742l-0.141-1.16l0.527-1.301l-0.387-1.441
		c0.398-0.515,0.598-1.137,0.598-1.863v-2.391l0.211-0.563l-0.07-3.516l0.211-3.48c-0.329-0.844-0.445-1.746-0.352-2.707l0.211-2.18
		l-0.211-0.773l0.352-3.27c0.258-0.093,0.533-0.211,0.826-0.352c0.293-0.141,0.475-0.211,0.545-0.211
		c0.047,0,0.141,0.047,0.281,0.141l0.352,1.16l0.738,0.633l-0.527,0.738v0.281c0,0.281,0.082,0.575,0.246,0.879
		c-0.047,0.797-0.223,1.195-0.527,1.195l0.211,0.387c0.07,1.477,0.199,2.484,0.387,3.023l-0.598,1.863l0.457,0.633
		c-0.54,0.938-0.809,1.852-0.809,2.742c0,0.469,0.211,0.762,0.633,0.879l-0.492,1.371c0.188,0.445,0.281,0.727,0.281,0.844
		c0,0.234-0.094,0.551-0.281,0.949l0.141,0.844l-0.352,2.32l-0.035,1.09c-0.023,0.329-0.223,1.09-0.598,2.285l0.352,1.512
		l-0.211,2.742l-0.387,0.281l0.457,0.879l-0.316,1.371l-0.281,2.145l0.281,0.527l-0.281,0.211c0.304,0.375,0.457,0.949,0.457,1.723
		c0,0.141-0.105,0.422-0.316,0.844l0.316,0.809l-0.176,1.09l0.316,0.773l-0.141,0.598l0.773,2.355l0.879,0.352
		c0.844-0.422,1.394-0.633,1.652-0.633l0.422,0.07l0.984-0.844c0.117-0.117,0.41-0.246,0.879-0.387
		c0.234-0.422,0.645-0.656,1.23-0.703l0.352-0.387l0.527,0.07l0.141-0.352l0.703-0.211l0.668-0.492l0.703-0.211
		c0.047-0.023,0.275-0.234,0.686-0.633c0.41-0.398,0.779-0.691,1.107-0.879c0-0.211,0.152-0.387,0.457-0.527
		c0.07,0.094,0.164,0.141,0.281,0.141C305.824,80.779,306.059,80.662,306.363,80.428z"/>
	<path d="M331.289,82.748c0.352,0.54,0.527,0.938,0.527,1.195c0,0.188-0.217,0.586-0.65,1.195c-0.434,0.61-0.768,1.254-1.002,1.934
		l-0.527,0.07l-0.773,1.512l-0.879,0.141l-1.934,1.301l-0.352,0.773l-0.598-0.07l-0.633,0.738h-1.02l-0.211,0.352l-0.492-0.07
		c-0.516,0-0.973,0.234-1.371,0.703l-0.457-0.352c-0.492,0.234-0.891,0.352-1.195,0.352c-0.54,0-0.973-0.118-1.301-0.352
		c-0.234,0.047-0.551,0.07-0.949,0.07l-0.422-0.352c-1.289-0.07-2.157-0.434-2.602-1.09V89.92l-1.16-0.633l-0.281-0.738
		c-0.094-0.234-0.352-0.539-0.773-0.914v-0.563l-0.809-3.41l0.141-2.426l0.281-1.371v-1.512l0.387-1.301l-0.141-0.949
		c0.258-0.211,0.422-0.475,0.492-0.791s0.211-0.673,0.422-1.072c-0.094-0.422-0.188-1.02-0.281-1.793l0.633-0.527l-0.633-0.703
		c0.328-0.539,0.492-0.879,0.492-1.02l-0.352-2.145c0-0.515,0.07-1.02,0.211-1.512c0.281,0.422,0.598,0.633,0.949,0.633
		c0.188,0,0.645-0.093,1.371-0.281c-0.047-0.141-0.07-0.304-0.07-0.492c0-0.328,0.188-0.621,0.563-0.879
		c0.375-1.172,0.902-2.273,1.582-3.305c0.445-0.352,0.668-0.832,0.668-1.441h0.352l0.352-0.703l0.422-0.176
		c0.093-0.304,0.339-0.656,0.738-1.055c0.539-0.164,1.183-0.715,1.934-1.652c0.093,0.047,0.293,0.07,0.598,0.07
		c0.07,0,0.258-0.269,0.563-0.809c0.82-0.281,1.253-0.422,1.301-0.422c0.211,0,0.422,0.141,0.633,0.422l0.668-0.141l0.352,0.281
		h0.422c0.258,0.773,0.738,1.16,1.441,1.16h0.211c0.07,0.329,0.223,0.575,0.457,0.738l-0.316,0.141
		c0.82,0.399,1.23,1.324,1.23,2.777l-0.211,0.809l0.211,2.004l-0.352,0.316l-0.809,2.145l-1.441,1.793l-0.07,1.02
		c-1.711,1.406-3.117,2.368-4.219,2.883c-0.094,0.281-0.246,0.422-0.457,0.422c-0.094,0-0.281-0.047-0.563-0.141l-1.582,1.09h-0.949
		l-1.371,0.633l-0.598-0.352c-0.164-0.093-0.656-0.188-1.477-0.281c-0.727,0.68-1.09,1.559-1.09,2.637l-0.492,0.598
		c-0.094,0.891-0.211,1.512-0.352,1.863l-0.387,0.211l0.387,2.602l-0.387,0.352l0.07,0.809l-0.07,0.984
		c0,0.164,0.058,0.61,0.176,1.336c0.117,0.727,0.304,1.148,0.563,1.266c-0.118,0.329,0.111,0.727,0.686,1.195
		c0.574,0.469,1.189,0.797,1.846,0.984v0.422l1.863,0.281l2.672,0.141l1.793-0.211c0.726-0.515,1.253-0.832,1.582-0.949l0.563-0.844
		h0.668l0.07-0.352c1.031-0.352,1.6-0.592,1.705-0.721c0.105-0.128,0.158-0.251,0.158-0.369c0.141-0.281,0.352-0.422,0.633-0.422
		l0.211-0.457c1.055-0.164,1.71-0.855,1.969-2.074C330.679,82.842,330.96,82.748,331.289,82.748z M325.383,66.33
		c0.188-0.023,0.504-0.316,0.949-0.879l0.211-0.844c0.585-0.984,0.926-1.611,1.02-1.881c0.093-0.269,0.141-0.603,0.141-1.002
		c0-0.398-0.164-1.102-0.492-2.109l-1.441-0.492c-0.375,0.094-0.621,0.141-0.738,0.141l-0.422-0.141
		c-0.352,0-0.598,0.211-0.738,0.633c-0.422,0-1.067,0.176-1.934,0.527l-0.211,0.492c-0.094-0.047-0.188-0.07-0.281-0.07
		c-0.07,0-0.135,0.012-0.193,0.035c-0.059,0.023-0.111,0.059-0.158,0.105c-0.047,0.047-0.094,0.1-0.141,0.158
		c-0.047,0.059-0.088,0.135-0.123,0.229c-0.035,0.094-0.07,0.193-0.105,0.299s-0.07,0.211-0.105,0.316s-0.182,0.311-0.439,0.615
		l-0.527,0.633l-1.02,1.934l-0.527,0.457c-0.164,0.141-0.293,0.445-0.387,0.914c-0.094,0.469-0.727,1.594-1.898,3.375l0.492,0.281
		l0.246,0.598l1.195,0.352c0.68-0.469,1.406-0.785,2.18-0.949l0.211-0.422c0.258,0.094,0.445,0.141,0.563,0.141
		c0.234,0,0.457-0.141,0.668-0.422l0.844-0.141l0.527-0.879h0.492l0.352-0.773c0.633,0,1.23-0.293,1.793-0.879V66.33z"/>
	<path d="M372.563,75.541c-0.492,0.375-0.738,0.809-0.738,1.301c0,0.188,0.023,0.422,0.07,0.703l0.422,2.602l-0.422,2.813
		l0.141,1.16l-0.352,0.984l0.211,3.164l-0.211,0.457v2.566l-0.141,2.039l0.281,0.703l-0.141,4.746l0.352,0.879l-0.352,0.422
		l0.211,1.301l-0.352,0.352l0.281,1.09h-0.281l-0.141,0.563v1.09l-0.352,0.879l0.141,0.633l-1.512,2.672l-0.141,1.371l-0.387-0.07
		l-0.633,0.844c-0.61,0.68-1.043,1.289-1.301,1.828l-1.301,0.773c-0.375,1.102-1.067,1.652-2.074,1.652
		c0.047,0.047,0.07,0.117,0.07,0.211c0,0.164-0.094,0.246-0.281,0.246l-0.316,0.281c-0.68,0.328-1.078,0.609-1.195,0.844h-0.809
		l-0.211,0.281l-0.949-0.211l-1.441,0.949l-0.844-0.141l-2.32,0.352l-0.633-0.07l-0.352,0.07l-2.109-0.352h-0.563l-0.738-0.668
		l-0.352,0.07l-2.531-0.844l-1.793-0.281l-0.422-0.738l-1.16-0.141l-0.492-1.23l-0.668-0.211l-0.984-1.371l-1.02-0.492l-0.949-1.371
		c-0.141-0.188-0.34-0.364-0.598-0.527l-1.125-0.633l0.387-0.914l-0.668-0.738l0.07-0.422c0-0.492-0.164-1.113-0.492-1.863
		c-0.094-0.399-0.141-0.738-0.141-1.02c0-0.375,0.093-0.856,0.281-1.441l0.281-0.809v-0.211l0.492-0.281l0.176-0.352l0.281,0.07
		l0.176-0.844c0.07-0.352,0.633-1.008,1.688-1.969l1.02-0.281l1.723-1.512l2.004,0.141c0.328-0.492,0.621-0.738,0.879-0.738
		c0.328,0,0.492,0.199,0.492,0.598c0,0.141-0.023,0.258-0.07,0.352l-0.949,0.422l-0.633,0.527c-0.188,0.141-0.738,0.352-1.652,0.633
		l-0.492,1.02h-1.02c-0.492,0.867-1.16,1.699-2.004,2.496l0.07,1.371c-0.399,0.585-0.598,1.195-0.598,1.828l-0.352,0.211
		l1.582,3.727l1.441,0.527l0.211,0.844l2.25,2.18l0.844,0.246c0.328,0.117,0.633,0.293,0.914,0.527l1.02,0.949h1.16l0.879,0.844
		l1.16-0.141l0.492,0.457l4.113-0.176l0.563-0.141v0.141c0,0.258,0.093,0.387,0.281,0.387c0.023,0,0.082-0.047,0.176-0.141
		c0.492-0.492,1.113-0.738,1.863-0.738h0.352l2.285-0.949v0.316c0.304-0.234,0.457-0.387,0.457-0.457h-0.246
		c0.093-0.094,0.246-0.141,0.457-0.141c0.141,0,0.258,0.023,0.352,0.07c0.07-0.422,0.281-0.633,0.633-0.633h0.246l0.141-0.422
		c0.328,0,0.492-0.199,0.492-0.598h0.07c0.258,0,0.457-0.176,0.598-0.527s0.352-0.54,0.633-0.563l0.211,0.176
		c0.07-0.61,0.434-1.113,1.09-1.512c0.563-0.516,0.844-1.172,0.844-1.969h0.387c0.726-1.547,1.253-2.766,1.582-3.656l-0.141-0.211
		l0.141-1.828l0.352-0.211v-1.652l0.281-0.492l-0.633-0.809c0.422-0.422,0.633-0.656,0.633-0.703c0-0.047-0.047-0.229-0.141-0.545
		c-0.094-0.316-0.141-0.686-0.141-1.107v-0.281l0.141-2.953v-4.184l-0.352-0.809l0.352-1.441l-0.141-1.652v-3.797l-0.141-0.809
		l0.281-0.773l-0.281-0.668l0.281-0.633l-0.141-2.672l-0.668-0.633l0.668-0.668l-0.141-0.563l0.141-1.09l-0.352-0.422l0.141-0.879
		l-0.457-0.844c-0.211,0.234-0.516,0.422-0.914,0.563l-0.352,0.879l-0.598,0.352l-0.141,0.844l-1.16,0.809l0.141,0.352l-0.563,0.809
		l-0.492,0.141l-0.211,0.352l-1.09,0.352v0.949h-0.527l-0.211,0.844l-2.426,2.25l-1.652,1.863l-0.879,0.281l-0.422,0.668
		l-1.652,1.512l-0.668,0.141c-0.023,0.047-0.457,0.434-1.301,1.16l-0.211,0.633l-0.633,0.352h-0.598l-0.352,0.668l-0.773,0.141
		l-1.441,1.441l-1.301,0.211l-0.527,0.492c-0.352,0.117-0.832,0.293-1.441,0.527l-0.211,0.563c-0.234,0.141-0.786,0.211-1.652,0.211
		c-1.032,0-1.676-0.211-1.934-0.633l-1.441-2.461l-0.141-1.16l-0.738-2.637v-2.32l-0.281-0.703l0.457-1.758l-0.316-1.125
		l0.316-0.316l0.07-0.914l0.492-1.09l-0.07-1.652l0.352-0.949l-0.352-0.633l0.703-3.305l-0.211-2.18l0.211-1.934l-0.633-2.672
		l0.281-0.633l-0.281-0.527l0.563-1.406l-0.281-0.598l0.492-0.422v-0.949l0.809-0.07c0.211,0.61,0.527,1.09,0.949,1.441
		l-0.246,0.492l0.457,0.105l-0.211,0.914l0.563,1.02l-0.211,0.492l0.211,1.16l0.352,0.281l-0.492,1.09l0.422,1.863l-0.844,1.16
		l0.422,0.492l-0.422,2.742v2.531l-0.316,0.352l-0.281,3.727l-0.773,1.02l0.141,0.668v1.652l0.352,0.984l-0.352,0.809l0.141,1.23
		l-0.281,0.563l0.281,0.633v0.879l0.773,0.809l0.246,0.844l0.492-0.07l0.141,0.422l0.563-0.352l1.512,0.141l0.527-1.16l1.793-0.703
		l0.07,0.211c0.047-0.398,0.234-0.68,0.563-0.844c0.328-0.164,0.732-0.451,1.213-0.861c0.48-0.41,0.99-0.708,1.529-0.896
		l-0.07,0.387c0.234-0.093,0.352-0.223,0.352-0.387c0-0.047-0.047-0.164-0.141-0.352c0.469-0.047,1.248-0.592,2.338-1.635
		c1.09-1.042,2.209-1.646,3.357-1.811l0.879-1.441l0.141,0.422v-0.633c0.703-0.141,1.078-0.527,1.125-1.16l0.809-0.563
		c0.469-0.211,0.703-0.55,0.703-1.02V75.4c0.656-0.469,1.266-0.785,1.828-0.949l0.141-0.563c0.891-1.031,1.488-1.828,1.793-2.391
		c0.726-0.375,1.23-0.855,1.512-1.441l1.301-2.742l-0.07-1.652l0.563-0.281V64.01l-0.352-1.16l0.211-1.055l-0.633-0.387l-0.07-0.211
		c0-0.164,0.123-0.427,0.369-0.791c0.246-0.363,0.404-0.673,0.475-0.932l0.281-0.211l0.07-0.492c0.281-0.188,0.55-0.281,0.809-0.281
		l1.512,1.512l0.07,0.844l0.035,0.703c0.023,0.164,0.246,0.621,0.668,1.371l-0.422,0.457l0.141,0.984l-0.141,0.809l0.598,0.633
		l-0.598,0.07v1.02l-0.352,1.301l0.352,1.863l-0.07,1.371l0.211,0.492l-0.141,1.301L372.563,75.541z"/>
	<path d="M442.242,82.959h0.668c0.563,0,0.844,0.141,0.844,0.422c0,0.492-0.457,0.738-1.371,0.738c-0.047,0-0.199,0.094-0.457,0.281
		c-0.258,0.188-0.563,0.305-0.914,0.352l-2.566,0.352h-1.652l-0.703,0.457c-0.258,0.188-0.54,0.293-0.844,0.316l-1.195,0.105
		l-0.598,0.563l-3.375,0.141l-1.934,0.949c-1.008,0.07-1.652,0.329-1.934,0.773c-0.61,0-1.243-0.117-1.898-0.352l-1.512,0.527
		l-1.723,0.07l-1.582,0.563h-3.797l-2.391-0.633l-1.512,0.141l-0.563-0.527l-1.371-0.141l-2.18-2.215
		c-0.938-1.007-1.582-2.449-1.934-4.324c-0.141-0.726-0.434-1.617-0.879-2.672l0.598-2.461l-0.281-2.496l0.492-0.352l0.07-3.48
		l0.387-1.02c0.117-0.328,0.246-1.113,0.387-2.355l0.527-0.352l-0.457-0.809v-4.113c0.563-0.937,0.832-1.605,0.809-2.004
		l-0.07-2.461l1.16-1.406l-1.09-0.738l0.422-1.301l0.809-0.422l-0.422-1.16l0.914-0.352l0.211-0.668l0.527-0.141l0.773,0.141
		l0.879,2.039c-0.773,0.61-1.16,1.09-1.16,1.441c0,0.047-0.023,0.094-0.07,0.141c0,0.094,0.128,0.188,0.387,0.281
		c0.258,0.094,0.41,0.211,0.457,0.352l-0.773,2.32v2.672l-0.738,2.355l-0.211,2.32l-1.125,5.027l0.352,0.492l-0.281,0.668
		c-0.094,0.234-0.217,0.803-0.369,1.705c-0.153,0.902-0.229,1.412-0.229,1.529l0.211,2.145l-0.281,0.809l0.598,3.234l-0.07,0.281
		l1.125,2.602v0.809l3.621,2.285l2.813,0.281v0.211l2.637-0.141l2.742-0.492h2.039v0.281l0.773-0.703l3.832-0.07l0.914-0.598
		l2.672-0.141l1.23-0.352l4.535-0.281l1.934-0.598c0.375,0.094,0.832,0.141,1.371,0.141c0.539,0,0.809-0.164,0.809-0.492v-0.141
		C441.68,83.311,442.008,83.193,442.242,82.959z"/>
	<path d="M471.914,88.584l-1.02,0.492l-0.211,0.633c-0.399,0.093-0.762,0.223-1.09,0.387l-0.352-0.246l-0.527,0.246l-1.125-1.371
		v-1.582l-0.527-0.457l0.141-2.215l-0.422-4.605l0.281-1.512l-0.492-0.809l0.633-0.352l-0.422-0.633l0.141-0.668l0.352-0.281
		l-0.07-0.879h0.387v-1.441l0.141-0.703c-0.188-0.047-0.41-0.269-0.668-0.668l-1.125,0.527c-0.305,0.586-0.621,0.973-0.949,1.16
		l-0.07,0.773l-0.809,0.352l-0.141,1.02l-0.492,0.352v0.527c-0.469,0.352-0.809,0.773-1.02,1.266l-0.492,0.316l-1.09,1.934
		l-1.723,1.723l-0.563,0.949l-1.512,1.582l-0.387,0.844l-2.074,1.441l-2.32,2.742l-0.773,0.211c-0.234,0.047-0.598,0.293-1.09,0.738
		h-0.211c-0.399,0-0.715-0.387-0.949-1.16c-1.805-0.703-2.754-1.71-2.848-3.023l0.563-0.352c-0.329-0.914-0.516-1.851-0.563-2.813
		l-0.387-0.281l0.246-0.387c0.093-0.141,0.164-0.381,0.211-0.721c0.047-0.339,0.117-0.814,0.211-1.424l0.492-2.672
		c-0.047-0.093-0.07-0.258-0.07-0.492c0-0.258,0.07-0.527,0.211-0.809c-0.094-0.352-0.141-0.609-0.141-0.773
		c0-0.188,0.047-0.434,0.141-0.738l0.281-0.07c0.398-0.539,0.598-0.996,0.598-1.371c0-0.234-0.076-0.422-0.229-0.563
		c-0.153-0.141-0.229-0.234-0.229-0.281c0-0.164,0.128-0.281,0.387-0.352c-0.352-0.07-0.527-0.223-0.527-0.457
		c0-0.234,0.246-0.352,0.738-0.352v-0.141c0-0.515,0.146-0.99,0.439-1.424c0.293-0.434,0.451-0.732,0.475-0.896l-0.492-0.141
		l0.949-1.512v-0.352c0-1.007,0.328-1.875,0.984-2.602l-0.07-1.301l0.316-0.211c-0.164-0.211-0.246-0.445-0.246-0.703
		c0-0.141,0.152-0.211,0.457-0.211v-1.16c0.234-0.07,0.352-0.188,0.352-0.352c0-0.164-0.023-0.293-0.07-0.387
		c0.141-0.211,0.469-0.598,0.984-1.16c0.515-0.563,0.855-1.031,1.02-1.406h0.211c0.539,0,0.809-0.128,0.809-0.387
		c0-0.093-0.07-0.211-0.211-0.352c0.961,0,1.464-0.188,1.512-0.563l1.301-0.668l3.727,0.316v0.281l3.023,0.633h0.281
		c0.445,0,0.668,0.199,0.668,0.598l0.352-0.141c0.117,0.422,0.387,0.633,0.809,0.633l0.352-0.07l0.633,0.633l1.512,0.387v0.633
		c0.68-0.445,1.547-0.832,2.602-1.16v1.16h-0.352l0.703,0.352l-0.141,0.141l0.563,1.828l-0.633,0.703l-0.281,1.195
		c-0.094,0.399-0.316,0.891-0.668,1.477l0.457,0.914c-0.047,0.07-0.182,0.258-0.404,0.563c-0.223,0.305-0.334,0.844-0.334,1.617
		c0.141,0.07,0.211,0.188,0.211,0.352l-0.141,0.598l0.07,0.492l-0.211,0.773l0.141,0.668l-0.422,0.492l0.141,1.582l-0.211,0.211
		l0.211,0.316l-0.211,0.211c0.047,0.047,0.07,0.141,0.07,0.281c0,0.211-0.07,0.422-0.211,0.633l0.211,0.457l-0.352,0.633
		c-0.188,0.118-0.281,0.457-0.281,1.02l0.281,0.914l-0.668,0.879c0.234,0.492,0.457,0.809,0.668,0.949
		c-0.352,0.492-0.645,1.418-0.879,2.777l0.598,0.141l-0.07,0.387c0.047,0.07,0.07,0.234,0.07,0.492c0,0.375-0.176,0.856-0.527,1.441
		h0.457l0.211,1.09l1.441,0.141l0.492,0.914c-0.141,0.094-0.211,0.176-0.211,0.246c0,0.188,0.234,0.422,0.703,0.703h-0.07
		c-0.094,0-0.141,0.023-0.141,0.07C471.316,88.034,471.515,88.256,471.914,88.584z M468.223,62.709l-0.422-1.301l-1.16-0.352
		l-2.004-1.793c-0.305-0.188-0.551-0.281-0.738-0.281c-0.118,0-0.305,0.047-0.563,0.141l-0.352-0.352h-1.16l-0.352-0.457
		l-0.809,0.316l-0.352-0.316l-0.598,0.176l-1.125-0.176c-0.54,0-1.383,0.27-2.531,0.809l0.141,0.281l-0.633,0.211l-0.141,0.281
		l-0.809,0.105v0.422c-0.469,0.281-1.02,1.043-1.652,2.285c-0.399,1.454-0.832,2.684-1.301,3.691l0.563,0.281l-0.914,0.809
		l0.281,0.563c-0.422,0.633-0.633,1.371-0.633,2.215v0.387l-0.527,0.773v1.23c-0.375,0.422-0.586,0.856-0.633,1.301l-0.281,0.281
		v1.301l-0.246,0.352c0,0.469-0.094,1.113-0.281,1.934l0.387,0.879c-0.305,0.118-0.645,0.41-1.02,0.879l0.281,0.563l-0.422,0.563
		l0.563,1.441l-0.633,0.879l0.07,1.723l-0.211,0.809l0.352,0.211l0.141,0.492c0.398,0.164,0.738,0.434,1.02,0.809l1.652-0.387
		c0.304-0.703,0.832-1.078,1.582-1.125l-0.141-0.527c0.726-0.188,1.107-0.287,1.143-0.299c0.035-0.012,0.088-0.146,0.158-0.404
		c0.07-0.258,0.281-0.504,0.633-0.738h0.141c0.141,0,0.211-0.093,0.211-0.281l1.301-1.512h-0.281l0.773-0.703
		c0.258-0.258,0.645-0.48,1.16-0.668l0.527-1.371c0.891-0.375,1.394-0.879,1.512-1.512h0.422l0.703-0.914l-0.141-0.598l0.668-0.141
		c-0.094-0.164-0.141-0.281-0.141-0.352s0.164-0.334,0.492-0.791c0.328-0.457,0.585-0.838,0.773-1.143l0.316,0.141
		c0.07-0.563,0.328-0.996,0.773-1.301c0.093-0.375,0.281-0.673,0.563-0.896c0.281-0.223,0.48-0.334,0.598-0.334h0.492l0.07-0.879
		c0.093-0.093,0.141-0.188,0.141-0.281c0-0.141-0.07-0.281-0.211-0.422c0.422-0.703,0.761-1.137,1.02-1.301l0.141-0.773l0.492-0.387
		l-0.141-0.633c0.281-0.445,0.457-0.879,0.527-1.301l0.633-0.633L468.223,62.709z"/>
	<path d="M523.313,78.283c0.094,0.375-0.199,0.75-0.879,1.125l0.105,0.246c0,0.234-0.316,0.733-0.949,1.494
		c-0.633,0.762-0.949,1.342-0.949,1.74l-0.773,0.211c-0.023,0.984-0.457,1.559-1.301,1.723c-0.07,0.281-0.188,0.422-0.352,0.422
		h-0.141c-0.07,0.399-0.34,0.598-0.809,0.598l-0.422,0.844l-1.02,0.211l-0.844,0.563c-0.117,0.07-0.27,0.129-0.457,0.176
		l-1.582,0.281l-0.563-0.07l-0.527,0.07l-0.211-0.281l-0.633-0.07l-0.809-1.02h-0.352c-0.188-0.188-0.281-0.445-0.281-0.773
		c-0.773-0.844-1.16-1.5-1.16-1.969V83.24l-0.492-0.949v-0.422l0.352-0.211l-0.281-1.02l-0.527-1.301l0.105-1.934l-0.738-1.16
		v-1.793c-0.68-3.492-1.02-5.625-1.02-6.398v-0.281c-0.094-0.375-0.141-0.645-0.141-0.809c0-0.188,0.023-0.328,0.07-0.422
		c-0.539-0.82-0.82-1.488-0.844-2.004l-0.352-0.316l-1.512,1.582l-0.738,1.02l-2.531,3.023l-0.984,1.793
		c-0.352,0.773-0.633,1.342-0.844,1.705c-0.211,0.364-0.68,0.896-1.406,1.6l0.211,0.668l-0.492,1.371l-0.563,0.07v0.633h-0.387
		l-1.371,1.652c-0.047,0.797-0.352,1.254-0.914,1.371c-0.211,0.305-0.398,0.75-0.563,1.336c-0.164,0.586-0.434,0.891-0.809,0.914
		l-0.281,0.281c-0.445,0.773-0.861,1.366-1.248,1.775c-0.387,0.41-0.932,0.874-1.635,1.389c-0.164,0.797-0.457,1.278-0.879,1.441
		l-0.07,0.352c-0.023,0.329-0.141,0.639-0.352,0.932s-0.785,0.557-1.723,0.791c-0.352-0.047-0.621-0.445-0.809-1.195
		s-0.469-1.207-0.844-1.371l-0.211-0.457l0.563-0.914l-0.07-0.879l0.352-0.352l-0.352-0.633l0.07-0.879l-0.563-1.582l0.492-0.949
		l-0.281-0.984c0.328-0.656,0.492-1.64,0.492-2.953v-0.387c0-0.117-0.141-0.398-0.422-0.844c0.375-0.304,0.563-0.598,0.563-0.879
		l-0.141-1.125l0.422-2.742l-0.281-0.527l0.07-1.125l-0.352-0.668l0.281-2.285l-0.141-0.809l0.211-1.301l-0.211-1.863l0.492-0.949
		c0.867,0.258,1.342,0.434,1.424,0.527c0.082,0.094,0.141,0.311,0.176,0.65c0.035,0.34,0.053,0.885,0.053,1.635l0.598,0.949
		L486.82,66.4l0.281,2.953l-0.492,1.582l0.211,1.863v0.879l-0.668,1.055l0.457,1.512c-0.141,0.211-0.316,0.867-0.527,1.969
		l0.352,0.844c-0.398,1.289-0.586,2.227-0.563,2.813l0.07,2.602l0.211,0.352l0.879-0.422h0.703l0.387-1.582
		c0.539-0.164,0.867-0.434,0.984-0.809c0.07-0.563,0.434-0.844,1.09-0.844c0.07-0.539,0.234-0.902,0.492-1.09
		c0.188,0,0.41-0.339,0.668-1.02c0.492-0.492,0.879-0.996,1.16-1.512v-0.984h0.07c0.188,0,0.404-0.17,0.65-0.51
		c0.246-0.339,0.557-0.51,0.932-0.51c0.164-0.609,0.375-1.042,0.633-1.301l1.02-1.23l0.914-2.004
		c-0.094-0.375-0.141-0.621-0.141-0.738c0-0.141,0.07-0.211,0.211-0.211c0.961-0.633,1.441-1.253,1.441-1.863v-0.879
		c0.727-0.281,1.09-0.539,1.09-0.773c0-0.093-0.035-0.229-0.105-0.404s-0.105-0.287-0.105-0.334c0-0.234,0.094-0.352,0.281-0.352
		c0.164,0,0.352,0.07,0.563,0.211c0.352-1.289,0.891-1.934,1.617-1.934c0.141,0,0.352,0.047,0.633,0.141
		c0-0.68,0.211-1.23,0.633-1.652c0.094-0.304,0.656-0.668,1.688-1.09l0.352-0.563h0.281c0.398,0.54,0.738,0.879,1.02,1.02
		l0.141,0.492l0.352,0.141l0.141,1.371l0.949,0.563l-0.316,1.23l0.527,2.25v2.074l0.492,2.461l0.211,2.566l0.738,2.391l0.141,2.391
		c0.023,0.047,0.146,0.276,0.369,0.686c0.223,0.41,0.381,0.944,0.475,1.6l0.316,0.211v1.09l0.633,0.703l-0.141,0.527l0.492,0.281
		v0.352c0.445,0.281,0.832,0.422,1.16,0.422c0.398,0,0.762-0.093,1.09-0.281c0.164,0.094,0.281,0.141,0.352,0.141
		c0.211,0,0.422-0.188,0.633-0.563c0.68-0.07,1.02-0.258,1.02-0.563v-0.176c0.07-0.164,0.551-0.398,1.441-0.703
		c0.234-0.281,0.48-0.515,0.738-0.703l-0.07-0.176c0.047-0.117,0.135-0.251,0.264-0.404c0.129-0.152,0.357-0.363,0.686-0.633
		c0.328-0.269,0.551-0.521,0.668-0.756l0.387-0.773c0.305-0.422,0.762-1.102,1.371-2.039l0.984-0.492h0.668L523.313,78.283z"/>
	<path d="M558.539,80.217l-0.598,2.742l0.141,0.633l-0.281,0.352c0.281,0.516,0.422,1.032,0.422,1.547l-0.141,0.703l0.07,1.441
		c0,0.891-0.105,2.027-0.316,3.41c-0.211,1.383-0.34,2.308-0.387,2.777l-0.105,1.055c-0.023,0.304-0.281,0.961-0.773,1.969h0.387
		l-0.176,1.09l-0.422,0.527c-0.141,0.164-0.299,0.563-0.475,1.195s-0.381,1.16-0.615,1.582s-0.533,0.919-0.896,1.494
		c-0.363,0.574-0.768,1.042-1.213,1.406c-0.445,0.363-1.078,0.908-1.898,1.635l-1.09,0.492c-0.563,0.469-0.996,0.715-1.301,0.738
		l-0.352,0.422c-1.688,0.328-2.555,0.492-2.602,0.492h-0.141l-0.141,0.246c-0.656,0.281-1.43,0.422-2.32,0.422h-2.566l-1.863-0.422
		l-1.16,0.211l-0.527-0.457l-2.074-0.281l-0.844-0.773c-0.258-0.234-0.867-0.621-1.828-1.16c-1.266-0.516-2.027-1.289-2.285-2.32
		l0.281-0.352l-0.281-1.301c0.164-0.234,0.375-0.352,0.633-0.352c0.141-0.188,0.281-0.281,0.422-0.281
		c0.07,0,0.346,0.047,0.826,0.141c0.48,0.093,1.049,0.164,1.705,0.211l-0.07,0.738c0.258,0,0.598,0.141,1.02,0.422
		c0,0.188-0.047,0.387-0.141,0.598l-0.141,0.352c0,0.539,0.211,0.844,0.633,0.914c0,0.304,0.041,0.469,0.123,0.492
		c0.082,0.023,0.252,0.082,0.51,0.176l3.023,0.984l0.809-0.141l0.141,0.281h1.582c0.375,0,0.785,0.082,1.23,0.246
		c0.445-0.352,1.711-0.621,3.797-0.809c0.422-0.07,0.809-0.258,1.16-0.563c0.891-0.094,1.418-0.293,1.582-0.598h0.211
		c0.234,0,0.463-0.047,0.686-0.141c0.223-0.094,0.416-0.234,0.58-0.422l2.426-2.531l1.371-2.074l0.07-0.949l0.773-1.16l0.141-1.055
		l0.387-0.879l0.422-2.145l0.563-2.109l-0.07-1.512v-0.563c0-1.055,0.176-1.921,0.527-2.602l-0.457-1.582v-3.727l-0.492-1.371v-2.18
		l-0.633-1.512l0.141-2.426l-0.879-2.672c-0.141-0.141-0.305-0.211-0.492-0.211c-0.281,0-0.598,0.234-0.949,0.703l0.141,0.738
		l-0.984,0.422l-0.527,1.371l-0.914,0.914l-1.301,2.109l-1.723,1.23l-2.039,2.285c-0.609,0.563-1.166,1.055-1.67,1.477
		s-1.02,0.826-1.547,1.213s-0.838,0.65-0.932,0.791l-0.352,0.527c-0.117,0.164-0.434,0.41-0.949,0.738l-1.16,0.527l-0.633,0.668
		c-0.211,0.211-0.727,0.54-1.547,0.984c-0.188,0.329-0.492,0.492-0.914,0.492h-0.211c-0.961,0.821-2.016,1.23-3.164,1.23
		c-0.469,0-0.809-0.023-1.02-0.07l-0.598,0.352c-0.258-0.141-0.762-0.258-1.512-0.352c-1.781-1.781-2.766-3.222-2.953-4.324
		l-0.422-2.813l0.141-1.793l0.809-2.742l-0.07-0.844l0.281-1.195c0.211-0.82,0.434-1.429,0.668-1.828
		c0.234-0.398,0.375-0.984,0.422-1.758l0.07-1.125l1.441-2.813c0.047-0.093,0.188-0.264,0.422-0.51s0.645-0.873,1.23-1.881
		l0.773-0.844c0.375-0.891,0.768-1.453,1.178-1.688c0.41-0.234,0.721-0.785,0.932-1.652c0.234-0.281,0.727-0.492,1.477-0.633
		s1.266-0.598,1.547-1.371l0.492,0.141l1.301-0.914c0.445-0.539,0.879-0.809,1.301-0.809c0.094,0,0.281,0.047,0.563,0.141
		l2.109-0.773l1.336,0.281h0.949l0.738,0.492h0.422c0.117,0.234,0.58,0.738,1.389,1.512s1.26,1.254,1.354,1.441
		c-0.023,0.656-0.176,1.208-0.457,1.652h-1.125l-0.949-1.512c-0.867-0.352-1.371-0.656-1.512-0.914l-0.352,0.141
		c-0.656-0.304-1.16-0.457-1.512-0.457c-0.797,0-1.617,0.316-2.461,0.949l-0.492-0.07l-0.141,0.492h-0.668l-0.914,0.211
		c-0.258,0.68-0.668,1.02-1.23,1.02c-0.563,0.586-1.02,0.973-1.371,1.16l-0.422,0.914l-0.668,0.176l-0.07,0.492h-0.633l-1.16,2.004
		l-0.949,0.668l-0.422,1.301l-0.984,1.512c-0.117,0.188-0.199,0.738-0.246,1.652l-0.773,0.844l-0.809,3.234l-0.703,0.809l0.07,1.301
		l-0.879,2.953l0.281,0.984l-0.141,1.371c0.211,0.188,0.398,0.551,0.563,1.09c0.164,0.54,0.41,0.879,0.738,1.02l0.211,0.703
		c0.492,0.141,0.809,0.281,0.949,0.422c0.352-0.141,0.691-0.211,1.02-0.211l0.703,0.141c0.094,0,0.387-0.047,0.879-0.141
		c0.328-0.398,1.477-0.703,3.445-0.914c0.234-0.258,0.516-0.598,0.844-1.02s0.65-0.726,0.967-0.914
		c0.316-0.188,0.715-0.451,1.195-0.791c0.48-0.339,0.826-0.545,1.037-0.615c0.844-0.211,1.266-0.656,1.266-1.336
		c1.172-0.469,1.828-0.972,1.969-1.512l0.563-0.176c0.141-0.047,0.393-0.234,0.756-0.563c0.363-0.328,0.908-1.02,1.635-2.074
		l0.422,0.281l0.281-0.668l0.809-0.281c-0.047-0.07-0.07-0.188-0.07-0.352c0-0.304,0.141-0.598,0.422-0.879
		c0.188,0,0.357-0.029,0.51-0.088c0.152-0.058,0.264-0.181,0.334-0.369l0.246-0.527l1.371-1.793h0.281l0.211-1.441
		c0.281-0.164,0.926-1.699,1.934-4.605l0.527-0.176l-0.387-1.125l-0.246-1.16c-0.117-0.445-0.27-0.809-0.457-1.09l-0.738-1.23
		l0.457-1.125l-0.316-1.301c0.234-0.492,0.504-0.738,0.809-0.738c0.141,0,0.27,0.035,0.387,0.105s0.375,0.469,0.773,1.195
		l0.703,0.352l-0.07,1.301l0.316,0.949c0.094,0.281,0.152,0.527,0.176,0.738s0.117,0.545,0.281,1.002s0.246,0.791,0.246,1.002
		c0,0.188-0.07,0.281-0.211,0.281c0.211,0.68,0.516,1.301,0.914,1.863l-0.211,1.441c0.539,0.703,0.809,1.137,0.809,1.301
		c0,0.281-0.152,0.575-0.457,0.879l0.176,0.914l0.492,0.211l-0.211,0.949l0.281,1.863c0.234,0.54,0.352,1.067,0.352,1.582
		c0,0.023-0.023,0.07-0.07,0.141c-0.141,0.258-0.211,0.809-0.211,1.652l0.492,0.387L558.539,80.217z"/>
	<path d="M592.605,83.662l-0.492,0.563c-0.117,0.164-0.434,0.891-0.949,2.18l-1.02,0.738l0.07,0.422h-0.949l-0.914,1.02h-1.23
		l-0.809,0.422c-0.234,0-0.492,0.141-0.773,0.422c-0.305-0.141-0.621-0.211-0.949-0.211c-0.258,0-0.563,0.07-0.914,0.211v0.422
		l-1.301-0.141l-1.02,0.141l-0.949-0.141l-0.141,0.211l-0.352-0.211l-0.633,0.211h-0.457c-0.328,0-0.68,0.058-1.055,0.176
		l-0.738-0.246l-0.563,0.387l-0.281-0.316l-0.527,0.316c-0.609-0.352-1.113-0.527-1.512-0.527c-0.141,0-0.352,0.07-0.633,0.211
		c-0.305-0.164-0.715-0.27-1.23-0.316l-1.582-0.176c-0.492,0-0.879,0.047-1.16,0.141l-0.141-0.281l-0.633,0.422
		c-0.141-0.188-0.316-0.281-0.527-0.281l-0.211-0.422c-1.477-0.07-2.215-1.125-2.215-3.164l1.512-0.211l-0.07-0.527l0.352-0.492
		l0.211,0.422h0.422v0.352l0.668-0.352c0.375,0.07,0.563,0.246,0.563,0.527c0,0.141-0.07,0.352-0.211,0.633l0.633,0.07v1.09
		l1.828,0.281l0.703,0.633l0.211-0.352l9.211-0.563l3.164-0.598l0.176-0.352l0.773-0.141l0.211-0.281
		c1.102-0.211,2.063-0.598,2.883-1.16l0.211,0.211l0.141-0.422l0.527-0.422l0.07-0.246l-0.352-0.492l0.141-0.633l-0.809-0.668
		l-0.141-0.563c-0.375-0.141-0.609-0.281-0.703-0.422l-0.316,0.141l-0.703-0.668h-0.281l-0.316-0.422h-0.703
		c-0.141-0.375-0.41-0.563-0.809-0.563l-0.492,0.07c-0.797,0-1.512-0.246-2.145-0.738h-0.738l-0.914-0.563l-0.457,0.281
		l-0.211-0.352h-0.492l-0.809-0.668l-2.145-0.914l-0.809-0.738l-2.426-0.422l-0.07-0.211l-2.039-1.441l-0.914-2.32l-0.738-1.125
		l-0.211-3.34l0.211-0.352c0-0.937,0.246-1.758,0.738-2.461c0.891-0.515,1.348-1.02,1.371-1.512l0.492,0.07
		c0.188-0.585,0.633-1.16,1.336-1.723l0.879-0.773l4.184-1.793l2.109-0.387l2.074-0.633l3.234,0.211l0.141,0.422h0.211
		c0.398,0,0.715,0.129,0.949,0.387v0.633l0.879,0.633c-0.258,1.125-0.387,1.758-0.387,1.898c0,0.422-0.211,0.633-0.633,0.633
		c-0.188,0-0.527-0.504-1.02-1.512l-1.934-0.141l-0.492,0.141c-0.75-0.563-1.184-0.844-1.301-0.844c-0.141,0-0.211,0.07-0.211,0.211
		l-0.668,0.492c-0.797,0-1.441,0.211-1.934,0.633c-0.891,0.164-1.512,0.457-1.863,0.879h-0.809l-0.598,0.457
		c-0.164,0.118-0.633,0.281-1.406,0.492l-0.281,0.352l-0.387,0.211l-0.984,0.949l-0.668,1.055c-0.68,0.445-1.031,0.738-1.055,0.879
		l-0.738,2.953l0.352,0.211v0.211c0,0.797,0.387,1.477,1.16,2.039v0.352l1.934,1.16h0.457l1.055,1.055h1.441l0.879,0.738
		l1.652,0.211l0.492,0.422l3.094,0.949c0,0.281,0.176,0.422,0.527,0.422c0.586,0,1.125,0.141,1.617,0.422s0.961,0.457,1.406,0.527
		l0.07,0.352l0.633,0.352h1.371l1.23,0.809c0.141,0.516,0.457,0.949,0.949,1.301l-0.07,0.211l0.352,0.492l0.633,0.141l-0.281,0.527
		C592.242,82.912,592.512,83.288,592.605,83.662z"/>
	<path d="M627.375,88.795c0.047,0.234,0.07,0.539,0.07,0.914c0,1.102-0.527,1.652-1.582,1.652c-0.703,0-1.184-0.598-1.441-1.793
		l-0.492-2.215v-0.668c0.047-0.328,0.07-0.726,0.07-1.195c0-0.563-0.246-1.195-0.738-1.898l0.492-1.16l-0.281-1.723l0.281-0.844
		v-1.16l0.176-1.02l-0.316-1.125l0.316-0.668v-2.672l0.07-3.445l-0.527-2.285l0.281-0.949l-0.633-2.742V62.92l-1.16-0.492
		l-1.301,1.195c-0.188,0.164-0.422,0.316-0.703,0.457l-1.23,0.527l-2.004,2.883l-0.809,0.211l-1.793,2.953v0.352h-0.492
		l-0.211,0.633l-0.773,0.738c-0.281,0.305-0.504,0.762-0.668,1.371l-0.738,2.496l-1.09,1.406c-0.141,0.164-0.305,0.563-0.492,1.195
		l-0.703,0.668l-0.316,1.863l-1.512,1.441l-0.141,2.004h-0.281l-0.492,1.371l-1.16,2.074c-0.914,1.031-1.465,1.734-1.652,2.109
		l-0.352-0.141h-0.457l-0.211-0.387l-0.633-2.426l-0.141-3.973l-0.211-1.16l0.211-1.441l-0.07-2.496l0.352-0.141l0.492-6.117
		l0.211-1.16l-0.07-0.879l0.387-0.211l-0.176-0.492l0.316-2.531l0.352-1.02l-0.211-1.055l0.211-0.527l-0.211-0.422l0.211-2.391
		l-0.352-0.352l0.211-0.492l-0.07-2.742l-0.457-1.23h0.457v-0.633l-0.668-2.953v-1.441l-0.281-0.668l-0.352-2.285
		c-0.281-1.055-0.668-2.039-1.16-2.953l0.809-1.16l-0.141-0.211c0.563,0,0.844,0.293,0.844,0.879l1.02,0.914l0.281,0.844
		c0.094,0.258,0.387,0.656,0.879,1.195l-0.176,0.633l0.457,1.301l-0.457,0.633l0.668,0.527l-0.07,1.863l0.07,3.586l0.422,1.828
		l-0.281,0.773l0.07,1.371l-0.281,1.16l0.211,1.793l-0.492,1.793l0.281,0.492l-0.141,4.395l0.141,0.668l-0.281,0.352l-0.316,2.672
		l-0.352,0.773l0.281,0.879l-0.141,0.422l-0.141,2.391l-0.703,2.074c0.516,0.61,0.773,1.02,0.773,1.23l-0.563,1.02
		c0.234,0.469,0.352,1.043,0.352,1.723l0.668-0.527l0.281-0.914l1.125-2.32l0.527-1.652c0.773-0.234,1.16-0.738,1.16-1.512
		c0.141-0.07,0.492-0.645,1.055-1.723l0.316-0.914c0.094-0.304,0.328-0.691,0.703-1.16l0.07-0.949l-0.211-0.211l0.492-0.422
		l0.141,0.211l1.16-1.441c0.375-0.188,0.563-0.48,0.563-0.879v-0.281c0.633-0.093,0.949-0.527,0.949-1.301l0.211-0.141v-0.352
		l0.598-0.141l0.07-0.949h0.492l-0.07-0.563h0.492v-0.457c0.328-0.234,0.527-0.352,0.598-0.352c0.047,0,0.07,0.047,0.07,0.141v0.141
		l0.07-0.633h0.211c0.563,0,0.844-0.457,0.844-1.371l0.879-0.703l0.141,0.281c0.352-0.398,0.574-0.879,0.668-1.441l0.492-0.211
		l0.211-0.598l0.563-0.07c0.211-0.188,0.48-0.311,0.809-0.369c0.328-0.058,0.516-0.1,0.563-0.123l-0.141-0.281
		c0.984-0.539,1.582-0.809,1.793-0.809c0.305,0,0.691,0.316,1.16,0.949c0.352,0.047,0.527,0.258,0.527,0.633l0.633,0.527
		c0,0.329,0.387,1.137,1.16,2.426v5.625l-0.141,2.953l0.281,0.703v5.273l-0.141,0.949v1.793l0.141,1.512l-0.281,1.793
		c0.188,0.188,0.328,0.902,0.422,2.145l0.703,0.879v0.879L627.375,88.795z"/>
	<path d="M662.391,88.584l-1.02,0.492l-0.211,0.633c-0.398,0.093-0.762,0.223-1.09,0.387l-0.352-0.246l-0.527,0.246l-1.125-1.371
		v-1.582l-0.527-0.457l0.141-2.215l-0.422-4.605l0.281-1.512l-0.492-0.809l0.633-0.352l-0.422-0.633l0.141-0.668l0.352-0.281
		l-0.07-0.879h0.387v-1.441l0.141-0.703c-0.188-0.047-0.41-0.269-0.668-0.668l-1.125,0.527c-0.305,0.586-0.621,0.973-0.949,1.16
		l-0.07,0.773l-0.809,0.352l-0.141,1.02l-0.492,0.352v0.527c-0.469,0.352-0.809,0.773-1.02,1.266l-0.492,0.316l-1.09,1.934
		l-1.723,1.723l-0.563,0.949l-1.512,1.582l-0.387,0.844l-2.074,1.441l-2.32,2.742L642,89.639c-0.234,0.047-0.598,0.293-1.09,0.738
		h-0.211c-0.398,0-0.715-0.387-0.949-1.16c-1.805-0.703-2.754-1.71-2.848-3.023l0.563-0.352c-0.328-0.914-0.516-1.851-0.563-2.813
		l-0.387-0.281l0.246-0.387c0.094-0.141,0.164-0.381,0.211-0.721c0.047-0.339,0.117-0.814,0.211-1.424l0.492-2.672
		c-0.047-0.093-0.07-0.258-0.07-0.492c0-0.258,0.07-0.527,0.211-0.809c-0.094-0.352-0.141-0.609-0.141-0.773
		c0-0.188,0.047-0.434,0.141-0.738l0.281-0.07c0.398-0.539,0.598-0.996,0.598-1.371c0-0.234-0.076-0.422-0.229-0.563
		s-0.229-0.234-0.229-0.281c0-0.164,0.129-0.281,0.387-0.352c-0.352-0.07-0.527-0.223-0.527-0.457c0-0.234,0.246-0.352,0.738-0.352
		v-0.141c0-0.515,0.146-0.99,0.439-1.424c0.293-0.434,0.451-0.732,0.475-0.896l-0.492-0.141l0.949-1.512v-0.352
		c0-1.007,0.328-1.875,0.984-2.602l-0.07-1.301l0.316-0.211c-0.164-0.211-0.246-0.445-0.246-0.703c0-0.141,0.152-0.211,0.457-0.211
		v-1.16c0.234-0.07,0.352-0.188,0.352-0.352c0-0.164-0.023-0.293-0.07-0.387c0.141-0.211,0.469-0.598,0.984-1.16
		s0.855-1.031,1.02-1.406h0.211c0.539,0,0.809-0.128,0.809-0.387c0-0.093-0.07-0.211-0.211-0.352c0.961,0,1.465-0.188,1.512-0.563
		l1.301-0.668l3.727,0.316v0.281l3.023,0.633h0.281c0.445,0,0.668,0.199,0.668,0.598l0.352-0.141
		c0.117,0.422,0.387,0.633,0.809,0.633l0.352-0.07l0.633,0.633l1.512,0.387v0.633c0.68-0.445,1.547-0.832,2.602-1.16v1.16h-0.352
		l0.703,0.352l-0.141,0.141l0.563,1.828l-0.633,0.703l-0.281,1.195c-0.094,0.399-0.316,0.891-0.668,1.477l0.457,0.914
		c-0.047,0.07-0.182,0.258-0.404,0.563c-0.223,0.305-0.334,0.844-0.334,1.617c0.141,0.07,0.211,0.188,0.211,0.352l-0.141,0.598
		l0.07,0.492l-0.211,0.773l0.141,0.668l-0.422,0.492l0.141,1.582L660,73.221l0.211,0.316L660,73.748
		c0.047,0.047,0.07,0.141,0.07,0.281c0,0.211-0.07,0.422-0.211,0.633l0.211,0.457l-0.352,0.633c-0.188,0.118-0.281,0.457-0.281,1.02
		l0.281,0.914l-0.668,0.879c0.234,0.492,0.457,0.809,0.668,0.949c-0.352,0.492-0.645,1.418-0.879,2.777l0.598,0.141l-0.07,0.387
		c0.047,0.07,0.07,0.234,0.07,0.492c0,0.375-0.176,0.856-0.527,1.441h0.457l0.211,1.09l1.441,0.141l0.492,0.914
		c-0.141,0.094-0.211,0.176-0.211,0.246c0,0.188,0.234,0.422,0.703,0.703h-0.07c-0.094,0-0.141,0.023-0.141,0.07
		C661.793,88.034,661.992,88.256,662.391,88.584z M658.699,62.709l-0.422-1.301l-1.16-0.352l-2.004-1.793
		c-0.305-0.188-0.551-0.281-0.738-0.281c-0.117,0-0.305,0.047-0.563,0.141l-0.352-0.352h-1.16l-0.352-0.457l-0.809,0.316
		l-0.352-0.316l-0.598,0.176l-1.125-0.176c-0.539,0-1.383,0.27-2.531,0.809l0.141,0.281l-0.633,0.211l-0.141,0.281l-0.809,0.105
		v0.422c-0.469,0.281-1.02,1.043-1.652,2.285c-0.398,1.454-0.832,2.684-1.301,3.691l0.563,0.281l-0.914,0.809l0.281,0.563
		c-0.422,0.633-0.633,1.371-0.633,2.215v0.387l-0.527,0.773v1.23c-0.375,0.422-0.586,0.856-0.633,1.301l-0.281,0.281v1.301
		l-0.246,0.352c0,0.469-0.094,1.113-0.281,1.934l0.387,0.879c-0.305,0.118-0.645,0.41-1.02,0.879l0.281,0.563l-0.422,0.563
		l0.563,1.441l-0.633,0.879l0.07,1.723l-0.211,0.809l0.352,0.211l0.141,0.492c0.398,0.164,0.738,0.434,1.02,0.809l1.652-0.387
		c0.305-0.703,0.832-1.078,1.582-1.125l-0.141-0.527c0.727-0.188,1.107-0.287,1.143-0.299c0.035-0.012,0.088-0.146,0.158-0.404
		c0.07-0.258,0.281-0.504,0.633-0.738h0.141c0.141,0,0.211-0.093,0.211-0.281l1.301-1.512h-0.281l0.773-0.703
		c0.258-0.258,0.645-0.48,1.16-0.668l0.527-1.371c0.891-0.375,1.395-0.879,1.512-1.512h0.422l0.703-0.914l-0.141-0.598l0.668-0.141
		c-0.094-0.164-0.141-0.281-0.141-0.352s0.164-0.334,0.492-0.791s0.586-0.838,0.773-1.143l0.316,0.141
		c0.07-0.563,0.328-0.996,0.773-1.301c0.094-0.375,0.281-0.673,0.563-0.896c0.281-0.223,0.48-0.334,0.598-0.334h0.492l0.07-0.879
		c0.094-0.093,0.141-0.188,0.141-0.281c0-0.141-0.07-0.281-0.211-0.422c0.422-0.703,0.762-1.137,1.02-1.301l0.141-0.773l0.492-0.387
		l-0.141-0.633c0.281-0.445,0.457-0.879,0.527-1.301l0.633-0.633L658.699,62.709z"/>
	<path d="M714.809,59.404l-0.211,1.02l0.07,0.703l-0.879,3.621l-0.949,1.125l-0.352,1.617l-0.703,1.055l-1.16,2.883l-1.301,2.461
		l-2.074,3.375l-0.387,1.09l-1.125,2.074l-1.16,2.813l-2.18,4.324c-0.328,1.359-0.586,2.145-0.773,2.355
		c-0.609-0.234-1.113-0.469-1.512-0.703l-1.02-3.375l-1.301-2.391v-0.703l-0.984-2.602l-0.457-0.563l-2.426-5.625l-2.039-4.113
		c-0.094-0.093-0.258-0.141-0.492-0.141s-0.445,0.047-0.633,0.141l-1.371,2.32l-1.23,1.055l-1.652,2.531l-1.23,1.512l-0.633,2.074
		l-1.652,2.25l-0.176,0.844c-0.75,1.617-1.125,2.484-1.125,2.602v0.949l-0.527,0.914l-0.773,2.109l0.141,0.281
		c-0.094-0.047-0.234-0.07-0.422-0.07c-0.164,0-0.504,0.117-1.02,0.352c-0.117-0.188-0.363-0.352-0.738-0.492v-0.352l-0.563-0.809
		l-0.352-1.934l-0.598-1.23v-0.949l-0.07-0.492l-0.984-3.305l-0.387-2.461l-0.492-0.563l0.07-0.738l-0.703-2.004v-0.703
		l-0.738-2.109l-0.844-1.301l0.141-1.441l-0.141-0.703l-0.738-2.109l-0.141-0.914c-0.047-0.281-0.229-0.697-0.545-1.248
		c-0.316-0.55-0.475-1.002-0.475-1.354c0-0.234,0.023-0.422,0.07-0.563l-0.492-0.211l-0.949-2.32l0.949-0.281
		c0.047-0.422,0.152-0.645,0.316-0.668l0.984-0.211l0.422,0.668h0.738l0.281,1.23l0.352,0.281l-0.141,0.773l0.211,0.738
		l-0.211,0.773l0.809,1.441l-0.141,1.02l0.914,3.445l-0.141,0.879l0.422,2.426l0.949,2.461l0.492,3.305l0.668,0.809v1.512
		c0.398,1.406,0.609,2.391,0.633,2.953l0.738,0.633l0.281,0.949h0.633l3.41-6.047c0.375,0,0.563-0.434,0.563-1.301
		c0.563-0.352,0.844-0.715,0.844-1.09c0-0.492,0.152-0.996,0.457-1.512c0.281-0.281,0.422-0.585,0.422-0.914
		c0.398,0.234,0.738,0.352,1.02,0.352c-0.141-0.304-0.211-0.598-0.211-0.879c0-0.375,0.188-0.563,0.563-0.563l0.211,0.07
		c0.047,0,0.088-0.023,0.123-0.07c0.035-0.047,0.023-0.093-0.035-0.141c-0.059-0.047-0.088-0.093-0.088-0.141
		c0-0.164,0.141-0.339,0.422-0.527l-0.141-0.633v-0.352c0.07-0.211,0.164-0.316,0.281-0.316s0.176,0.105,0.176,0.316
		c0.305-0.258,0.539-0.387,0.703-0.387c0.141,0,0.234,0.023,0.281,0.07l-0.141-0.984l0.492-0.668l-0.211-0.984l0.387,0.141
		l0.141-0.527l0.633-0.281l-0.281-0.352l0.281-0.281l0.07-0.352h0.809c-0.633-0.703-0.949-1.406-0.949-2.109
		c0-0.422,0.141-0.926,0.422-1.512l1.16-0.141c0.422,0.445,0.855,0.973,1.301,1.582l0.246,1.547
		c0.023,0.164,0.234,0.586,0.633,1.266l-0.176,0.809l0.527,1.723v0.914l1.301,2.32v0.633l0.492,0.457l1.16,3.094l0.141,1.266
		l0.773,1.09l2.18,5.133l1.301,0.281l2.285-4.816l0.879-0.738l0.492-1.582l0.949-0.492v-1.23c1.008-0.656,1.512-1.301,1.512-1.934
		v-1.16h0.352v-0.352l0.563-0.457l1.23-2.426c0.07-0.609,0.434-1.383,1.09-2.32l-0.141-0.703l1.02-1.441l0.844-2.32
		c-0.563-1.805-0.844-3.176-0.844-4.113c0-0.703,0.211-1.125,0.633-1.266l0.703,0.281c0.047,0.211,0.363,0.352,0.949,0.422
		l0.141,0.738L714.809,59.404z"/>
</g>
<g>
</g>
<g>
</g>
<g>
</g>
<g>
</g>
<g>
</g>
<g>
</g>
<g>
</g>
<g>
</g>
<g>
</g>
<g>
</g>
<g>
</g>
<g>
</g>
<g>
</g>
<g>
</g>
<g>
</g>
</svg>
